<svg version="1.1" viewBox="0.0 0.0 600.0 371.0" fill="none" stroke="none" stroke-linecap="square" stroke-miterlimit="10" width="600" height="371" xmlns:xlink="http://www.w3.org/1999/xlink" xmlns="http://www.w3.org/2000/svg"><path fill="#ffffff" d="M0 0L600.0 0L600.0 371.0L0 371.0L0 0Z" fill-rule="nonzero"/><path stroke="#333333" stroke-width="1.0" stroke-linecap="butt" d="M105.5 332.5L581.5 332.5" fill-rule="nonzero"/><path stroke="#cccccc" stroke-width="1.0" stroke-linecap="butt" d="M105.5 264.5L581.5 264.5" fill-rule="nonzero"/><path stroke="#cccccc" stroke-width="1.0" stroke-linecap="butt" d="M105.5 197.5L581.5 197.5" fill-rule="nonzero"/><path stroke="#cccccc" stroke-width="1.0" stroke-linecap="butt" d="M105.5 129.5L581.5 129.5" fill-rule="nonzero"/><path stroke="#cccccc" stroke-width="1.0" stroke-linecap="butt" d="M105.5 61.5L581.5 61.5" fill-rule="nonzero"/><clipPath id="id_0"><path d="M105.55 61.916668L581.45 61.916668L581.45 332.45L105.55 332.45L105.55 61.916668Z" clip-rule="nonzero"/></clipPath><path stroke="#000000" stroke-width="2.0" stroke-linecap="butt" stroke-opacity="0.0" clip-path="url(#id_0)" d="M247.0 332.0L155.0 332.0L155.0 64.0C155.0 62.89543 155.89543 62.0 157.0 62.0L245.0 62.0C246.10457 62.0 247.0 62.89543 247.0 64.0Z" fill-rule="nonzero"/><path fill="#4285f4" clip-path="url(#id_0)" d="M247.0 332.0L155.0 332.0L155.0 64.0C155.0 62.89543 155.89543 62.0 157.0 62.0L245.0 62.0C246.10457 62.0 247.0 62.89543 247.0 64.0Z" fill-rule="nonzero"/><path stroke="#000000" stroke-width="2.0" stroke-linecap="butt" stroke-opacity="0.0" clip-path="url(#id_0)" d="M390.0 332.0L298.0 332.0L298.0 313.0C298.0 311.89542 298.89542 311.0 300.0 311.0L388.0 311.0C389.10458 311.0 390.0 311.89542 390.0 313.0Z" fill-rule="nonzero"/><path fill="#4285f4" clip-path="url(#id_0)" d="M390.0 332.0L298.0 332.0L298.0 313.0C298.0 311.89542 298.89542 311.0 300.0 311.0L388.0 311.0C389.10458 311.0 390.0 311.89542 390.0 313.0Z" fill-rule="nonzero"/><path stroke="#000000" stroke-width="2.0" stroke-linecap="butt" stroke-opacity="0.0" clip-path="url(#id_0)" d="M532.0 332.0L440.0 332.0L440.0 331.5C440.0 331.22385 440.22385 331.0 440.5 331.0L531.5 331.0C531.7761 331.0 532.0 331.22385 532.0 331.5Z" fill-rule="nonzero"/><path fill="#4285f4" clip-path="url(#id_0)" d="M532.0 332.0L440.0 332.0L440.0 331.5C440.0 331.22385 440.22385 331.0 440.5 331.0L531.5 331.0C531.7761 331.0 532.0 331.22385 532.0 331.5Z" fill-rule="nonzero"/><path stroke="#4285f4" stroke-width="3.0" stroke-linejoin="round" stroke-linecap="round" d="M182.79688 78.71667L177.20312 78.71667L177.20312 77.93542L180.15625 74.65417Q180.8125 73.90417 181.0625 73.45104Q181.3125 72.98229 181.3125 72.48229Q181.3125 71.81042 180.90625 71.38854Q180.51562 70.95104 179.82812 70.95104Q179.03125 70.95104 178.57812 71.41979Q178.125 71.87292 178.125 72.70104L177.04688 72.70104Q177.04688 71.51354 177.79688 70.79479Q178.5625 70.06042 179.82812 70.06042Q181.03125 70.06042 181.71875 70.68542Q182.40625 71.31042 182.40625 72.35729Q182.40625 73.60729 180.79688 75.35729L178.51562 77.82604L182.79688 77.82604L182.79688 78.71667ZM189.5625 75.07604Q189.5625 76.98229 188.90625 77.91979Q188.26562 78.84167 186.875 78.84167Q185.51562 78.84167 184.85938 77.93542Q184.20312 77.02917 184.17188 75.21667L184.17188 73.77917Q184.17188 71.88854 184.8125 70.98229Q185.46875 70.06042 186.85938 70.06042Q188.23438 70.06042 188.89062 70.95104Q189.54688 71.82604 189.5625 73.66979L189.5625 75.07604ZM188.46875 73.59167Q188.46875 72.21667 188.07812 71.59167Q187.70312 70.95104 186.85938 70.95104Q186.03125 70.95104 185.64062 71.59167Q185.26562 72.21667 185.26562 73.51354L185.26562 75.24792Q185.26562 76.62292 185.65625 77.29479Q186.0625 77.95104 186.875 77.95104Q187.67188 77.95104 188.0625 77.32604Q188.45312 76.70104 188.46875 75.37292L188.46875 73.59167ZM196.5625 75.07604Q196.5625 76.98229 195.90625 77.91979Q195.26562 78.84167 193.875 78.84167Q192.51562 78.84167 191.85938 77.93542Q191.20312 77.02917 191.17188 75.21667L191.17188 73.77917Q191.17188 71.88854 191.8125 70.98229Q192.46875 70.06042 193.85938 70.06042Q195.23438 70.06042 195.89062 70.95104Q196.54688 71.82604 196.5625 73.66979L196.5625 75.07604ZM195.46875 73.59167Q195.46875 72.21667 195.07812 71.59167Q194.70312 70.95104 193.85938 70.95104Q193.03125 70.95104 192.64062 71.59167Q192.26562 72.21667 192.26562 73.51354L192.26562 75.24792Q192.26562 76.62292 192.65625 77.29479Q193.0625 77.95104 193.875 77.95104Q194.67188 77.95104 195.0625 77.32604Q195.45312 76.70104 195.46875 75.37292L195.46875 73.59167ZM203.5625 75.07604Q203.5625 76.98229 202.90625 77.91979Q202.26562 78.84167 200.875 78.84167Q199.51562 78.84167 198.85938 77.93542Q198.20312 77.02917 198.17188 75.21667L198.17188 73.77917Q198.17188 71.88854 198.8125 70.98229Q199.46875 70.06042 200.85938 70.06042Q202.23438 70.06042 202.89062 70.95104Q203.54688 71.82604 203.5625 73.66979L203.5625 75.07604ZM202.46875 73.59167Q202.46875 72.21667 202.07812 71.59167Q201.70312 70.95104 200.85938 70.95104Q200.03125 70.95104 199.64062 71.59167Q199.26562 72.21667 199.26562 73.51354L199.26562 75.24792Q199.26562 76.62292 199.65625 77.29479Q200.0625 77.95104 200.875 77.95104Q201.67188 77.95104 202.0625 77.32604Q202.45312 76.70104 202.46875 75.37292L202.46875 73.59167ZM210.5625 75.07604Q210.5625 76.98229 209.90625 77.91979Q209.26562 78.84167 207.875 78.84167Q206.51562 78.84167 205.85938 77.93542Q205.20312 77.02917 205.17188 75.21667L205.17188 73.77917Q205.17188 71.88854 205.8125 70.98229Q206.46875 70.06042 207.85938 70.06042Q209.23438 70.06042 209.89062 70.95104Q210.54688 71.82604 210.5625 73.66979L210.5625 75.07604ZM209.46875 73.59167Q209.46875 72.21667 209.07812 71.59167Q208.70312 70.95104 207.85938 70.95104Q207.03125 70.95104 206.64062 71.59167Q206.26562 72.21667 206.26562 73.51354L206.26562 75.24792Q206.26562 76.62292 206.65625 77.29479Q207.0625 77.95104 207.875 77.95104Q208.67188 77.95104 209.0625 77.32604Q209.45312 76.70104 209.46875 75.37292L209.46875 73.59167ZM217.5625 75.07604Q217.5625 76.98229 216.90625 77.91979Q216.26562 78.84167 214.875 78.84167Q213.51562 78.84167 212.85938 77.93542Q212.20312 77.02917 212.17188 75.21667L212.17188 73.77917Q212.17188 71.88854 212.8125 70.98229Q213.46875 70.06042 214.85938 70.06042Q216.23438 70.06042 216.89062 70.95104Q217.54688 71.82604 217.5625 73.66979L217.5625 75.07604ZM216.46875 73.59167Q216.46875 72.21667 216.07812 71.59167Q215.70312 70.95104 214.85938 70.95104Q214.03125 70.95104 213.64062 71.59167Q213.26562 72.21667 213.26562 73.51354L213.26562 75.24792Q213.26562 76.62292 213.65625 77.29479Q214.0625 77.95104 214.875 77.95104Q215.67188 77.95104 216.0625 77.32604Q216.45312 76.70104 216.46875 75.37292L216.46875 73.59167ZM224.5625 75.07604Q224.5625 76.98229 223.90625 77.91979Q223.26562 78.84167 221.875 78.84167Q220.51562 78.84167 219.85938 77.93542Q219.20312 77.02917 219.17188 75.21667L219.17188 73.77917Q219.17188 71.88854 219.8125 70.98229Q220.46875 70.06042 221.85938 70.06042Q223.23438 70.06042 223.89062 70.95104Q224.54688 71.82604 224.5625 73.66979L224.5625 75.07604ZM223.46875 73.59167Q223.46875 72.21667 223.07812 71.59167Q222.70312 70.95104 221.85938 70.95104Q221.03125 70.95104 220.64062 71.59167Q220.26562 72.21667 220.26562 73.51354L220.26562 75.24792Q220.26562 76.62292 220.65625 77.29479Q221.0625 77.95104 221.875 77.95104Q222.67188 77.95104 223.0625 77.32604Q223.45312 76.70104 223.46875 75.37292L223.46875 73.59167Z" fill-rule="nonzero"/><path fill="#ffffff" d="M182.79688 78.71667L177.20312 78.71667L177.20312 77.93542L180.15625 74.65417Q180.8125 73.90417 181.0625 73.45104Q181.3125 72.98229 181.3125 72.48229Q181.3125 71.81042 180.90625 71.38854Q180.51562 70.95104 179.82812 70.95104Q179.03125 70.95104 178.57812 71.41979Q178.125 71.87292 178.125 72.70104L177.04688 72.70104Q177.04688 71.51354 177.79688 70.79479Q178.5625 70.06042 179.82812 70.06042Q181.03125 70.06042 181.71875 70.68542Q182.40625 71.31042 182.40625 72.35729Q182.40625 73.60729 180.79688 75.35729L178.51562 77.82604L182.79688 77.82604L182.79688 78.71667ZM189.5625 75.07604Q189.5625 76.98229 188.90625 77.91979Q188.26562 78.84167 186.875 78.84167Q185.51562 78.84167 184.85938 77.93542Q184.20312 77.02917 184.17188 75.21667L184.17188 73.77917Q184.17188 71.88854 184.8125 70.98229Q185.46875 70.06042 186.85938 70.06042Q188.23438 70.06042 188.89062 70.95104Q189.54688 71.82604 189.5625 73.66979L189.5625 75.07604ZM188.46875 73.59167Q188.46875 72.21667 188.07812 71.59167Q187.70312 70.95104 186.85938 70.95104Q186.03125 70.95104 185.64062 71.59167Q185.26562 72.21667 185.26562 73.51354L185.26562 75.24792Q185.26562 76.62292 185.65625 77.29479Q186.0625 77.95104 186.875 77.95104Q187.67188 77.95104 188.0625 77.32604Q188.45312 76.70104 188.46875 75.37292L188.46875 73.59167ZM196.5625 75.07604Q196.5625 76.98229 195.90625 77.91979Q195.26562 78.84167 193.875 78.84167Q192.51562 78.84167 191.85938 77.93542Q191.20312 77.02917 191.17188 75.21667L191.17188 73.77917Q191.17188 71.88854 191.8125 70.98229Q192.46875 70.06042 193.85938 70.06042Q195.23438 70.06042 195.89062 70.95104Q196.54688 71.82604 196.5625 73.66979L196.5625 75.07604ZM195.46875 73.59167Q195.46875 72.21667 195.07812 71.59167Q194.70312 70.95104 193.85938 70.95104Q193.03125 70.95104 192.64062 71.59167Q192.26562 72.21667 192.26562 73.51354L192.26562 75.24792Q192.26562 76.62292 192.65625 77.29479Q193.0625 77.95104 193.875 77.95104Q194.67188 77.95104 195.0625 77.32604Q195.45312 76.70104 195.46875 75.37292L195.46875 73.59167ZM203.5625 75.07604Q203.5625 76.98229 202.90625 77.91979Q202.26562 78.84167 200.875 78.84167Q199.51562 78.84167 198.85938 77.93542Q198.20312 77.02917 198.17188 75.21667L198.17188 73.77917Q198.17188 71.88854 198.8125 70.98229Q199.46875 70.06042 200.85938 70.06042Q202.23438 70.06042 202.89062 70.95104Q203.54688 71.82604 203.5625 73.66979L203.5625 75.07604ZM202.46875 73.59167Q202.46875 72.21667 202.07812 71.59167Q201.70312 70.95104 200.85938 70.95104Q200.03125 70.95104 199.64062 71.59167Q199.26562 72.21667 199.26562 73.51354L199.26562 75.24792Q199.26562 76.62292 199.65625 77.29479Q200.0625 77.95104 200.875 77.95104Q201.67188 77.95104 202.0625 77.32604Q202.45312 76.70104 202.46875 75.37292L202.46875 73.59167ZM210.5625 75.07604Q210.5625 76.98229 209.90625 77.91979Q209.26562 78.84167 207.875 78.84167Q206.51562 78.84167 205.85938 77.93542Q205.20312 77.02917 205.17188 75.21667L205.17188 73.77917Q205.17188 71.88854 205.8125 70.98229Q206.46875 70.06042 207.85938 70.06042Q209.23438 70.06042 209.89062 70.95104Q210.54688 71.82604 210.5625 73.66979L210.5625 75.07604ZM209.46875 73.59167Q209.46875 72.21667 209.07812 71.59167Q208.70312 70.95104 207.85938 70.95104Q207.03125 70.95104 206.64062 71.59167Q206.26562 72.21667 206.26562 73.51354L206.26562 75.24792Q206.26562 76.62292 206.65625 77.29479Q207.0625 77.95104 207.875 77.95104Q208.67188 77.95104 209.0625 77.32604Q209.45312 76.70104 209.46875 75.37292L209.46875 73.59167ZM217.5625 75.07604Q217.5625 76.98229 216.90625 77.91979Q216.26562 78.84167 214.875 78.84167Q213.51562 78.84167 212.85938 77.93542Q212.20312 77.02917 212.17188 75.21667L212.17188 73.77917Q212.17188 71.88854 212.8125 70.98229Q213.46875 70.06042 214.85938 70.06042Q216.23438 70.06042 216.89062 70.95104Q217.54688 71.82604 217.5625 73.66979L217.5625 75.07604ZM216.46875 73.59167Q216.46875 72.21667 216.07812 71.59167Q215.70312 70.95104 214.85938 70.95104Q214.03125 70.95104 213.64062 71.59167Q213.26562 72.21667 213.26562 73.51354L213.26562 75.24792Q213.26562 76.62292 213.65625 77.29479Q214.0625 77.95104 214.875 77.95104Q215.67188 77.95104 216.0625 77.32604Q216.45312 76.70104 216.46875 75.37292L216.46875 73.59167ZM224.5625 75.07604Q224.5625 76.98229 223.90625 77.91979Q223.26562 78.84167 221.875 78.84167Q220.51562 78.84167 219.85938 77.93542Q219.20312 77.02917 219.17188 75.21667L219.17188 73.77917Q219.17188 71.88854 219.8125 70.98229Q220.46875 70.06042 221.85938 70.06042Q223.23438 70.06042 223.89062 70.95104Q224.54688 71.82604 224.5625 73.66979L224.5625 75.07604ZM223.46875 73.59167Q223.46875 72.21667 223.07812 71.59167Q222.70312 70.95104 221.85938 70.95104Q221.03125 70.95104 220.64062 71.59167Q220.26562 72.21667 220.26562 73.51354L220.26562 75.24792Q220.26562 76.62292 220.65625 77.29479Q221.0625 77.95104 221.875 77.95104Q222.67188 77.95104 223.0625 77.32604Q223.45312 76.70104 223.46875 75.37292L223.46875 73.59167Z" fill-rule="nonzero"/><path stroke="#4285f4" stroke-width="3.0" stroke-linejoin="round" stroke-linecap="round" d="M327.26562 326.12866L326.1875 326.12866L326.1875 318.9099L324.0 319.7068L324.0 318.7224L327.10938 317.55054L327.26562 317.55054L327.26562 326.12866ZM334.96875 317.5974L334.96875 318.50366L334.76562 318.50366Q333.5 318.5349 332.75 319.2693Q332.0 319.98804 331.875 321.30054Q332.5625 320.5349 333.71875 320.5349Q334.82812 320.5349 335.5 321.31616Q336.17188 322.0974 336.17188 323.3474Q336.17188 324.6599 335.45312 325.4568Q334.73438 326.25366 333.51562 326.25366Q332.29688 326.25366 331.53125 325.31616Q330.78125 324.36304 330.78125 322.87866L330.78125 322.4724Q330.78125 320.11304 331.78125 318.86304Q332.78125 317.61304 334.76562 317.5974L334.96875 317.5974ZM333.54688 321.44116Q332.98438 321.44116 332.51562 321.7693Q332.04688 322.0974 331.85938 322.61304L331.85938 323.00366Q331.85938 324.06616 332.32812 324.7068Q332.8125 325.3474 333.51562 325.3474Q334.25 325.3474 334.67188 324.81616Q335.09375 324.2693 335.09375 323.3943Q335.09375 322.5193 334.67188 321.98804Q334.25 321.44116 333.54688 321.44116ZM343.0625 322.48804Q343.0625 324.3943 342.40625 325.3318Q341.76562 326.25366 340.375 326.25366Q339.01562 326.25366 338.35938 325.3474Q337.70312 324.44116 337.67188 322.62866L337.67188 321.19116Q337.67188 319.30054 338.3125 318.3943Q338.96875 317.4724 340.35938 317.4724Q341.73438 317.4724 342.39062 318.36304Q343.04688 319.23804 343.0625 321.0818L343.0625 322.48804ZM341.96875 321.00366Q341.96875 319.62866 341.57812 319.00366Q341.20312 318.36304 340.35938 318.36304Q339.53125 318.36304 339.14062 319.00366Q338.76562 319.62866 338.76562 320.92554L338.76562 322.6599Q338.76562 324.0349 339.15625 324.7068Q339.5625 325.36304 340.375 325.36304Q341.17188 325.36304 341.5625 324.73804Q341.95312 324.11304 341.96875 322.7849L341.96875 321.00366ZM350.0625 322.48804Q350.0625 324.3943 349.40625 325.3318Q348.76562 326.25366 347.375 326.25366Q346.01562 326.25366 345.35938 325.3474Q344.70312 324.44116 344.67188 322.62866L344.67188 321.19116Q344.67188 319.30054 345.3125 318.3943Q345.96875 317.4724 347.35938 317.4724Q348.73438 317.4724 349.39062 318.36304Q350.04688 319.23804 350.0625 321.0818L350.0625 322.48804ZM348.96875 321.00366Q348.96875 319.62866 348.57812 319.00366Q348.20312 318.36304 347.35938 318.36304Q346.53125 318.36304 346.14062 319.00366Q345.76562 319.62866 345.76562 320.92554L345.76562 322.6599Q345.76562 324.0349 346.15625 324.7068Q346.5625 325.36304 347.375 325.36304Q348.17188 325.36304 348.5625 324.73804Q348.95312 324.11304 348.96875 322.7849L348.96875 321.00366ZM357.0625 322.48804Q357.0625 324.3943 356.40625 325.3318Q355.76562 326.25366 354.375 326.25366Q353.01562 326.25366 352.35938 325.3474Q351.70312 324.44116 351.67188 322.62866L351.67188 321.19116Q351.67188 319.30054 352.3125 318.3943Q352.96875 317.4724 354.35938 317.4724Q355.73438 317.4724 356.39062 318.36304Q357.04688 319.23804 357.0625 321.0818L357.0625 322.48804ZM355.96875 321.00366Q355.96875 319.62866 355.57812 319.00366Q355.20312 318.36304 354.35938 318.36304Q353.53125 318.36304 353.14062 319.00366Q352.76562 319.62866 352.76562 320.92554L352.76562 322.6599Q352.76562 324.0349 353.15625 324.7068Q353.5625 325.36304 354.375 325.36304Q355.17188 325.36304 355.5625 324.73804Q355.95312 324.11304 355.96875 322.7849L355.96875 321.00366ZM364.0625 322.48804Q364.0625 324.3943 363.40625 325.3318Q362.76562 326.25366 361.375 326.25366Q360.01562 326.25366 359.35938 325.3474Q358.70312 324.44116 358.67188 322.62866L358.67188 321.19116Q358.67188 319.30054 359.3125 318.3943Q359.96875 317.4724 361.35938 317.4724Q362.73438 317.4724 363.39062 318.36304Q364.04688 319.23804 364.0625 321.0818L364.0625 322.48804ZM362.96875 321.00366Q362.96875 319.62866 362.57812 319.00366Q362.20312 318.36304 361.35938 318.36304Q360.53125 318.36304 360.14062 319.00366Q359.76562 319.62866 359.76562 320.92554L359.76562 322.6599Q359.76562 324.0349 360.15625 324.7068Q360.5625 325.36304 361.375 325.36304Q362.17188 325.36304 362.5625 324.73804Q362.95312 324.11304 362.96875 322.7849L362.96875 321.00366Z" fill-rule="nonzero"/><path fill="#ffffff" d="M327.26562 326.12866L326.1875 326.12866L326.1875 318.9099L324.0 319.7068L324.0 318.7224L327.10938 317.55054L327.26562 317.55054L327.26562 326.12866ZM334.96875 317.5974L334.96875 318.50366L334.76562 318.50366Q333.5 318.5349 332.75 319.2693Q332.0 319.98804 331.875 321.30054Q332.5625 320.5349 333.71875 320.5349Q334.82812 320.5349 335.5 321.31616Q336.17188 322.0974 336.17188 323.3474Q336.17188 324.6599 335.45312 325.4568Q334.73438 326.25366 333.51562 326.25366Q332.29688 326.25366 331.53125 325.31616Q330.78125 324.36304 330.78125 322.87866L330.78125 322.4724Q330.78125 320.11304 331.78125 318.86304Q332.78125 317.61304 334.76562 317.5974L334.96875 317.5974ZM333.54688 321.44116Q332.98438 321.44116 332.51562 321.7693Q332.04688 322.0974 331.85938 322.61304L331.85938 323.00366Q331.85938 324.06616 332.32812 324.7068Q332.8125 325.3474 333.51562 325.3474Q334.25 325.3474 334.67188 324.81616Q335.09375 324.2693 335.09375 323.3943Q335.09375 322.5193 334.67188 321.98804Q334.25 321.44116 333.54688 321.44116ZM343.0625 322.48804Q343.0625 324.3943 342.40625 325.3318Q341.76562 326.25366 340.375 326.25366Q339.01562 326.25366 338.35938 325.3474Q337.70312 324.44116 337.67188 322.62866L337.67188 321.19116Q337.67188 319.30054 338.3125 318.3943Q338.96875 317.4724 340.35938 317.4724Q341.73438 317.4724 342.39062 318.36304Q343.04688 319.23804 343.0625 321.0818L343.0625 322.48804ZM341.96875 321.00366Q341.96875 319.62866 341.57812 319.00366Q341.20312 318.36304 340.35938 318.36304Q339.53125 318.36304 339.14062 319.00366Q338.76562 319.62866 338.76562 320.92554L338.76562 322.6599Q338.76562 324.0349 339.15625 324.7068Q339.5625 325.36304 340.375 325.36304Q341.17188 325.36304 341.5625 324.73804Q341.95312 324.11304 341.96875 322.7849L341.96875 321.00366ZM350.0625 322.48804Q350.0625 324.3943 349.40625 325.3318Q348.76562 326.25366 347.375 326.25366Q346.01562 326.25366 345.35938 325.3474Q344.70312 324.44116 344.67188 322.62866L344.67188 321.19116Q344.67188 319.30054 345.3125 318.3943Q345.96875 317.4724 347.35938 317.4724Q348.73438 317.4724 349.39062 318.36304Q350.04688 319.23804 350.0625 321.0818L350.0625 322.48804ZM348.96875 321.00366Q348.96875 319.62866 348.57812 319.00366Q348.20312 318.36304 347.35938 318.36304Q346.53125 318.36304 346.14062 319.00366Q345.76562 319.62866 345.76562 320.92554L345.76562 322.6599Q345.76562 324.0349 346.15625 324.7068Q346.5625 325.36304 347.375 325.36304Q348.17188 325.36304 348.5625 324.73804Q348.95312 324.11304 348.96875 322.7849L348.96875 321.00366ZM357.0625 322.48804Q357.0625 324.3943 356.40625 325.3318Q355.76562 326.25366 354.375 326.25366Q353.01562 326.25366 352.35938 325.3474Q351.70312 324.44116 351.67188 322.62866L351.67188 321.19116Q351.67188 319.30054 352.3125 318.3943Q352.96875 317.4724 354.35938 317.4724Q355.73438 317.4724 356.39062 318.36304Q357.04688 319.23804 357.0625 321.0818L357.0625 322.48804ZM355.96875 321.00366Q355.96875 319.62866 355.57812 319.00366Q355.20312 318.36304 354.35938 318.36304Q353.53125 318.36304 353.14062 319.00366Q352.76562 319.62866 352.76562 320.92554L352.76562 322.6599Q352.76562 324.0349 353.15625 324.7068Q353.5625 325.36304 354.375 325.36304Q355.17188 325.36304 355.5625 324.73804Q355.95312 324.11304 355.96875 322.7849L355.96875 321.00366ZM364.0625 322.48804Q364.0625 324.3943 363.40625 325.3318Q362.76562 326.25366 361.375 326.25366Q360.01562 326.25366 359.35938 325.3474Q358.70312 324.44116 358.67188 322.62866L358.67188 321.19116Q358.67188 319.30054 359.3125 318.3943Q359.96875 317.4724 361.35938 317.4724Q362.73438 317.4724 363.39062 318.36304Q364.04688 319.23804 364.0625 321.0818L364.0625 322.48804ZM362.96875 321.00366Q362.96875 319.62866 362.57812 319.00366Q362.20312 318.36304 361.35938 318.36304Q360.53125 318.36304 360.14062 319.00366Q359.76562 319.62866 359.76562 320.92554L359.76562 322.6599Q359.76562 324.0349 360.15625 324.7068Q360.5625 325.36304 361.375 325.36304Q362.17188 325.36304 362.5625 324.73804Q362.95312 324.11304 362.96875 322.7849L362.96875 321.00366Z" fill-rule="nonzero"/><path stroke="#ffffff" stroke-width="3.0" stroke-linejoin="round" stroke-linecap="round" d="M472.76562 315.69153L471.6875 315.69153L471.6875 308.47278L469.5 309.26965L469.5 308.28528L472.60938 307.1134L472.76562 307.1134L472.76562 315.69153ZM477.78125 310.89465L478.59375 310.89465Q479.375 310.87903 479.8125 310.4884Q480.25 310.09778 480.25 309.4259Q480.25 307.9259 478.75 307.9259Q478.04688 307.9259 477.625 308.33215Q477.21875 308.7384 477.21875 309.39465L476.125 309.39465Q476.125 308.37903 476.85938 307.70715Q477.60938 307.03528 478.75 307.03528Q479.95312 307.03528 480.64062 307.6759Q481.32812 308.31653 481.32812 309.45715Q481.32812 310.01965 480.96875 310.53528Q480.60938 311.0509 479.98438 311.31653Q480.6875 311.53528 481.0625 312.0509Q481.45312 312.56653 481.45312 313.31653Q481.45312 314.45715 480.70312 315.14465Q479.95312 315.81653 478.75 315.81653Q477.5625 315.81653 476.79688 315.16028Q476.04688 314.50403 476.04688 313.44153L477.14062 313.44153Q477.14062 314.1134 477.57812 314.51965Q478.01562 314.9259 478.76562 314.9259Q479.54688 314.9259 479.95312 314.51965Q480.375 314.09778 480.375 313.33215Q480.375 312.59778 479.92188 312.20715Q479.46875 311.8009 478.59375 311.78528L477.78125 311.78528L477.78125 310.89465ZM488.5625 312.0509Q488.5625 313.95715 487.90625 314.89465Q487.26562 315.81653 485.875 315.81653Q484.51562 315.81653 483.85938 314.91028Q483.20312 314.00403 483.17188 312.19153L483.17188 310.75403Q483.17188 308.8634 483.8125 307.95715Q484.46875 307.03528 485.85938 307.03528Q487.23438 307.03528 487.89062 307.9259Q488.54688 308.8009 488.5625 310.64465L488.5625 312.0509ZM487.46875 310.56653Q487.46875 309.19153 487.07812 308.56653Q486.70312 307.9259 485.85938 307.9259Q485.03125 307.9259 484.64062 308.56653Q484.26562 309.19153 484.26562 310.4884L484.26562 312.22278Q484.26562 313.59778 484.65625 314.26965Q485.0625 314.9259 485.875 314.9259Q486.67188 314.9259 487.0625 314.3009Q487.45312 313.6759 487.46875 312.34778L487.46875 310.56653ZM495.5625 312.0509Q495.5625 313.95715 494.90625 314.89465Q494.26562 315.81653 492.875 315.81653Q491.51562 315.81653 490.85938 314.91028Q490.20312 314.00403 490.17188 312.19153L490.17188 310.75403Q490.17188 308.8634 490.8125 307.95715Q491.46875 307.03528 492.85938 307.03528Q494.23438 307.03528 494.89062 307.9259Q495.54688 308.8009 495.5625 310.64465L495.5625 312.0509ZM494.46875 310.56653Q494.46875 309.19153 494.07812 308.56653Q493.70312 307.9259 492.85938 307.9259Q492.03125 307.9259 491.64062 308.56653Q491.26562 309.19153 491.26562 310.4884L491.26562 312.22278Q491.26562 313.59778 491.65625 314.26965Q492.0625 314.9259 492.875 314.9259Q493.67188 314.9259 494.0625 314.3009Q494.45312 313.6759 494.46875 312.34778L494.46875 310.56653ZM502.5625 312.0509Q502.5625 313.95715 501.90625 314.89465Q501.26562 315.81653 499.875 315.81653Q498.51562 315.81653 497.85938 314.91028Q497.20312 314.00403 497.17188 312.19153L497.17188 310.75403Q497.17188 308.8634 497.8125 307.95715Q498.46875 307.03528 499.85938 307.03528Q501.23438 307.03528 501.89062 307.9259Q502.54688 308.8009 502.5625 310.64465L502.5625 312.0509ZM501.46875 310.56653Q501.46875 309.19153 501.07812 308.56653Q500.70312 307.9259 499.85938 307.9259Q499.03125 307.9259 498.64062 308.56653Q498.26562 309.19153 498.26562 310.4884L498.26562 312.22278Q498.26562 313.59778 498.65625 314.26965Q499.0625 314.9259 499.875 314.9259Q500.67188 314.9259 501.0625 314.3009Q501.45312 313.6759 501.46875 312.34778L501.46875 310.56653Z" fill-rule="nonzero"/><path fill="#4285f4" d="M472.76562 315.69153L471.6875 315.69153L471.6875 308.47278L469.5 309.26965L469.5 308.28528L472.60938 307.1134L472.76562 307.1134L472.76562 315.69153ZM477.78125 310.89465L478.59375 310.89465Q479.375 310.87903 479.8125 310.4884Q480.25 310.09778 480.25 309.4259Q480.25 307.9259 478.75 307.9259Q478.04688 307.9259 477.625 308.33215Q477.21875 308.7384 477.21875 309.39465L476.125 309.39465Q476.125 308.37903 476.85938 307.70715Q477.60938 307.03528 478.75 307.03528Q479.95312 307.03528 480.64062 307.6759Q481.32812 308.31653 481.32812 309.45715Q481.32812 310.01965 480.96875 310.53528Q480.60938 311.0509 479.98438 311.31653Q480.6875 311.53528 481.0625 312.0509Q481.45312 312.56653 481.45312 313.31653Q481.45312 314.45715 480.70312 315.14465Q479.95312 315.81653 478.75 315.81653Q477.5625 315.81653 476.79688 315.16028Q476.04688 314.50403 476.04688 313.44153L477.14062 313.44153Q477.14062 314.1134 477.57812 314.51965Q478.01562 314.9259 478.76562 314.9259Q479.54688 314.9259 479.95312 314.51965Q480.375 314.09778 480.375 313.33215Q480.375 312.59778 479.92188 312.20715Q479.46875 311.8009 478.59375 311.78528L477.78125 311.78528L477.78125 310.89465ZM488.5625 312.0509Q488.5625 313.95715 487.90625 314.89465Q487.26562 315.81653 485.875 315.81653Q484.51562 315.81653 483.85938 314.91028Q483.20312 314.00403 483.17188 312.19153L483.17188 310.75403Q483.17188 308.8634 483.8125 307.95715Q484.46875 307.03528 485.85938 307.03528Q487.23438 307.03528 487.89062 307.9259Q488.54688 308.8009 488.5625 310.64465L488.5625 312.0509ZM487.46875 310.56653Q487.46875 309.19153 487.07812 308.56653Q486.70312 307.9259 485.85938 307.9259Q485.03125 307.9259 484.64062 308.56653Q484.26562 309.19153 484.26562 310.4884L484.26562 312.22278Q484.26562 313.59778 484.65625 314.26965Q485.0625 314.9259 485.875 314.9259Q486.67188 314.9259 487.0625 314.3009Q487.45312 313.6759 487.46875 312.34778L487.46875 310.56653ZM495.5625 312.0509Q495.5625 313.95715 494.90625 314.89465Q494.26562 315.81653 492.875 315.81653Q491.51562 315.81653 490.85938 314.91028Q490.20312 314.00403 490.17188 312.19153L490.17188 310.75403Q490.17188 308.8634 490.8125 307.95715Q491.46875 307.03528 492.85938 307.03528Q494.23438 307.03528 494.89062 307.9259Q495.54688 308.8009 495.5625 310.64465L495.5625 312.0509ZM494.46875 310.56653Q494.46875 309.19153 494.07812 308.56653Q493.70312 307.9259 492.85938 307.9259Q492.03125 307.9259 491.64062 308.56653Q491.26562 309.19153 491.26562 310.4884L491.26562 312.22278Q491.26562 313.59778 491.65625 314.26965Q492.0625 314.9259 492.875 314.9259Q493.67188 314.9259 494.0625 314.3009Q494.45312 313.6759 494.46875 312.34778L494.46875 310.56653ZM502.5625 312.0509Q502.5625 313.95715 501.90625 314.89465Q501.26562 315.81653 499.875 315.81653Q498.51562 315.81653 497.85938 314.91028Q497.20312 314.00403 497.17188 312.19153L497.17188 310.75403Q497.17188 308.8634 497.8125 307.95715Q498.46875 307.03528 499.85938 307.03528Q501.23438 307.03528 501.89062 307.9259Q502.54688 308.8009 502.5625 310.64465L502.5625 312.0509ZM501.46875 310.56653Q501.46875 309.19153 501.07812 308.56653Q500.70312 307.9259 499.85938 307.9259Q499.03125 307.9259 498.64062 308.56653Q498.26562 309.19153 498.26562 310.4884L498.26562 312.22278Q498.26562 313.59778 498.65625 314.26965Q499.0625 314.9259 499.875 314.9259Q500.67188 314.9259 501.0625 314.3009Q501.45312 313.6759 501.46875 312.34778L501.46875 310.56653Z" fill-rule="nonzero"/><path fill="#000000" d="M20.956263 213.12083L20.956263 211.98021L25.925013 211.98021Q27.221888 211.98021 27.987513 212.27708Q28.737513 212.57396 29.221888 213.33958Q29.690638 214.10521 29.690638 215.33958Q29.690638 216.54271 29.284388 217.32396Q28.862513 218.08958 28.081263 218.41771Q27.284388 218.74583 25.925013 218.74583L20.956263 218.74583L20.956263 217.60521L25.909388 217.60521Q27.034388 217.60521 27.565638 217.40208Q28.096888 217.18333 28.393763 216.68333Q28.675013 216.16771 28.675013 215.43333Q28.675013 214.18333 28.112513 213.65208Q27.534388 213.12083 25.909388 213.12083L20.956263 213.12083ZM27.690638 210.30833L27.534388 209.27708Q28.159388 209.18333 28.487513 208.79271Q28.815638 208.38646 28.815638 207.65208Q28.815638 206.93333 28.534388 206.58958Q28.237513 206.23021 27.831263 206.23021Q27.471888 206.23021 27.268763 206.54271Q27.128138 206.76146 26.909388 207.62083Q26.612513 208.77708 26.409388 209.23021Q26.190638 209.66771 25.815638 209.90208Q25.440638 210.13646 24.971888 210.13646Q24.565638 210.13646 24.206263 209.94896Q23.846888 209.76146 23.612513 209.43333Q23.440638 209.18333 23.315638 208.76146Q23.190638 208.33958 23.190638 207.83958Q23.190638 207.12083 23.409388 206.57396Q23.612513 206.01146 23.971888 205.74583Q24.331263 205.48021 24.925013 205.38646L25.065638 206.41771Q24.596888 206.48021 24.331263 206.82396Q24.050013 207.15208 24.050013 207.77708Q24.050013 208.49583 24.300013 208.80833Q24.534388 209.12083 24.862513 209.12083Q25.065638 209.12083 25.221888 208.99583Q25.393763 208.85521 25.503138 208.58958Q25.565638 208.43333 25.768763 207.65208Q26.081263 206.52708 26.268763 206.08958Q26.456263 205.65208 26.815638 205.40208Q27.175013 205.15208 27.721888 205.15208Q28.253138 205.15208 28.721888 205.46458Q29.175013 205.76146 29.440638 206.33958Q29.690638 206.91771 29.690638 207.65208Q29.690638 208.87083 29.190638 209.51146Q28.675013 210.13646 27.690638 210.30833ZM27.550013 199.63646L27.675013 198.54271Q28.628138 198.79271 29.159388 199.49583Q29.690638 200.19896 29.690638 201.27708Q29.690638 202.63646 28.846888 203.44896Q28.003138 204.24583 26.487513 204.24583Q24.925013 204.24583 24.065638 203.43333Q23.190638 202.62083 23.190638 201.33958Q23.190638 200.08958 24.034388 199.30833Q24.878138 198.51146 26.425013 198.51146Q26.518763 198.51146 26.706263 198.51146L26.706263 203.15208Q27.737513 203.08958 28.284388 202.57396Q28.815638 202.05833 28.815638 201.27708Q28.815638 200.69896 28.518763 200.29271Q28.206263 199.87083 27.550013 199.63646ZM25.846888 203.08958L25.846888 199.62083Q25.050013 199.68333 24.659388 200.01146Q24.050013 200.52708 24.050013 201.32396Q24.050013 202.05833 24.534388 202.55833Q25.018763 203.04271 25.846888 203.08958ZM29.550013 196.90208L23.331263 196.90208L23.331263 195.94896L24.268763 195.94896Q23.612513 195.58958 23.409388 195.29271Q23.190638 194.98021 23.190638 194.60521Q23.190638 194.07396 23.518763 193.52708L24.503138 193.88646Q24.268763 194.27708 24.268763 194.65208Q24.268763 195.01146 24.487513 195.29271Q24.690638 195.55833 25.065638 195.66771Q25.628138 195.85521 26.284388 195.85521L29.550013 195.85521L29.550013 196.90208ZM27.690638 193.30833L27.534388 192.27708Q28.159388 192.18333 28.487513 191.79271Q28.815638 191.38646 28.815638 190.65208Q28.815638 189.93333 28.534388 189.58958Q28.237513 189.23021 27.831263 189.23021Q27.471888 189.23021 27.268763 189.54271Q27.128138 189.76146 26.909388 190.62083Q26.612513 191.77708 26.409388 192.23021Q26.190638 192.66771 25.815638 192.90208Q25.440638 193.13646 24.971888 193.13646Q24.565638 193.13646 24.206263 192.94896Q23.846888 192.76146 23.612513 192.43333Q23.440638 192.18333 23.315638 191.76146Q23.190638 191.33958 23.190638 190.83958Q23.190638 190.12083 23.409388 189.57396Q23.612513 189.01146 23.971888 188.74583Q24.331263 188.48021 24.925013 188.38646L25.065638 189.41771Q24.596888 189.48021 24.331263 189.82396Q24.050013 190.15208 24.050013 190.77708Q24.050013 191.49583 24.300013 191.80833Q24.534388 192.12083 24.862513 192.12083Q25.065638 192.12083 25.221888 191.99583Q25.393763 191.85521 25.503138 191.58958Q25.565638 191.43333 25.768763 190.65208Q26.081263 189.52708 26.268763 189.08958Q26.456263 188.65208 26.815638 188.40208Q27.175013 188.15208 27.721888 188.15208Q28.253138 188.15208 28.721888 188.46458Q29.175013 188.76146 29.440638 189.33958Q29.690638 189.91771 29.690638 190.65208Q29.690638 191.87083 29.190638 192.51146Q28.675013 193.13646 27.690638 193.30833Z" fill-rule="nonzero"/><path fill="#000000" d="M93.05 332.21564Q93.05 330.6844 93.3625 329.7625Q93.675 328.825 94.28438 328.325Q94.90938 327.825 95.84688 327.825Q96.53438 327.825 97.05 328.10626Q97.58125 328.3875 97.925 328.91876Q98.26875 329.4344 98.45625 330.1844Q98.64375 330.9344 98.64375 332.21564Q98.64375 333.73126 98.33125 334.65314Q98.03438 335.575 97.40938 336.09064Q96.8 336.59064 95.84688 336.59064Q94.6125 336.59064 93.89375 335.7Q93.05 334.6375 93.05 332.21564ZM94.12813 332.21564Q94.12813 334.325 94.62813 335.02814Q95.12813 335.73126 95.84688 335.73126Q96.58125 335.73126 97.06563 335.02814Q97.56563 334.325 97.56563 332.21564Q97.56563 330.09064 97.06563 329.40314Q96.58125 328.7 95.83125 328.7Q95.1125 328.7 94.675 329.3094Q94.12813 330.09064 94.12813 332.21564Z" fill-rule="nonzero"/><path fill="#000000" d="M58.05 266.56668L59.159374 266.47293Q59.284374 267.28543 59.721874 267.69168Q60.175 268.09793 60.815624 268.09793Q61.565624 268.09793 62.096874 267.5198Q62.628124 266.94168 62.628124 266.00418Q62.628124 265.09793 62.1125 264.5823Q61.6125 264.05106 60.784374 264.05106Q60.284374 264.05106 59.8625 264.28543Q59.45625 264.5198 59.221874 264.87918L58.2375 264.75418L59.065624 260.34793L63.346874 260.34793L63.346874 261.34793L59.909374 261.34793L59.45625 263.66043Q60.221874 263.11356 61.065624 263.11356Q62.190624 263.11356 62.95625 263.8948Q63.7375 264.67606 63.7375 265.91043Q63.7375 267.06668 63.065624 267.92606Q62.2375 268.9573 60.815624 268.9573Q59.64375 268.9573 58.89375 268.30106Q58.159374 267.6448 58.05 266.56668ZM65.05 264.5823Q65.05 263.05106 65.3625 262.12918Q65.675 261.19168 66.28438 260.69168Q66.90938 260.19168 67.84688 260.19168Q68.53438 260.19168 69.05 260.47293Q69.58125 260.75418 69.925 261.28543Q70.26875 261.80106 70.45625 262.55106Q70.64375 263.30106 70.64375 264.5823Q70.64375 266.09793 70.33125 267.0198Q70.03438 267.94168 69.40938 268.4573Q68.8 268.9573 67.84688 268.9573Q66.6125 268.9573 65.89375 268.06668Q65.05 267.00418 65.05 264.5823ZM66.12813 264.5823Q66.12813 266.69168 66.62813 267.3948Q67.12813 268.09793 67.84688 268.09793Q68.58125 268.09793 69.06563 267.3948Q69.56563 266.69168 69.56563 264.5823Q69.56563 262.4573 69.06563 261.7698Q68.58125 261.06668 67.83125 261.06668Q67.1125 261.06668 66.675 261.67606Q66.12813 262.4573 66.12813 264.5823ZM72.05 264.5823Q72.05 263.05106 72.3625 262.12918Q72.675 261.19168 73.28438 260.69168Q73.90938 260.19168 74.84688 260.19168Q75.53438 260.19168 76.05 260.47293Q76.58125 260.75418 76.925 261.28543Q77.26875 261.80106 77.45625 262.55106Q77.64375 263.30106 77.64375 264.5823Q77.64375 266.09793 77.33125 267.0198Q77.03438 267.94168 76.40938 268.4573Q75.8 268.9573 74.84688 268.9573Q73.6125 268.9573 72.89375 268.06668Q72.05 267.00418 72.05 264.5823ZM73.12813 264.5823Q73.12813 266.69168 73.62813 267.3948Q74.12813 268.09793 74.84688 268.09793Q75.58125 268.09793 76.06563 267.3948Q76.56563 266.69168 76.56563 264.5823Q76.56563 262.4573 76.06563 261.7698Q75.58125 261.06668 74.83125 261.06668Q74.1125 261.06668 73.675 261.67606Q73.12813 262.4573 73.12813 264.5823ZM79.05 264.5823Q79.05 263.05106 79.3625 262.12918Q79.675 261.19168 80.28438 260.69168Q80.90938 260.19168 81.84688 260.19168Q82.53438 260.19168 83.05 260.47293Q83.58125 260.75418 83.925 261.28543Q84.26875 261.80106 84.45625 262.55106Q84.64375 263.30106 84.64375 264.5823Q84.64375 266.09793 84.33125 267.0198Q84.03438 267.94168 83.40938 268.4573Q82.8 268.9573 81.84688 268.9573Q80.6125 268.9573 79.89375 268.06668Q79.05 267.00418 79.05 264.5823ZM80.12813 264.5823Q80.12813 266.69168 80.62813 267.3948Q81.12813 268.09793 81.84688 268.09793Q82.58125 268.09793 83.06563 267.3948Q83.56563 266.69168 83.56563 264.5823Q83.56563 262.4573 83.06563 261.7698Q82.58125 261.06668 81.83125 261.06668Q81.1125 261.06668 80.675 261.67606Q80.12813 262.4573 80.12813 264.5823ZM86.05 264.5823Q86.05 263.05106 86.3625 262.12918Q86.675 261.19168 87.28438 260.69168Q87.90938 260.19168 88.84688 260.19168Q89.53438 260.19168 90.05 260.47293Q90.58125 260.75418 90.925 261.28543Q91.26875 261.80106 91.45625 262.55106Q91.64375 263.30106 91.64375 264.5823Q91.64375 266.09793 91.33125 267.0198Q91.03438 267.94168 90.40938 268.4573Q89.8 268.9573 88.84688 268.9573Q87.6125 268.9573 86.89375 268.06668Q86.05 267.00418 86.05 264.5823ZM87.12813 264.5823Q87.12813 266.69168 87.62813 267.3948Q88.12813 268.09793 88.84688 268.09793Q89.58125 268.09793 90.06563 267.3948Q90.56563 266.69168 90.56563 264.5823Q90.56563 262.4573 90.06563 261.7698Q89.58125 261.06668 88.83125 261.06668Q88.1125 261.06668 87.675 261.67606Q87.12813 262.4573 87.12813 264.5823ZM93.05 264.5823Q93.05 263.05106 93.3625 262.12918Q93.675 261.19168 94.28438 260.69168Q94.90938 260.19168 95.84688 260.19168Q96.53438 260.19168 97.05 260.47293Q97.58125 260.75418 97.925 261.28543Q98.26875 261.80106 98.45625 262.55106Q98.64375 263.30106 98.64375 264.5823Q98.64375 266.09793 98.33125 267.0198Q98.03438 267.94168 97.40938 268.4573Q96.8 268.9573 95.84688 268.9573Q94.6125 268.9573 93.89375 268.06668Q93.05 267.00418 93.05 264.5823ZM94.12813 264.5823Q94.12813 266.69168 94.62813 267.3948Q95.12813 268.09793 95.84688 268.09793Q96.58125 268.09793 97.06563 267.3948Q97.56563 266.69168 97.56563 264.5823Q97.56563 262.4573 97.06563 261.7698Q96.58125 261.06668 95.83125 261.06668Q95.1125 261.06668 94.675 261.67606Q94.12813 262.4573 94.12813 264.5823Z" fill-rule="nonzero"/><path fill="#000000" d="M55.01875 201.18333L53.971874 201.18333L53.971874 194.46458Q53.58125 194.82396 52.95625 195.19896Q52.346874 195.55833 51.8625 195.73021L51.8625 194.71458Q52.7375 194.29271 53.39375 193.71458Q54.065624 193.12083 54.346874 192.55833L55.01875 192.55833L55.01875 201.18333ZM58.05 196.94896Q58.05 195.41771 58.3625 194.49583Q58.675 193.55833 59.284374 193.05833Q59.909374 192.55833 60.846874 192.55833Q61.534374 192.55833 62.05 192.83958Q62.58125 193.12083 62.925 193.65208Q63.26875 194.16771 63.45625 194.91771Q63.64375 195.66771 63.64375 196.94896Q63.64375 198.46458 63.33125 199.38646Q63.034374 200.30833 62.409374 200.82396Q61.8 201.32396 60.846874 201.32396Q59.6125 201.32396 58.89375 200.43333Q58.05 199.37083 58.05 196.94896ZM59.128124 196.94896Q59.128124 199.05833 59.628124 199.76146Q60.128124 200.46458 60.846874 200.46458Q61.58125 200.46458 62.065624 199.76146Q62.565624 199.05833 62.565624 196.94896Q62.565624 194.82396 62.065624 194.13646Q61.58125 193.43333 60.83125 193.43333Q60.1125 193.43333 59.675 194.04271Q59.128124 194.82396 59.128124 196.94896ZM65.05 196.94896Q65.05 195.41771 65.3625 194.49583Q65.675 193.55833 66.28438 193.05833Q66.90938 192.55833 67.84688 192.55833Q68.53438 192.55833 69.05 192.83958Q69.58125 193.12083 69.925 193.65208Q70.26875 194.16771 70.45625 194.91771Q70.64375 195.66771 70.64375 196.94896Q70.64375 198.46458 70.33125 199.38646Q70.03438 200.30833 69.40938 200.82396Q68.8 201.32396 67.84688 201.32396Q66.6125 201.32396 65.89375 200.43333Q65.05 199.37083 65.05 196.94896ZM66.12813 196.94896Q66.12813 199.05833 66.62813 199.76146Q67.12813 200.46458 67.84688 200.46458Q68.58125 200.46458 69.06563 199.76146Q69.56563 199.05833 69.56563 196.94896Q69.56563 194.82396 69.06563 194.13646Q68.58125 193.43333 67.83125 193.43333Q67.1125 193.43333 66.675 194.04271Q66.12813 194.82396 66.12813 196.94896ZM72.05 196.94896Q72.05 195.41771 72.3625 194.49583Q72.675 193.55833 73.28438 193.05833Q73.90938 192.55833 74.84688 192.55833Q75.53438 192.55833 76.05 192.83958Q76.58125 193.12083 76.925 193.65208Q77.26875 194.16771 77.45625 194.91771Q77.64375 195.66771 77.64375 196.94896Q77.64375 198.46458 77.33125 199.38646Q77.03438 200.30833 76.40938 200.82396Q75.8 201.32396 74.84688 201.32396Q73.6125 201.32396 72.89375 200.43333Q72.05 199.37083 72.05 196.94896ZM73.12813 196.94896Q73.12813 199.05833 73.62813 199.76146Q74.12813 200.46458 74.84688 200.46458Q75.58125 200.46458 76.06563 199.76146Q76.56563 199.05833 76.56563 196.94896Q76.56563 194.82396 76.06563 194.13646Q75.58125 193.43333 74.83125 193.43333Q74.1125 193.43333 73.675 194.04271Q73.12813 194.82396 73.12813 196.94896ZM79.05 196.94896Q79.05 195.41771 79.3625 194.49583Q79.675 193.55833 80.28438 193.05833Q80.90938 192.55833 81.84688 192.55833Q82.53438 192.55833 83.05 192.83958Q83.58125 193.12083 83.925 193.65208Q84.26875 194.16771 84.45625 194.91771Q84.64375 195.66771 84.64375 196.94896Q84.64375 198.46458 84.33125 199.38646Q84.03438 200.30833 83.40938 200.82396Q82.8 201.32396 81.84688 201.32396Q80.6125 201.32396 79.89375 200.43333Q79.05 199.37083 79.05 196.94896ZM80.12813 196.94896Q80.12813 199.05833 80.62813 199.76146Q81.12813 200.46458 81.84688 200.46458Q82.58125 200.46458 83.06563 199.76146Q83.56563 199.05833 83.56563 196.94896Q83.56563 194.82396 83.06563 194.13646Q82.58125 193.43333 81.83125 193.43333Q81.1125 193.43333 80.675 194.04271Q80.12813 194.82396 80.12813 196.94896ZM86.05 196.94896Q86.05 195.41771 86.3625 194.49583Q86.675 193.55833 87.28438 193.05833Q87.90938 192.55833 88.84688 192.55833Q89.53438 192.55833 90.05 192.83958Q90.58125 193.12083 90.925 193.65208Q91.26875 194.16771 91.45625 194.91771Q91.64375 195.66771 91.64375 196.94896Q91.64375 198.46458 91.33125 199.38646Q91.03438 200.30833 90.40938 200.82396Q89.8 201.32396 88.84688 201.32396Q87.6125 201.32396 86.89375 200.43333Q86.05 199.37083 86.05 196.94896ZM87.12813 196.94896Q87.12813 199.05833 87.62813 199.76146Q88.12813 200.46458 88.84688 200.46458Q89.58125 200.46458 90.06563 199.76146Q90.56563 199.05833 90.56563 196.94896Q90.56563 194.82396 90.06563 194.13646Q89.58125 193.43333 88.83125 193.43333Q88.1125 193.43333 87.675 194.04271Q87.12813 194.82396 87.12813 196.94896ZM93.05 196.94896Q93.05 195.41771 93.3625 194.49583Q93.675 193.55833 94.28438 193.05833Q94.90938 192.55833 95.84688 192.55833Q96.53438 192.55833 97.05 192.83958Q97.58125 193.12083 97.925 193.65208Q98.26875 194.16771 98.45625 194.91771Q98.64375 195.66771 98.64375 196.94896Q98.64375 198.46458 98.33125 199.38646Q98.03438 200.30833 97.40938 200.82396Q96.8 201.32396 95.84688 201.32396Q94.6125 201.32396 93.89375 200.43333Q93.05 199.37083 93.05 196.94896ZM94.12813 196.94896Q94.12813 199.05833 94.62813 199.76146Q95.12813 200.46458 95.84688 200.46458Q96.58125 200.46458 97.06563 199.76146Q97.56563 199.05833 97.56563 196.94896Q97.56563 194.82396 97.06563 194.13646Q96.58125 193.43333 95.83125 193.43333Q95.1125 193.43333 94.675 194.04271Q94.12813 194.82396 94.12813 196.94896Z" fill-rule="nonzero"/><path fill="#000000" d="M55.01875 133.55L53.971874 133.55L53.971874 126.83125Q53.58125 127.19063 52.95625 127.56563Q52.346874 127.925 51.8625 128.09688L51.8625 127.08125Q52.7375 126.65938 53.39375 126.08125Q54.065624 125.4875 54.346874 124.925L55.01875 124.925L55.01875 133.55ZM58.05 131.3L59.159374 131.20625Q59.284374 132.01875 59.721874 132.425Q60.175 132.83125 60.815624 132.83125Q61.565624 132.83125 62.096874 132.25313Q62.628124 131.675 62.628124 130.7375Q62.628124 129.83125 62.1125 129.31563Q61.6125 128.78438 60.784374 128.78438Q60.284374 128.78438 59.8625 129.01875Q59.45625 129.25313 59.221874 129.6125L58.2375 129.4875L59.065624 125.08125L63.346874 125.08125L63.346874 126.08125L59.909374 126.08125L59.45625 128.39375Q60.221874 127.84688 61.065624 127.84688Q62.190624 127.84688 62.95625 128.62813Q63.7375 129.40938 63.7375 130.64375Q63.7375 131.8 63.065624 132.65938Q62.2375 133.69063 60.815624 133.69063Q59.64375 133.69063 58.89375 133.03438Q58.159374 132.37813 58.05 131.3ZM65.05 129.31563Q65.05 127.78438 65.3625 126.8625Q65.675 125.925 66.28438 125.425Q66.90938 124.925 67.84688 124.925Q68.53438 124.925 69.05 125.20625Q69.58125 125.4875 69.925 126.01875Q70.26875 126.53438 70.45625 127.28438Q70.64375 128.03438 70.64375 129.31563Q70.64375 130.83125 70.33125 131.75313Q70.03438 132.675 69.40938 133.19063Q68.8 133.69063 67.84688 133.69063Q66.6125 133.69063 65.89375 132.8Q65.05 131.7375 65.05 129.31563ZM66.12813 129.31563Q66.12813 131.425 66.62813 132.12813Q67.12813 132.83125 67.84688 132.83125Q68.58125 132.83125 69.06563 132.12813Q69.56563 131.425 69.56563 129.31563Q69.56563 127.19063 69.06563 126.50313Q68.58125 125.8 67.83125 125.8Q67.1125 125.8 66.675 126.40938Q66.12813 127.19063 66.12813 129.31563ZM72.05 129.31563Q72.05 127.78438 72.3625 126.8625Q72.675 125.925 73.28438 125.425Q73.90938 124.925 74.84688 124.925Q75.53438 124.925 76.05 125.20625Q76.58125 125.4875 76.925 126.01875Q77.26875 126.53438 77.45625 127.28438Q77.64375 128.03438 77.64375 129.31563Q77.64375 130.83125 77.33125 131.75313Q77.03438 132.675 76.40938 133.19063Q75.8 133.69063 74.84688 133.69063Q73.6125 133.69063 72.89375 132.8Q72.05 131.7375 72.05 129.31563ZM73.12813 129.31563Q73.12813 131.425 73.62813 132.12813Q74.12813 132.83125 74.84688 132.83125Q75.58125 132.83125 76.06563 132.12813Q76.56563 131.425 76.56563 129.31563Q76.56563 127.19063 76.06563 126.50313Q75.58125 125.8 74.83125 125.8Q74.1125 125.8 73.675 126.40938Q73.12813 127.19063 73.12813 129.31563ZM79.05 129.31563Q79.05 127.78438 79.3625 126.8625Q79.675 125.925 80.28438 125.425Q80.90938 124.925 81.84688 124.925Q82.53438 124.925 83.05 125.20625Q83.58125 125.4875 83.925 126.01875Q84.26875 126.53438 84.45625 127.28438Q84.64375 128.03438 84.64375 129.31563Q84.64375 130.83125 84.33125 131.75313Q84.03438 132.675 83.40938 133.19063Q82.8 133.69063 81.84688 133.69063Q80.6125 133.69063 79.89375 132.8Q79.05 131.7375 79.05 129.31563ZM80.12813 129.31563Q80.12813 131.425 80.62813 132.12813Q81.12813 132.83125 81.84688 132.83125Q82.58125 132.83125 83.06563 132.12813Q83.56563 131.425 83.56563 129.31563Q83.56563 127.19063 83.06563 126.50313Q82.58125 125.8 81.83125 125.8Q81.1125 125.8 80.675 126.40938Q80.12813 127.19063 80.12813 129.31563ZM86.05 129.31563Q86.05 127.78438 86.3625 126.8625Q86.675 125.925 87.28438 125.425Q87.90938 124.925 88.84688 124.925Q89.53438 124.925 90.05 125.20625Q90.58125 125.4875 90.925 126.01875Q91.26875 126.53438 91.45625 127.28438Q91.64375 128.03438 91.64375 129.31563Q91.64375 130.83125 91.33125 131.75313Q91.03438 132.675 90.40938 133.19063Q89.8 133.69063 88.84688 133.69063Q87.6125 133.69063 86.89375 132.8Q86.05 131.7375 86.05 129.31563ZM87.12813 129.31563Q87.12813 131.425 87.62813 132.12813Q88.12813 132.83125 88.84688 132.83125Q89.58125 132.83125 90.06563 132.12813Q90.56563 131.425 90.56563 129.31563Q90.56563 127.19063 90.06563 126.50313Q89.58125 125.8 88.83125 125.8Q88.1125 125.8 87.675 126.40938Q87.12813 127.19063 87.12813 129.31563ZM93.05 129.31563Q93.05 127.78438 93.3625 126.8625Q93.675 125.925 94.28438 125.425Q94.90938 124.925 95.84688 124.925Q96.53438 124.925 97.05 125.20625Q97.58125 125.4875 97.925 126.01875Q98.26875 126.53438 98.45625 127.28438Q98.64375 128.03438 98.64375 129.31563Q98.64375 130.83125 98.33125 131.75313Q98.03438 132.675 97.40938 133.19063Q96.8 133.69063 95.84688 133.69063Q94.6125 133.69063 93.89375 132.8Q93.05 131.7375 93.05 129.31563ZM94.12813 129.31563Q94.12813 131.425 94.62813 132.12813Q95.12813 132.83125 95.84688 132.83125Q96.58125 132.83125 97.06563 132.12813Q97.56563 131.425 97.56563 129.31563Q97.56563 127.19063 97.06563 126.50313Q96.58125 125.8 95.83125 125.8Q95.1125 125.8 94.675 126.40938Q94.12813 127.19063 94.12813 129.31563Z" fill-rule="nonzero"/><path fill="#000000" d="M56.596874 64.90104L56.596874 65.916664L50.909374 65.916664Q50.909374 65.541664 51.034374 65.18229Q51.253124 64.604164 51.721874 64.041664Q52.20625 63.479164 53.1125 62.74479Q54.51875 61.58854 55.003124 60.916664Q55.503124 60.24479 55.503124 59.65104Q55.503124 59.02604 55.05 58.604164Q54.596874 58.166664 53.878124 58.166664Q53.1125 58.166664 52.659374 58.61979Q52.20625 59.072914 52.190624 59.885414L51.1125 59.77604Q51.221874 58.55729 51.940624 57.93229Q52.675 57.291664 53.909374 57.291664Q55.14375 57.291664 55.8625 57.979164Q56.58125 58.666664 56.58125 59.68229Q56.58125 60.197914 56.3625 60.697914Q56.159374 61.18229 55.659374 61.74479Q55.175 62.291664 54.05 63.24479Q53.096874 64.041664 52.815624 64.33854Q52.55 64.61979 52.378124 64.90104L56.596874 64.90104ZM58.05 61.68229Q58.05 60.15104 58.3625 59.229164Q58.675 58.291664 59.284374 57.791664Q59.909374 57.291664 60.846874 57.291664Q61.534374 57.291664 62.05 57.572914Q62.58125 57.854164 62.925 58.385414Q63.26875 58.90104 63.45625 59.65104Q63.64375 60.40104 63.64375 61.68229Q63.64375 63.197914 63.33125 64.11979Q63.034374 65.041664 62.409374 65.55729Q61.8 66.05729 60.846874 66.05729Q59.6125 66.05729 58.89375 65.166664Q58.05 64.104164 58.05 61.68229ZM59.128124 61.68229Q59.128124 63.791664 59.628124 64.49479Q60.128124 65.197914 60.846874 65.197914Q61.58125 65.197914 62.065624 64.49479Q62.565624 63.791664 62.565624 61.68229Q62.565624 59.55729 62.065624 58.86979Q61.58125 58.166664 60.83125 58.166664Q60.1125 58.166664 59.675 58.77604Q59.128124 59.55729 59.128124 61.68229ZM65.05 61.68229Q65.05 60.15104 65.3625 59.229164Q65.675 58.291664 66.28438 57.791664Q66.90938 57.291664 67.84688 57.291664Q68.53438 57.291664 69.05 57.572914Q69.58125 57.854164 69.925 58.385414Q70.26875 58.90104 70.45625 59.65104Q70.64375 60.40104 70.64375 61.68229Q70.64375 63.197914 70.33125 64.11979Q70.03438 65.041664 69.40938 65.55729Q68.8 66.05729 67.84688 66.05729Q66.6125 66.05729 65.89375 65.166664Q65.05 64.104164 65.05 61.68229ZM66.12813 61.68229Q66.12813 63.791664 66.62813 64.49479Q67.12813 65.197914 67.84688 65.197914Q68.58125 65.197914 69.06563 64.49479Q69.56563 63.791664 69.56563 61.68229Q69.56563 59.55729 69.06563 58.86979Q68.58125 58.166664 67.83125 58.166664Q67.1125 58.166664 66.675 58.77604Q66.12813 59.55729 66.12813 61.68229ZM72.05 61.68229Q72.05 60.15104 72.3625 59.229164Q72.675 58.291664 73.28438 57.791664Q73.90938 57.291664 74.84688 57.291664Q75.53438 57.291664 76.05 57.572914Q76.58125 57.854164 76.925 58.385414Q77.26875 58.90104 77.45625 59.65104Q77.64375 60.40104 77.64375 61.68229Q77.64375 63.197914 77.33125 64.11979Q77.03438 65.041664 76.40938 65.55729Q75.8 66.05729 74.84688 66.05729Q73.6125 66.05729 72.89375 65.166664Q72.05 64.104164 72.05 61.68229ZM73.12813 61.68229Q73.12813 63.791664 73.62813 64.49479Q74.12813 65.197914 74.84688 65.197914Q75.58125 65.197914 76.06563 64.49479Q76.56563 63.791664 76.56563 61.68229Q76.56563 59.55729 76.06563 58.86979Q75.58125 58.166664 74.83125 58.166664Q74.1125 58.166664 73.675 58.77604Q73.12813 59.55729 73.12813 61.68229ZM79.05 61.68229Q79.05 60.15104 79.3625 59.229164Q79.675 58.291664 80.28438 57.791664Q80.90938 57.291664 81.84688 57.291664Q82.53438 57.291664 83.05 57.572914Q83.58125 57.854164 83.925 58.385414Q84.26875 58.90104 84.45625 59.65104Q84.64375 60.40104 84.64375 61.68229Q84.64375 63.197914 84.33125 64.11979Q84.03438 65.041664 83.40938 65.55729Q82.8 66.05729 81.84688 66.05729Q80.6125 66.05729 79.89375 65.166664Q79.05 64.104164 79.05 61.68229ZM80.12813 61.68229Q80.12813 63.791664 80.62813 64.49479Q81.12813 65.197914 81.84688 65.197914Q82.58125 65.197914 83.06563 64.49479Q83.56563 63.791664 83.56563 61.68229Q83.56563 59.55729 83.06563 58.86979Q82.58125 58.166664 81.83125 58.166664Q81.1125 58.166664 80.675 58.77604Q80.12813 59.55729 80.12813 61.68229ZM86.05 61.68229Q86.05 60.15104 86.3625 59.229164Q86.675 58.291664 87.28438 57.791664Q87.90938 57.291664 88.84688 57.291664Q89.53438 57.291664 90.05 57.572914Q90.58125 57.854164 90.925 58.385414Q91.26875 58.90104 91.45625 59.65104Q91.64375 60.40104 91.64375 61.68229Q91.64375 63.197914 91.33125 64.11979Q91.03438 65.041664 90.40938 65.55729Q89.8 66.05729 88.84688 66.05729Q87.6125 66.05729 86.89375 65.166664Q86.05 64.104164 86.05 61.68229ZM87.12813 61.68229Q87.12813 63.791664 87.62813 64.49479Q88.12813 65.197914 88.84688 65.197914Q89.58125 65.197914 90.06563 64.49479Q90.56563 63.791664 90.56563 61.68229Q90.56563 59.55729 90.06563 58.86979Q89.58125 58.166664 88.83125 58.166664Q88.1125 58.166664 87.675 58.77604Q87.12813 59.55729 87.12813 61.68229ZM93.05 61.68229Q93.05 60.15104 93.3625 59.229164Q93.675 58.291664 94.28438 57.791664Q94.90938 57.291664 95.84688 57.291664Q96.53438 57.291664 97.05 57.572914Q97.58125 57.854164 97.925 58.385414Q98.26875 58.90104 98.45625 59.65104Q98.64375 60.40104 98.64375 61.68229Q98.64375 63.197914 98.33125 64.11979Q98.03438 65.041664 97.40938 65.55729Q96.8 66.05729 95.84688 66.05729Q94.6125 66.05729 93.89375 65.166664Q93.05 64.104164 93.05 61.68229ZM94.12813 61.68229Q94.12813 63.791664 94.62813 64.49479Q95.12813 65.197914 95.84688 65.197914Q96.58125 65.197914 97.06563 64.49479Q97.56563 63.791664 97.56563 61.68229Q97.56563 59.55729 97.06563 58.86979Q96.58125 58.166664 95.83125 58.166664Q95.1125 58.166664 94.675 58.77604Q94.12813 59.55729 94.12813 61.68229Z" fill-rule="nonzero"/><path fill="#000000" d="M187.86217 349.45L185.58092 340.85626L186.75279 340.85626L188.06529 346.4969Q188.26842 347.3719 188.42467 348.2469Q188.75279 346.8719 188.81529 346.65314L190.44029 340.85626L191.81529 340.85626L193.04967 345.2Q193.50279 346.825 193.72154 348.2469Q193.87779 347.4344 194.14342 346.3719L195.48717 340.85626L196.62779 340.85626L194.28404 349.45L193.17467 349.45L191.37779 342.90314Q191.14342 342.09064 191.09654 341.90314Q190.97154 342.48126 190.84654 342.90314L189.03404 349.45L187.86217 349.45ZM196.84654 346.34064Q196.84654 344.60626 197.79967 343.77814Q198.59654 343.09064 199.75279 343.09064Q201.03404 343.09064 201.84654 343.9344Q202.67467 344.7625 202.67467 346.2469Q202.67467 347.45 202.31529 348.1375Q201.95592 348.825 201.25279 349.21564Q200.56529 349.59064 199.75279 349.59064Q198.45592 349.59064 197.64342 348.7625Q196.84654 347.91876 196.84654 346.34064ZM197.92467 346.34064Q197.92467 347.52814 198.44029 348.1219Q198.97154 348.71564 199.75279 348.71564Q200.54967 348.71564 201.06529 348.1219Q201.58092 347.52814 201.58092 346.3094Q201.58092 345.15314 201.04967 344.5594Q200.53404 343.96564 199.75279 343.96564Q198.97154 343.96564 198.44029 344.5594Q197.92467 345.1375 197.92467 346.34064ZM204.22154 349.45L204.22154 343.23126L205.17467 343.23126L205.17467 344.16876Q205.53404 343.5125 205.83092 343.3094Q206.14342 343.09064 206.51842 343.09064Q207.04967 343.09064 207.59654 343.41876L207.23717 344.40314Q206.84654 344.16876 206.47154 344.16876Q206.11217 344.16876 205.83092 344.3875Q205.56529 344.59064 205.45592 344.96564Q205.26842 345.52814 205.26842 346.1844L205.26842 349.45L204.22154 349.45ZM208.20592 349.45L208.20592 340.85626L209.26842 340.85626L209.26842 349.45L208.20592 349.45ZM215.26842 349.45L215.26842 348.66876Q214.67467 349.59064 213.53404 349.59064Q212.78404 349.59064 212.15904 349.1844Q211.53404 348.7625 211.19029 348.02814Q210.84654 347.29376 210.84654 346.34064Q210.84654 345.41876 211.15904 344.65314Q211.47154 343.8875 212.09654 343.4969Q212.72154 343.09064 213.48717 343.09064Q214.04967 343.09064 214.48717 343.325Q214.92467 343.5594 215.20592 343.9344L215.20592 340.85626L216.25279 340.85626L216.25279 349.45L215.26842 349.45ZM211.94029 346.34064Q211.94029 347.54376 212.44029 348.1375Q212.94029 348.71564 213.62779 348.71564Q214.31529 348.71564 214.79967 348.15314Q215.28404 347.59064 215.28404 346.4344Q215.28404 345.15314 214.78404 344.5594Q214.29967 343.96564 213.58092 343.96564Q212.87779 343.96564 212.40904 344.54376Q211.94029 345.10626 211.94029 346.34064Z" fill-rule="nonzero"/><path fill="#000000" d="M323.45312 346.075L323.45312 345.075L327.07812 345.0594L327.07812 348.2469Q326.25 348.91876 325.35938 349.2625Q324.46875 349.59064 323.53125 349.59064Q322.26562 349.59064 321.21875 349.0594Q320.1875 348.5125 319.65625 347.4969Q319.14062 346.46564 319.14062 345.2Q319.14062 343.9344 319.65625 342.85626Q320.1875 341.7625 321.17188 341.2469Q322.15625 340.71564 323.4375 340.71564Q324.375 340.71564 325.125 341.0125Q325.875 341.3094 326.29688 341.85626Q326.73438 342.3875 326.95312 343.2625L325.9375 343.54376Q325.73438 342.8875 325.4375 342.5125Q325.15625 342.1375 324.625 341.91876Q324.09375 341.6844 323.45312 341.6844Q322.67188 341.6844 322.09375 341.91876Q321.53125 342.15314 321.17188 342.54376Q320.82812 342.9344 320.64062 343.40314Q320.3125 344.2 320.3125 345.1219Q320.3125 346.27814 320.70312 347.0594Q321.10938 347.825 321.85938 348.2Q322.60938 348.575 323.46875 348.575Q324.20312 348.575 324.90625 348.29376Q325.60938 347.9969 325.96875 347.6844L325.96875 346.075L323.45312 346.075ZM332.54688 347.45L333.64062 347.575Q333.39062 348.52814 332.6875 349.0594Q331.98438 349.59064 330.90625 349.59064Q329.54688 349.59064 328.73438 348.7469Q327.9375 347.90314 327.9375 346.3875Q327.9375 344.825 328.75 343.96564Q329.5625 343.09064 330.84375 343.09064Q332.09375 343.09064 332.875 343.9344Q333.67188 344.77814 333.67188 346.325Q333.67188 346.41876 333.67188 346.60626L329.03125 346.60626Q329.09375 347.6375 329.60938 348.1844Q330.125 348.71564 330.90625 348.71564Q331.48438 348.71564 331.89062 348.41876Q332.3125 348.10626 332.54688 347.45ZM329.09375 345.7469L332.5625 345.7469Q332.5 344.95 332.17188 344.5594Q331.65625 343.95 330.85938 343.95Q330.125 343.95 329.625 344.4344Q329.14062 344.91876 329.09375 345.7469ZM335.28125 349.45L335.28125 343.23126L336.23438 343.23126L336.23438 344.16876Q336.59375 343.5125 336.89062 343.3094Q337.20312 343.09064 337.57812 343.09064Q338.10938 343.09064 338.65625 343.41876L338.29688 344.40314Q337.90625 344.16876 337.53125 344.16876Q337.17188 344.16876 336.89062 344.3875Q336.625 344.59064 336.51562 344.96564Q336.32812 345.52814 336.32812 346.1844L336.32812 349.45L335.28125 349.45ZM339.29688 349.45L339.29688 343.23126L340.23438 343.23126L340.23438 344.10626Q340.53125 343.6375 341.01562 343.3719Q341.5 343.09064 342.125 343.09064Q342.8125 343.09064 343.25 343.3719Q343.70312 343.65314 343.875 344.16876Q344.625 343.09064 345.79688 343.09064Q346.73438 343.09064 347.21875 343.60626Q347.71875 344.10626 347.71875 345.1844L347.71875 349.45L346.67188 349.45L346.67188 345.52814Q346.67188 344.90314 346.5625 344.6219Q346.46875 344.34064 346.20312 344.16876Q345.9375 343.9969 345.5625 343.9969Q344.90625 343.9969 344.46875 344.4344Q344.04688 344.8719 344.04688 345.84064L344.04688 349.45L342.98438 349.45L342.98438 345.40314Q342.98438 344.7 342.71875 344.35626Q342.46875 343.9969 341.89062 343.9969Q341.4375 343.9969 341.0625 344.23126Q340.6875 344.46564 340.51562 344.91876Q340.34375 345.3719 340.34375 346.21564L340.34375 349.45L339.29688 349.45ZM353.35938 348.6844Q352.76562 349.1844 352.21875 349.3875Q351.6875 349.59064 351.0625 349.59064Q350.03125 349.59064 349.48438 349.09064Q348.9375 348.59064 348.9375 347.8094Q348.9375 347.35626 349.14062 346.98126Q349.34375 346.59064 349.6875 346.3719Q350.03125 346.1375 350.45312 346.02814Q350.75 345.9344 351.39062 345.85626Q352.65625 345.71564 353.26562 345.4969Q353.26562 345.27814 353.26562 345.23126Q353.26562 344.575 352.96875 344.3094Q352.5625 343.96564 351.76562 343.96564Q351.03125 343.96564 350.67188 344.23126Q350.3125 344.48126 350.14062 345.1375L349.10938 344.9969Q349.25 344.34064 349.57812 343.9344Q349.90625 343.52814 350.51562 343.3094Q351.125 343.09064 351.92188 343.09064Q352.71875 343.09064 353.21875 343.27814Q353.71875 343.46564 353.95312 343.7469Q354.1875 344.02814 354.28125 344.46564Q354.32812 344.73126 354.32812 345.4344L354.32812 346.84064Q354.32812 348.3094 354.39062 348.7Q354.46875 349.09064 354.67188 349.45L353.5625 349.45Q353.40625 349.1219 353.35938 348.6844ZM353.26562 346.325Q352.6875 346.5594 351.54688 346.73126Q350.89062 346.825 350.625 346.95Q350.35938 347.0594 350.20312 347.27814Q350.0625 347.4969 350.0625 347.77814Q350.0625 348.2 350.375 348.48126Q350.70312 348.7625 351.3125 348.7625Q351.92188 348.7625 352.39062 348.4969Q352.875 348.23126 353.09375 347.7625Q353.26562 347.40314 353.26562 346.71564L353.26562 346.325ZM356.29688 349.45L356.29688 343.23126L357.23438 343.23126L357.23438 344.10626Q357.92188 343.09064 359.21875 343.09064Q359.78125 343.09064 360.25 343.29376Q360.73438 343.4969 360.96875 343.825Q361.20312 344.15314 361.29688 344.59064Q361.34375 344.8875 361.34375 345.6219L361.34375 349.45L360.29688 349.45L360.29688 345.66876Q360.29688 345.0125 360.17188 344.7Q360.04688 344.3875 359.73438 344.2Q359.42188 343.9969 359.0 343.9969Q358.32812 343.9969 357.82812 344.4344Q357.34375 344.85626 357.34375 346.04376L357.34375 349.45L356.29688 349.45ZM363.25 351.84064L363.125 350.85626Q363.46875 350.95 363.73438 350.95Q364.07812 350.95 364.28125 350.825Q364.5 350.71564 364.64062 350.5125Q364.73438 350.34064 364.96875 349.71564Q364.98438 349.6375 365.0625 349.46564L362.6875 343.23126L363.82812 343.23126L365.125 346.825Q365.375 347.5125 365.57812 348.27814Q365.76562 347.54376 366.01562 346.85626L367.34375 343.23126L368.39062 343.23126L366.03125 349.5594Q365.64062 350.575 365.4375 350.96564Q365.15625 351.4969 364.78125 351.73126Q364.42188 351.98126 363.92188 351.98126Q363.625 351.98126 363.25 351.84064Z" fill-rule="nonzero"/><path fill="#000000" d="M463.60657 346.6844L464.66907 346.59064Q464.7472 347.2469 465.02844 347.65314Q465.3097 348.0594 465.88782 348.325Q466.48157 348.575 467.21594 348.575Q467.85657 348.575 468.35657 348.3875Q468.85657 348.1844 469.09094 347.85626Q469.34094 347.5125 469.34094 347.1219Q469.34094 346.71564 469.10657 346.41876Q468.8722 346.10626 468.34094 345.90314Q467.98157 345.7625 466.79407 345.48126Q465.6222 345.2 465.15344 344.95Q464.52844 344.6219 464.23157 344.15314Q463.9347 343.66876 463.9347 343.075Q463.9347 342.4344 464.29407 341.8719Q464.66907 341.29376 465.3722 341.0125Q466.09094 340.71564 466.95032 340.71564Q467.90344 340.71564 468.63782 341.02814Q469.3722 341.325 469.76282 341.9344Q470.15344 342.52814 470.1847 343.27814L469.09094 343.35626Q468.9972 342.54376 468.48157 342.1375Q467.98157 341.71564 466.9972 341.71564Q465.96594 341.71564 465.4972 342.09064Q465.02844 342.46564 465.02844 342.9969Q465.02844 343.46564 465.35657 343.7625Q465.6847 344.0594 467.0597 344.3719Q468.45032 344.6844 468.96594 344.91876Q469.71594 345.27814 470.07532 345.8094Q470.4347 346.325 470.4347 347.02814Q470.4347 347.71564 470.04407 348.325Q469.65344 348.91876 468.91907 349.2625Q468.1847 349.59064 467.26282 349.59064Q466.09094 349.59064 465.29407 349.2625Q464.51282 348.91876 464.0597 348.23126Q463.6222 347.54376 463.60657 346.6844ZM472.9972 349.45L471.09094 343.23126L472.1847 343.23126L473.16907 346.825L473.54407 348.15314Q473.57532 348.0594 473.8722 346.8719L474.85657 343.23126L475.9347 343.23126L476.8722 346.84064L477.1847 348.02814L477.54407 346.825L478.60657 343.23126L479.63782 343.23126L477.6847 349.45L476.59094 349.45L475.60657 345.71564L475.35657 344.66876L474.10657 349.45L472.9972 349.45ZM485.10657 347.45L486.20032 347.575Q485.95032 348.52814 485.2472 349.0594Q484.54407 349.59064 483.46594 349.59064Q482.10657 349.59064 481.29407 348.7469Q480.4972 347.90314 480.4972 346.3875Q480.4972 344.825 481.3097 343.96564Q482.1222 343.09064 483.40344 343.09064Q484.65344 343.09064 485.4347 343.9344Q486.23157 344.77814 486.23157 346.325Q486.23157 346.41876 486.23157 346.60626L481.59094 346.60626Q481.65344 347.6375 482.16907 348.1844Q482.6847 348.71564 483.46594 348.71564Q484.04407 348.71564 484.45032 348.41876Q484.8722 348.10626 485.10657 347.45ZM481.65344 345.7469L485.1222 345.7469Q485.0597 344.95 484.73157 344.5594Q484.21594 343.95 483.41907 343.95Q482.6847 343.95 482.1847 344.4344Q481.70032 344.91876 481.65344 345.7469ZM491.88782 349.45L491.88782 348.66876Q491.29407 349.59064 490.15344 349.59064Q489.40344 349.59064 488.77844 349.1844Q488.15344 348.7625 487.8097 348.02814Q487.46594 347.29376 487.46594 346.34064Q487.46594 345.41876 487.77844 344.65314Q488.09094 343.8875 488.71594 343.4969Q489.34094 343.09064 490.10657 343.09064Q490.66907 343.09064 491.10657 343.325Q491.54407 343.5594 491.82532 343.9344L491.82532 340.85626L492.8722 340.85626L492.8722 349.45L491.88782 349.45ZM488.5597 346.34064Q488.5597 347.54376 489.0597 348.1375Q489.5597 348.71564 490.2472 348.71564Q490.9347 348.71564 491.41907 348.15314Q491.90344 347.59064 491.90344 346.4344Q491.90344 345.15314 491.40344 344.5594Q490.91907 343.96564 490.20032 343.96564Q489.4972 343.96564 489.02844 344.54376Q488.5597 345.10626 488.5597 346.34064ZM499.10657 347.45L500.20032 347.575Q499.95032 348.52814 499.2472 349.0594Q498.54407 349.59064 497.46594 349.59064Q496.10657 349.59064 495.29407 348.7469Q494.4972 347.90314 494.4972 346.3875Q494.4972 344.825 495.3097 343.96564Q496.1222 343.09064 497.40344 343.09064Q498.65344 343.09064 499.4347 343.9344Q500.23157 344.77814 500.23157 346.325Q500.23157 346.41876 500.23157 346.60626L495.59094 346.60626Q495.65344 347.6375 496.16907 348.1844Q496.6847 348.71564 497.46594 348.71564Q498.04407 348.71564 498.45032 348.41876Q498.8722 348.10626 499.10657 347.45ZM495.65344 345.7469L499.1222 345.7469Q499.0597 344.95 498.73157 344.5594Q498.21594 343.95 497.41907 343.95Q496.6847 343.95 496.1847 344.4344Q495.70032 344.91876 495.65344 345.7469ZM501.85657 349.45L501.85657 343.23126L502.79407 343.23126L502.79407 344.10626Q503.48157 343.09064 504.77844 343.09064Q505.34094 343.09064 505.8097 343.29376Q506.29407 343.4969 506.52844 343.825Q506.76282 344.15314 506.85657 344.59064Q506.90344 344.8875 506.90344 345.6219L506.90344 349.45L505.85657 349.45L505.85657 345.66876Q505.85657 345.0125 505.73157 344.7Q505.60657 344.3875 505.29407 344.2Q504.98157 343.9969 504.5597 343.9969Q503.88782 343.9969 503.38782 344.4344Q502.90344 344.85626 502.90344 346.04376L502.90344 349.45L501.85657 349.45Z" fill-rule="nonzero"/><path fill="#757575" d="M216.76562 32.534374L218.65625 33.003124Q218.0625 35.346874 216.51562 36.58125Q214.96875 37.8 212.71875 37.8Q210.40625 37.8 208.95312 36.8625Q207.51562 35.909374 206.75 34.128124Q206.0 32.33125 206.0 30.284374Q206.0 28.05 206.84375 26.39375Q207.70312 24.721874 209.28125 23.8625Q210.85938 22.9875 212.75 22.9875Q214.90625 22.9875 216.35938 24.08125Q217.82812 25.175 218.40625 27.159374L216.54688 27.596874Q216.04688 26.034374 215.09375 25.33125Q214.15625 24.6125 212.71875 24.6125Q211.0625 24.6125 209.95312 25.409374Q208.84375 26.190624 208.39062 27.534374Q207.95312 28.8625 207.95312 30.26875Q207.95312 32.096874 208.48438 33.471874Q209.01562 34.83125 210.14062 35.503124Q211.26562 36.175 212.5625 36.175Q214.15625 36.175 215.26562 35.253124Q216.375 34.33125 216.76562 32.534374ZM219.67188 32.3625Q219.67188 29.4875 221.26562 28.096874Q222.60938 26.940624 224.53125 26.940624Q226.67188 26.940624 228.01562 28.346874Q229.375 29.753124 229.375 32.221874Q229.375 34.221874 228.78125 35.378124Q228.1875 36.51875 227.03125 37.159374Q225.89062 37.784374 224.53125 37.784374Q222.34375 37.784374 221.0 36.39375Q219.67188 34.9875 219.67188 32.3625ZM221.46875 32.3625Q221.46875 34.3625 222.32812 35.346874Q223.20312 36.33125 224.53125 36.33125Q225.84375 36.33125 226.70312 35.346874Q227.57812 34.346874 227.57812 32.3Q227.57812 30.378124 226.70312 29.39375Q225.82812 28.39375 224.53125 28.39375Q223.20312 28.39375 222.32812 29.39375Q221.46875 30.378124 221.46875 32.3625ZM231.3125 37.55L231.3125 27.175L232.90625 27.175L232.90625 28.659374Q234.04688 26.940624 236.20312 26.940624Q237.14062 26.940624 237.92188 27.284374Q238.71875 27.6125 239.10938 28.159374Q239.5 28.70625 239.65625 29.45625Q239.75 29.95625 239.75 31.175L239.75 37.55L237.98438 37.55L237.98438 31.2375Q237.98438 30.159374 237.78125 29.628124Q237.57812 29.096874 237.04688 28.784374Q236.53125 28.471874 235.82812 28.471874Q234.70312 28.471874 233.89062 29.190624Q233.07812 29.89375 233.07812 31.878124L233.07812 37.55L231.3125 37.55ZM249.09375 33.753124L250.8125 33.971874Q250.53125 35.76875 249.35938 36.784374Q248.20312 37.784374 246.5 37.784374Q244.375 37.784374 243.07812 36.39375Q241.78125 35.003124 241.78125 32.409374Q241.78125 30.721874 242.32812 29.471874Q242.89062 28.20625 244.03125 27.58125Q245.17188 26.940624 246.51562 26.940624Q248.20312 26.940624 249.26562 27.8Q250.34375 28.659374 250.65625 30.221874L248.9375 30.4875Q248.70312 29.440624 248.07812 28.925Q247.45312 28.39375 246.57812 28.39375Q245.25 28.39375 244.42188 29.346874Q243.59375 30.3 243.59375 32.346874Q243.59375 34.440624 244.39062 35.39375Q245.1875 36.33125 246.48438 36.33125Q247.51562 36.33125 248.20312 35.70625Q248.90625 35.065624 249.09375 33.753124ZM259.10938 37.55L259.10938 36.01875Q257.90625 37.784374 255.82812 37.784374Q254.90625 37.784374 254.10938 37.440624Q253.3125 37.08125 252.92188 36.55Q252.54688 36.01875 252.39062 35.2375Q252.28125 34.721874 252.28125 33.596874L252.28125 27.175L254.03125 27.175L254.03125 32.925Q254.03125 34.3 254.14062 34.784374Q254.3125 35.471874 254.84375 35.878124Q255.39062 36.26875 256.17188 36.26875Q256.96875 36.26875 257.65625 35.8625Q258.35938 35.45625 258.64062 34.76875Q258.9375 34.065624 258.9375 32.7375L258.9375 27.175L260.6875 27.175L260.6875 37.55L259.10938 37.55ZM263.29688 37.55L263.29688 27.175L264.875 27.175L264.875 28.753124Q265.48438 27.64375 266.0 27.3Q266.51562 26.940624 267.125 26.940624Q268.01562 26.940624 268.9375 27.503124L268.32812 29.14375Q267.6875 28.753124 267.04688 28.753124Q266.46875 28.753124 266.0 29.1125Q265.54688 29.45625 265.34375 30.065624Q265.0625 31.003124 265.0625 32.1125L265.0625 37.55L263.29688 37.55ZM270.29688 37.55L270.29688 27.175L271.875 27.175L271.875 28.753124Q272.48438 27.64375 273.0 27.3Q273.51562 26.940624 274.125 26.940624Q275.01562 26.940624 275.9375 27.503124L275.32812 29.14375Q274.6875 28.753124 274.04688 28.753124Q273.46875 28.753124 273.0 29.1125Q272.54688 29.45625 272.34375 30.065624Q272.0625 31.003124 272.0625 32.1125L272.0625 37.55L270.29688 37.55ZM284.42188 34.20625L286.23438 34.440624Q285.8125 36.01875 284.64062 36.909374Q283.48438 37.784374 281.67188 37.784374Q279.40625 37.784374 278.0625 36.39375Q276.73438 34.9875 276.73438 32.45625Q276.73438 29.83125 278.07812 28.39375Q279.42188 26.940624 281.57812 26.940624Q283.65625 26.940624 284.96875 28.3625Q286.29688 29.76875 286.29688 32.346874Q286.29688 32.503124 286.28125 32.815624L278.54688 32.815624Q278.64062 34.51875 279.51562 35.425Q280.39062 36.33125 281.6875 36.33125Q282.65625 36.33125 283.32812 35.83125Q284.01562 35.315624 284.42188 34.20625ZM278.64062 31.3625L284.4375 31.3625Q284.32812 30.065624 283.78125 29.409374Q282.9375 28.39375 281.59375 28.39375Q280.39062 28.39375 279.5625 29.20625Q278.73438 30.003124 278.64062 31.3625ZM288.3125 37.55L288.3125 27.175L289.90625 27.175L289.90625 28.659374Q291.04688 26.940624 293.20312 26.940624Q294.14062 26.940624 294.92188 27.284374Q295.71875 27.6125 296.10938 28.159374Q296.5 28.70625 296.65625 29.45625Q296.75 29.95625 296.75 31.175L296.75 37.55L294.98438 37.55L294.98438 31.2375Q294.98438 30.159374 294.78125 29.628124Q294.57812 29.096874 294.04688 28.784374Q293.53125 28.471874 292.82812 28.471874Q291.70312 28.471874 290.89062 29.190624Q290.07812 29.89375 290.07812 31.878124L290.07812 37.55L288.3125 37.55ZM303.15625 35.971874L303.40625 37.534374Q302.67188 37.690624 302.07812 37.690624Q301.125 37.690624 300.59375 37.39375Q300.07812 37.08125 299.85938 36.596874Q299.64062 36.096874 299.64062 34.51875L299.64062 28.55L298.35938 28.55L298.35938 27.175L299.64062 27.175L299.64062 24.6125L301.39062 23.55L301.39062 27.175L303.15625 27.175L303.15625 28.55L301.39062 28.55L301.39062 34.6125Q301.39062 35.3625 301.48438 35.58125Q301.57812 35.784374 301.78125 35.925Q302.0 36.05 302.39062 36.05Q302.67188 36.05 303.15625 35.971874ZM315.1875 37.55L315.1875 24.925L310.46875 24.925L310.46875 23.2375L321.8125 23.2375L321.8125 24.925L317.07812 24.925L317.07812 37.55L315.1875 37.55ZM322.67188 32.3625Q322.67188 29.4875 324.26562 28.096874Q325.60938 26.940624 327.53125 26.940624Q329.67188 26.940624 331.01562 28.346874Q332.375 29.753124 332.375 32.221874Q332.375 34.221874 331.78125 35.378124Q331.1875 36.51875 330.03125 37.159374Q328.89062 37.784374 327.53125 37.784374Q325.34375 37.784374 324.0 36.39375Q322.67188 34.9875 322.67188 32.3625ZM324.46875 32.3625Q324.46875 34.3625 325.32812 35.346874Q326.20312 36.33125 327.53125 36.33125Q328.84375 36.33125 329.70312 35.346874Q330.57812 34.346874 330.57812 32.3Q330.57812 30.378124 329.70312 29.39375Q328.82812 28.39375 327.53125 28.39375Q326.20312 28.39375 325.32812 29.39375Q324.46875 30.378124 324.46875 32.3625ZM334.29688 37.55L334.29688 27.175L335.875 27.175L335.875 28.753124Q336.48438 27.64375 337.0 27.3Q337.51562 26.940624 338.125 26.940624Q339.01562 26.940624 339.9375 27.503124L339.32812 29.14375Q338.6875 28.753124 338.04688 28.753124Q337.46875 28.753124 337.0 29.1125Q336.54688 29.45625 336.34375 30.065624Q336.0625 31.003124 336.0625 32.1125L336.0625 37.55L334.29688 37.55ZM354.10938 37.55L354.10938 36.01875Q352.90625 37.784374 350.82812 37.784374Q349.90625 37.784374 349.10938 37.440624Q348.3125 37.08125 347.92188 36.55Q347.54688 36.01875 347.39062 35.2375Q347.28125 34.721874 347.28125 33.596874L347.28125 27.175L349.03125 27.175L349.03125 32.925Q349.03125 34.3 349.14062 34.784374Q349.3125 35.471874 349.84375 35.878124Q350.39062 36.26875 351.17188 36.26875Q351.96875 36.26875 352.65625 35.8625Q353.35938 35.45625 353.64062 34.76875Q353.9375 34.065624 353.9375 32.7375L353.9375 27.175L355.6875 27.175L355.6875 37.55L354.10938 37.55ZM357.60938 34.45625L359.35938 34.175Q359.5 35.221874 360.17188 35.784374Q360.84375 36.33125 362.04688 36.33125Q363.25 36.33125 363.82812 35.846874Q364.42188 35.346874 364.42188 34.690624Q364.42188 34.096874 363.90625 33.753124Q363.54688 33.51875 362.10938 33.159374Q360.17188 32.659374 359.42188 32.315624Q358.6875 31.95625 358.29688 31.33125Q357.90625 30.690624 357.90625 29.925Q357.90625 29.2375 358.21875 28.64375Q358.54688 28.05 359.09375 27.659374Q359.5 27.3625 360.20312 27.159374Q360.92188 26.940624 361.73438 26.940624Q362.95312 26.940624 363.875 27.3Q364.79688 27.64375 365.23438 28.253124Q365.67188 28.846874 365.84375 29.846874L364.125 30.08125Q364.0 29.284374 363.4375 28.846874Q362.875 28.39375 361.85938 28.39375Q360.64062 28.39375 360.125 28.8Q359.60938 29.190624 359.60938 29.721874Q359.60938 30.065624 359.82812 30.346874Q360.03125 30.628124 360.5 30.815624Q360.76562 30.909374 362.04688 31.253124Q363.92188 31.753124 364.65625 32.08125Q365.39062 32.39375 365.8125 33.003124Q366.23438 33.596874 366.23438 34.503124Q366.23438 35.378124 365.71875 36.159374Q365.20312 36.940624 364.23438 37.3625Q363.26562 37.784374 362.04688 37.784374Q360.03125 37.784374 358.96875 36.940624Q357.90625 36.096874 357.60938 34.45625ZM375.42188 34.20625L377.23438 34.440624Q376.8125 36.01875 375.64062 36.909374Q374.48438 37.784374 372.67188 37.784374Q370.40625 37.784374 369.0625 36.39375Q367.73438 34.9875 367.73438 32.45625Q367.73438 29.83125 369.07812 28.39375Q370.42188 26.940624 372.57812 26.940624Q374.65625 26.940624 375.96875 28.3625Q377.29688 29.76875 377.29688 32.346874Q377.29688 32.503124 377.28125 32.815624L369.54688 32.815624Q369.64062 34.51875 370.51562 35.425Q371.39062 36.33125 372.6875 36.33125Q373.65625 36.33125 374.32812 35.83125Q375.01562 35.315624 375.42188 34.20625ZM369.64062 31.3625L375.4375 31.3625Q375.32812 30.065624 374.78125 29.409374Q373.9375 28.39375 372.59375 28.39375Q371.39062 28.39375 370.5625 29.20625Q369.73438 30.003124 369.64062 31.3625ZM379.29688 37.55L379.29688 27.175L380.875 27.175L380.875 28.753124Q381.48438 27.64375 382.0 27.3Q382.51562 26.940624 383.125 26.940624Q384.01562 26.940624 384.9375 27.503124L384.32812 29.14375Q383.6875 28.753124 383.04688 28.753124Q382.46875 28.753124 382.0 29.1125Q381.54688 29.45625 381.34375 30.065624Q381.0625 31.003124 381.0625 32.1125L381.0625 37.55L379.29688 37.55ZM385.60938 34.45625L387.35938 34.175Q387.5 35.221874 388.17188 35.784374Q388.84375 36.33125 390.04688 36.33125Q391.25 36.33125 391.82812 35.846874Q392.42188 35.346874 392.42188 34.690624Q392.42188 34.096874 391.90625 33.753124Q391.54688 33.51875 390.10938 33.159374Q388.17188 32.659374 387.42188 32.315624Q386.6875 31.95625 386.29688 31.33125Q385.90625 30.690624 385.90625 29.925Q385.90625 29.2375 386.21875 28.64375Q386.54688 28.05 387.09375 27.659374Q387.5 27.3625 388.20312 27.159374Q388.92188 26.940624 389.73438 26.940624Q390.95312 26.940624 391.875 27.3Q392.79688 27.64375 393.23438 28.253124Q393.67188 28.846874 393.84375 29.846874L392.125 30.08125Q392.0 29.284374 391.4375 28.846874Q390.875 28.39375 389.85938 28.39375Q388.64062 28.39375 388.125 28.8Q387.60938 29.190624 387.60938 29.721874Q387.60938 30.065624 387.82812 30.346874Q388.03125 30.628124 388.5 30.815624Q388.76562 30.909374 390.04688 31.253124Q391.92188 31.753124 392.65625 32.08125Q393.39062 32.39375 393.8125 33.003124Q394.23438 33.596874 394.23438 34.503124Q394.23438 35.378124 393.71875 36.159374Q393.20312 36.940624 392.23438 37.3625Q391.26562 37.784374 390.04688 37.784374Q388.03125 37.784374 386.96875 36.940624Q385.90625 36.096874 385.60938 34.45625Z" fill-rule="nonzero"/></svg>