<svg version="1.1" viewBox="0.0 0.0 600.0 371.0" fill="none" stroke="none" stroke-linecap="square" stroke-miterlimit="10" width="600" height="371" xmlns:xlink="http://www.w3.org/1999/xlink" xmlns="http://www.w3.org/2000/svg"><path fill="#ffffff" d="M0 0L600.0 0L600.0 371.0L0 371.0L0 0Z" fill-rule="nonzero"/><path stroke="#333333" stroke-width="1.0" stroke-linecap="butt" d="M84.5 332.5L581.5 332.5" fill-rule="nonzero"/><path stroke="#cccccc" stroke-width="1.0" stroke-linecap="butt" d="M84.5 271.5L581.5 271.5" fill-rule="nonzero"/><path stroke="#cccccc" stroke-width="1.0" stroke-linecap="butt" d="M84.5 210.5L581.5 210.5" fill-rule="nonzero"/><path stroke="#cccccc" stroke-width="1.0" stroke-linecap="butt" d="M84.5 149.5L581.5 149.5" fill-rule="nonzero"/><path stroke="#cccccc" stroke-width="1.0" stroke-linecap="butt" d="M84.5 88.5L581.5 88.5" fill-rule="nonzero"/><clipPath id="id_0"><path d="M84.55 88.28333L581.45 88.28333L581.45 332.45L84.55 332.45L84.55 88.28333Z" clip-rule="nonzero"/></clipPath><path stroke="#000000" stroke-width="2.0" stroke-linecap="butt" stroke-opacity="0.0" clip-path="url(#id_0)" d="M184.0 332.0L138.0 332.0L138.0 111.0C138.0 109.89543 138.89543 109.0 140.0 109.0L182.0 109.0C183.10457 109.0 184.0 109.89543 184.0 111.0Z" fill-rule="nonzero"/><path fill="#4285f4" clip-path="url(#id_0)" d="M184.0 332.0L138.0 332.0L138.0 111.0C138.0 109.89543 138.89543 109.0 140.0 109.0L182.0 109.0C183.10457 109.0 184.0 109.89543 184.0 111.0Z" fill-rule="nonzero"/><path stroke="#000000" stroke-width="2.0" stroke-linecap="butt" stroke-opacity="0.0" clip-path="url(#id_0)" d="M332.0 332.0L286.0 332.0L286.0 280.0C286.0 278.89542 286.89542 278.0 288.0 278.0L330.0 278.0C331.10458 278.0 332.0 278.89542 332.0 280.0Z" fill-rule="nonzero"/><path fill="#4285f4" clip-path="url(#id_0)" d="M332.0 332.0L286.0 332.0L286.0 280.0C286.0 278.89542 286.89542 278.0 288.0 278.0L330.0 278.0C331.10458 278.0 332.0 278.89542 332.0 280.0Z" fill-rule="nonzero"/><path stroke="#000000" stroke-width="2.0" stroke-linecap="butt" stroke-opacity="0.0" clip-path="url(#id_0)" d="M480.0 332.0L434.0 332.0L434.0 328.0C434.0 326.89542 434.89542 326.0 436.0 326.0L478.0 326.0C479.10458 326.0 480.0 326.89542 480.0 328.0Z" fill-rule="nonzero"/><path fill="#4285f4" clip-path="url(#id_0)" d="M480.0 332.0L434.0 332.0L434.0 328.0C434.0 326.89542 434.89542 326.0 436.0 326.0L478.0 326.0C479.10458 326.0 480.0 326.89542 480.0 328.0Z" fill-rule="nonzero"/><path stroke="#000000" stroke-width="2.0" stroke-linecap="butt" stroke-opacity="0.0" clip-path="url(#id_0)" d="M232.0 332.0L186.0 332.0L186.0 261.0C186.0 259.89542 186.89543 259.0 188.0 259.0L230.0 259.0C231.10457 259.0 232.0 259.89542 232.0 261.0Z" fill-rule="nonzero"/><path fill="#ea4335" clip-path="url(#id_0)" d="M232.0 332.0L186.0 332.0L186.0 261.0C186.0 259.89542 186.89543 259.0 188.0 259.0L230.0 259.0C231.10457 259.0 232.0 259.89542 232.0 261.0Z" fill-rule="nonzero"/><path stroke="#000000" stroke-width="2.0" stroke-linecap="butt" stroke-opacity="0.0" clip-path="url(#id_0)" d="M380.0 332.0L334.0 332.0L334.0 318.0C334.0 316.89542 334.89542 316.0 336.0 316.0L378.0 316.0C379.10458 316.0 380.0 316.89542 380.0 318.0Z" fill-rule="nonzero"/><path fill="#ea4335" clip-path="url(#id_0)" d="M380.0 332.0L334.0 332.0L334.0 318.0C334.0 316.89542 334.89542 316.0 336.0 316.0L378.0 316.0C379.10458 316.0 380.0 316.89542 380.0 318.0Z" fill-rule="nonzero"/><path stroke="#000000" stroke-width="2.0" stroke-linecap="butt" stroke-opacity="0.0" clip-path="url(#id_0)" d="M528.0 332.0L482.0 332.0L482.0 330.5C482.0 329.67157 482.67157 329.0 483.5 329.0L526.5 329.0C527.3284 329.0 528.0 329.67157 528.0 330.5Z" fill-rule="nonzero"/><path fill="#ea4335" clip-path="url(#id_0)" d="M528.0 332.0L482.0 332.0L482.0 330.5C482.0 329.67157 482.67157 329.0 483.5 329.0L526.5 329.0C527.3284 329.0 528.0 329.67157 528.0 330.5Z" fill-rule="nonzero"/><path stroke="#4285f4" stroke-width="3.0" stroke-linejoin="round" stroke-linecap="round" d="M149.28125 121.406876L150.09375 121.406876Q150.875 121.39125 151.3125 121.000626Q151.75 120.61 151.75 119.938126Q151.75 118.438126 150.25 118.438126Q149.54688 118.438126 149.125 118.844376Q148.71875 119.250626 148.71875 119.906876L147.625 119.906876Q147.625 118.89125 148.35938 118.219376Q149.10938 117.5475 150.25 117.5475Q151.45312 117.5475 152.14062 118.188126Q152.82812 118.82875 152.82812 119.969376Q152.82812 120.531876 152.46875 121.0475Q152.10938 121.563126 151.48438 121.82875Q152.1875 122.0475 152.5625 122.563126Q152.95312 123.07875 152.95312 123.82875Q152.95312 124.969376 152.20312 125.656876Q151.45312 126.32875 150.25 126.32875Q149.0625 126.32875 148.29688 125.6725Q147.54688 125.01625 147.54688 123.95375L148.64062 123.95375Q148.64062 124.625626 149.07812 125.031876Q149.51562 125.438126 150.26562 125.438126Q151.04688 125.438126 151.45312 125.031876Q151.875 124.61 151.875 123.844376Q151.875 123.11 151.42188 122.719376Q150.96875 122.313126 150.09375 122.2975L149.28125 122.2975L149.28125 121.406876ZM158.96875 117.6725L158.96875 118.57875L158.76562 118.57875Q157.5 118.61 156.75 119.344376Q156.0 120.063126 155.875 121.375626Q156.5625 120.61 157.71875 120.61Q158.82812 120.61 159.5 121.39125Q160.17188 122.1725 160.17188 123.4225Q160.17188 124.735 159.45312 125.531876Q158.73438 126.32875 157.51562 126.32875Q156.29688 126.32875 155.53125 125.39125Q154.78125 124.438126 154.78125 122.95375L154.78125 122.5475Q154.78125 120.188126 155.78125 118.938126Q156.78125 117.688126 158.76562 117.6725L158.96875 117.6725ZM157.54688 121.51625Q156.98438 121.51625 156.51562 121.844376Q156.04688 122.1725 155.85938 122.688126L155.85938 123.07875Q155.85938 124.14125 156.32812 124.781876Q156.8125 125.4225 157.51562 125.4225Q158.25 125.4225 158.67188 124.89125Q159.09375 124.344376 159.09375 123.469376Q159.09375 122.594376 158.67188 122.063126Q158.25 121.51625 157.54688 121.51625ZM162.20312 121.9225L162.64062 117.6725L167.01562 117.6725L167.01562 118.6725L163.5625 118.6725L163.29688 121.000626Q163.9375 120.625626 164.73438 120.625626Q165.89062 120.625626 166.57812 121.406876Q167.26562 122.1725 167.26562 123.485Q167.26562 124.7975 166.54688 125.563126Q165.84375 126.32875 164.5625 126.32875Q163.4375 126.32875 162.71875 125.70375Q162.0 125.063126 161.90625 123.95375L162.92188 123.95375Q163.03125 124.688126 163.45312 125.063126Q163.875 125.438126 164.5625 125.438126Q165.3125 125.438126 165.75 124.9225Q166.1875 124.406876 166.1875 123.500626Q166.1875 122.64125 165.71875 122.125626Q165.25 121.61 164.46875 121.61Q163.76562 121.61 163.35938 121.906876L163.07812 122.14125L162.20312 121.9225ZM173.28125 123.344376L174.46875 123.344376L174.46875 124.219376L173.28125 124.219376L173.28125 126.20375L172.20312 126.20375L172.20312 124.219376L168.3125 124.219376L168.3125 123.57875L172.125 117.6725L173.28125 117.6725L173.28125 123.344376ZM169.54688 123.344376L172.20312 123.344376L172.20312 119.156876L172.0625 119.39125L169.54688 123.344376Z" fill-rule="nonzero"/><path fill="#ffffff" d="M149.28125 121.406876L150.09375 121.406876Q150.875 121.39125 151.3125 121.000626Q151.75 120.61 151.75 119.938126Q151.75 118.438126 150.25 118.438126Q149.54688 118.438126 149.125 118.844376Q148.71875 119.250626 148.71875 119.906876L147.625 119.906876Q147.625 118.89125 148.35938 118.219376Q149.10938 117.5475 150.25 117.5475Q151.45312 117.5475 152.14062 118.188126Q152.82812 118.82875 152.82812 119.969376Q152.82812 120.531876 152.46875 121.0475Q152.10938 121.563126 151.48438 121.82875Q152.1875 122.0475 152.5625 122.563126Q152.95312 123.07875 152.95312 123.82875Q152.95312 124.969376 152.20312 125.656876Q151.45312 126.32875 150.25 126.32875Q149.0625 126.32875 148.29688 125.6725Q147.54688 125.01625 147.54688 123.95375L148.64062 123.95375Q148.64062 124.625626 149.07812 125.031876Q149.51562 125.438126 150.26562 125.438126Q151.04688 125.438126 151.45312 125.031876Q151.875 124.61 151.875 123.844376Q151.875 123.11 151.42188 122.719376Q150.96875 122.313126 150.09375 122.2975L149.28125 122.2975L149.28125 121.406876ZM158.96875 117.6725L158.96875 118.57875L158.76562 118.57875Q157.5 118.61 156.75 119.344376Q156.0 120.063126 155.875 121.375626Q156.5625 120.61 157.71875 120.61Q158.82812 120.61 159.5 121.39125Q160.17188 122.1725 160.17188 123.4225Q160.17188 124.735 159.45312 125.531876Q158.73438 126.32875 157.51562 126.32875Q156.29688 126.32875 155.53125 125.39125Q154.78125 124.438126 154.78125 122.95375L154.78125 122.5475Q154.78125 120.188126 155.78125 118.938126Q156.78125 117.688126 158.76562 117.6725L158.96875 117.6725ZM157.54688 121.51625Q156.98438 121.51625 156.51562 121.844376Q156.04688 122.1725 155.85938 122.688126L155.85938 123.07875Q155.85938 124.14125 156.32812 124.781876Q156.8125 125.4225 157.51562 125.4225Q158.25 125.4225 158.67188 124.89125Q159.09375 124.344376 159.09375 123.469376Q159.09375 122.594376 158.67188 122.063126Q158.25 121.51625 157.54688 121.51625ZM162.20312 121.9225L162.64062 117.6725L167.01562 117.6725L167.01562 118.6725L163.5625 118.6725L163.29688 121.000626Q163.9375 120.625626 164.73438 120.625626Q165.89062 120.625626 166.57812 121.406876Q167.26562 122.1725 167.26562 123.485Q167.26562 124.7975 166.54688 125.563126Q165.84375 126.32875 164.5625 126.32875Q163.4375 126.32875 162.71875 125.70375Q162.0 125.063126 161.90625 123.95375L162.92188 123.95375Q163.03125 124.688126 163.45312 125.063126Q163.875 125.438126 164.5625 125.438126Q165.3125 125.438126 165.75 124.9225Q166.1875 124.406876 166.1875 123.500626Q166.1875 122.64125 165.71875 122.125626Q165.25 121.61 164.46875 121.61Q163.76562 121.61 163.35938 121.906876L163.07812 122.14125L162.20312 121.9225ZM173.28125 123.344376L174.46875 123.344376L174.46875 124.219376L173.28125 124.219376L173.28125 126.20375L172.20312 126.20375L172.20312 124.219376L168.3125 124.219376L168.3125 123.57875L172.125 117.6725L173.28125 117.6725L173.28125 123.344376ZM169.54688 123.344376L172.20312 123.344376L172.20312 119.156876L172.0625 119.39125L169.54688 123.344376Z" fill-rule="nonzero"/><path stroke="#4285f4" stroke-width="3.0" stroke-linejoin="round" stroke-linecap="round" d="M303.35938 290.5625Q303.03125 290.96875 302.54688 291.21875Q302.07812 291.45312 301.51562 291.45312Q300.78125 291.45312 300.23438 291.09375Q299.6875 290.73438 299.39062 290.07812Q299.09375 289.40625 299.09375 288.60938Q299.09375 287.76562 299.40625 287.07812Q299.73438 286.39062 300.32812 286.03125Q300.9375 285.65625 301.73438 285.65625Q303.0 285.65625 303.71875 286.60938Q304.45312 287.5625 304.45312 289.1875L304.45312 289.5Q304.45312 292.0 303.46875 293.14062Q302.48438 294.28125 300.5 294.3125L300.28125 294.3125L300.28125 293.40625L300.51562 293.40625Q301.85938 293.375 302.57812 292.70312Q303.29688 292.03125 303.35938 290.5625ZM301.6875 290.5625Q302.23438 290.5625 302.6875 290.23438Q303.15625 289.89062 303.375 289.40625L303.375 288.96875Q303.375 287.90625 302.90625 287.23438Q302.4375 286.5625 301.73438 286.5625Q301.01562 286.5625 300.57812 287.10938Q300.15625 287.65625 300.15625 288.5625Q300.15625 289.4375 300.5625 290.0Q300.98438 290.5625 301.6875 290.5625ZM311.5625 290.67188Q311.5625 292.57812 310.90625 293.51562Q310.26562 294.4375 308.875 294.4375Q307.51562 294.4375 306.85938 293.53125Q306.20312 292.625 306.17188 290.8125L306.17188 289.375Q306.17188 287.48438 306.8125 286.57812Q307.46875 285.65625 308.85938 285.65625Q310.23438 285.65625 310.89062 286.54688Q311.54688 287.42188 311.5625 289.26562L311.5625 290.67188ZM310.46875 289.1875Q310.46875 287.8125 310.07812 287.1875Q309.70312 286.54688 308.85938 286.54688Q308.03125 286.54688 307.64062 287.1875Q307.26562 287.8125 307.26562 289.10938L307.26562 290.84375Q307.26562 292.21875 307.65625 292.89062Q308.0625 293.54688 308.875 293.54688Q309.67188 293.54688 310.0625 292.92188Q310.45312 292.29688 310.46875 290.96875L310.46875 289.1875ZM318.5625 290.67188Q318.5625 292.57812 317.90625 293.51562Q317.26562 294.4375 315.875 294.4375Q314.51562 294.4375 313.85938 293.53125Q313.20312 292.625 313.17188 290.8125L313.17188 289.375Q313.17188 287.48438 313.8125 286.57812Q314.46875 285.65625 315.85938 285.65625Q317.23438 285.65625 317.89062 286.54688Q318.54688 287.42188 318.5625 289.26562L318.5625 290.67188ZM317.46875 289.1875Q317.46875 287.8125 317.07812 287.1875Q316.70312 286.54688 315.85938 286.54688Q315.03125 286.54688 314.64062 287.1875Q314.26562 287.8125 314.26562 289.10938L314.26562 290.84375Q314.26562 292.21875 314.65625 292.89062Q315.0625 293.54688 315.875 293.54688Q316.67188 293.54688 317.0625 292.92188Q317.45312 292.29688 317.46875 290.96875L317.46875 289.1875Z" fill-rule="nonzero"/><path fill="#ffffff" d="M303.35938 290.5625Q303.03125 290.96875 302.54688 291.21875Q302.07812 291.45312 301.51562 291.45312Q300.78125 291.45312 300.23438 291.09375Q299.6875 290.73438 299.39062 290.07812Q299.09375 289.40625 299.09375 288.60938Q299.09375 287.76562 299.40625 287.07812Q299.73438 286.39062 300.32812 286.03125Q300.9375 285.65625 301.73438 285.65625Q303.0 285.65625 303.71875 286.60938Q304.45312 287.5625 304.45312 289.1875L304.45312 289.5Q304.45312 292.0 303.46875 293.14062Q302.48438 294.28125 300.5 294.3125L300.28125 294.3125L300.28125 293.40625L300.51562 293.40625Q301.85938 293.375 302.57812 292.70312Q303.29688 292.03125 303.35938 290.5625ZM301.6875 290.5625Q302.23438 290.5625 302.6875 290.23438Q303.15625 289.89062 303.375 289.40625L303.375 288.96875Q303.375 287.90625 302.90625 287.23438Q302.4375 286.5625 301.73438 286.5625Q301.01562 286.5625 300.57812 287.10938Q300.15625 287.65625 300.15625 288.5625Q300.15625 289.4375 300.5625 290.0Q300.98438 290.5625 301.6875 290.5625ZM311.5625 290.67188Q311.5625 292.57812 310.90625 293.51562Q310.26562 294.4375 308.875 294.4375Q307.51562 294.4375 306.85938 293.53125Q306.20312 292.625 306.17188 290.8125L306.17188 289.375Q306.17188 287.48438 306.8125 286.57812Q307.46875 285.65625 308.85938 285.65625Q310.23438 285.65625 310.89062 286.54688Q311.54688 287.42188 311.5625 289.26562L311.5625 290.67188ZM310.46875 289.1875Q310.46875 287.8125 310.07812 287.1875Q309.70312 286.54688 308.85938 286.54688Q308.03125 286.54688 307.64062 287.1875Q307.26562 287.8125 307.26562 289.10938L307.26562 290.84375Q307.26562 292.21875 307.65625 292.89062Q308.0625 293.54688 308.875 293.54688Q309.67188 293.54688 310.0625 292.92188Q310.45312 292.29688 310.46875 290.96875L310.46875 289.1875ZM318.5625 290.67188Q318.5625 292.57812 317.90625 293.51562Q317.26562 294.4375 315.875 294.4375Q314.51562 294.4375 313.85938 293.53125Q313.20312 292.625 313.17188 290.8125L313.17188 289.375Q313.17188 287.48438 313.8125 286.57812Q314.46875 285.65625 315.85938 285.65625Q317.23438 285.65625 317.89062 286.54688Q318.54688 287.42188 318.5625 289.26562L318.5625 290.67188ZM317.46875 289.1875Q317.46875 287.8125 317.07812 287.1875Q316.70312 286.54688 315.85938 286.54688Q315.03125 286.54688 314.64062 287.1875Q314.26562 287.8125 314.26562 289.10938L314.26562 290.84375Q314.26562 292.21875 314.65625 292.89062Q315.0625 293.54688 315.875 293.54688Q316.67188 293.54688 317.0625 292.92188Q317.45312 292.29688 317.46875 290.96875L317.46875 289.1875Z" fill-rule="nonzero"/><path stroke="#ffffff" stroke-width="3.0" stroke-linejoin="round" stroke-linecap="round" d="M450.76562 310.97958L449.6875 310.97958L449.6875 303.76083L447.5 304.5577L447.5 303.57333L450.60938 302.40146L450.76562 302.40146L450.76562 310.97958ZM459.5625 307.33896Q459.5625 309.2452 458.90625 310.1827Q458.26562 311.10458 456.875 311.10458Q455.51562 311.10458 454.85938 310.19833Q454.20312 309.29208 454.17188 307.47958L454.17188 306.04208Q454.17188 304.15146 454.8125 303.2452Q455.46875 302.32333 456.85938 302.32333Q458.23438 302.32333 458.89062 303.21396Q459.54688 304.08896 459.5625 305.9327L459.5625 307.33896ZM458.46875 305.85458Q458.46875 304.47958 458.07812 303.85458Q457.70312 303.21396 456.85938 303.21396Q456.03125 303.21396 455.64062 303.85458Q455.26562 304.47958 455.26562 305.77646L455.26562 307.51083Q455.26562 308.88583 455.65625 309.5577Q456.0625 310.21396 456.875 310.21396Q457.67188 310.21396 458.0625 309.58896Q458.45312 308.96396 458.46875 307.63583L458.46875 305.85458ZM465.46875 302.44833L465.46875 303.35458L465.26562 303.35458Q464.0 303.38583 463.25 304.1202Q462.5 304.83896 462.375 306.15146Q463.0625 305.38583 464.21875 305.38583Q465.32812 305.38583 466.0 306.16708Q466.67188 306.94833 466.67188 308.19833Q466.67188 309.51083 465.95312 310.3077Q465.23438 311.10458 464.01562 311.10458Q462.79688 311.10458 462.03125 310.16708Q461.28125 309.21396 461.28125 307.72958L461.28125 307.32333Q461.28125 304.96396 462.28125 303.71396Q463.28125 302.46396 465.26562 302.44833L465.46875 302.44833ZM464.04688 306.29208Q463.48438 306.29208 463.01562 306.6202Q462.54688 306.94833 462.35938 307.46396L462.35938 307.85458Q462.35938 308.91708 462.82812 309.5577Q463.3125 310.19833 464.01562 310.19833Q464.75 310.19833 465.17188 309.66708Q465.59375 309.1202 465.59375 308.2452Q465.59375 307.3702 465.17188 306.83896Q464.75 306.29208 464.04688 306.29208Z" fill-rule="nonzero"/><path fill="#4285f4" d="M450.76562 310.97958L449.6875 310.97958L449.6875 303.76083L447.5 304.5577L447.5 303.57333L450.60938 302.40146L450.76562 302.40146L450.76562 310.97958ZM459.5625 307.33896Q459.5625 309.2452 458.90625 310.1827Q458.26562 311.10458 456.875 311.10458Q455.51562 311.10458 454.85938 310.19833Q454.20312 309.29208 454.17188 307.47958L454.17188 306.04208Q454.17188 304.15146 454.8125 303.2452Q455.46875 302.32333 456.85938 302.32333Q458.23438 302.32333 458.89062 303.21396Q459.54688 304.08896 459.5625 305.9327L459.5625 307.33896ZM458.46875 305.85458Q458.46875 304.47958 458.07812 303.85458Q457.70312 303.21396 456.85938 303.21396Q456.03125 303.21396 455.64062 303.85458Q455.26562 304.47958 455.26562 305.77646L455.26562 307.51083Q455.26562 308.88583 455.65625 309.5577Q456.0625 310.21396 456.875 310.21396Q457.67188 310.21396 458.0625 309.58896Q458.45312 308.96396 458.46875 307.63583L458.46875 305.85458ZM465.46875 302.44833L465.46875 303.35458L465.26562 303.35458Q464.0 303.38583 463.25 304.1202Q462.5 304.83896 462.375 306.15146Q463.0625 305.38583 464.21875 305.38583Q465.32812 305.38583 466.0 306.16708Q466.67188 306.94833 466.67188 308.19833Q466.67188 309.51083 465.95312 310.3077Q465.23438 311.10458 464.01562 311.10458Q462.79688 311.10458 462.03125 310.16708Q461.28125 309.21396 461.28125 307.72958L461.28125 307.32333Q461.28125 304.96396 462.28125 303.71396Q463.28125 302.46396 465.26562 302.44833L465.46875 302.44833ZM464.04688 306.29208Q463.48438 306.29208 463.01562 306.6202Q462.54688 306.94833 462.35938 307.46396L462.35938 307.85458Q462.35938 308.91708 462.82812 309.5577Q463.3125 310.19833 464.01562 310.19833Q464.75 310.19833 465.17188 309.66708Q465.59375 309.1202 465.59375 308.2452Q465.59375 307.3702 465.17188 306.83896Q464.75 306.29208 464.04688 306.29208Z" fill-rule="nonzero"/><path stroke="#ea4335" stroke-width="3.0" stroke-linejoin="round" stroke-linecap="round" d="M199.26562 276.06104L198.1875 276.06104L198.1875 268.8423L196.0 269.63916L196.0 268.6548L199.10938 267.4829L199.26562 267.4829L199.26562 276.06104ZM206.26562 276.06104L205.1875 276.06104L205.1875 268.8423L203.0 269.63916L203.0 268.6548L206.10938 267.4829L206.26562 267.4829L206.26562 276.06104ZM213.85938 272.31104Q213.53125 272.7173 213.04688 272.9673Q212.57812 273.20166 212.01562 273.20166Q211.28125 273.20166 210.73438 272.8423Q210.1875 272.4829 209.89062 271.82666Q209.59375 271.1548 209.59375 270.3579Q209.59375 269.51416 209.90625 268.82666Q210.23438 268.13916 210.82812 267.7798Q211.4375 267.4048 212.23438 267.4048Q213.5 267.4048 214.21875 268.3579Q214.95312 269.31104 214.95312 270.93604L214.95312 271.24854Q214.95312 273.74854 213.96875 274.88916Q212.98438 276.0298 211.0 276.06104L210.78125 276.06104L210.78125 275.1548L211.01562 275.1548Q212.35938 275.12354 213.07812 274.45166Q213.79688 273.7798 213.85938 272.31104ZM212.1875 272.31104Q212.73438 272.31104 213.1875 271.9829Q213.65625 271.63916 213.875 271.1548L213.875 270.7173Q213.875 269.6548 213.40625 268.9829Q212.9375 268.31104 212.23438 268.31104Q211.51562 268.31104 211.07812 268.8579Q210.65625 269.4048 210.65625 270.31104Q210.65625 271.18604 211.0625 271.74854Q211.48438 272.31104 212.1875 272.31104ZM220.85938 272.31104Q220.53125 272.7173 220.04688 272.9673Q219.57812 273.20166 219.01562 273.20166Q218.28125 273.20166 217.73438 272.8423Q217.1875 272.4829 216.89062 271.82666Q216.59375 271.1548 216.59375 270.3579Q216.59375 269.51416 216.90625 268.82666Q217.23438 268.13916 217.82812 267.7798Q218.4375 267.4048 219.23438 267.4048Q220.5 267.4048 221.21875 268.3579Q221.95312 269.31104 221.95312 270.93604L221.95312 271.24854Q221.95312 273.74854 220.96875 274.88916Q219.98438 276.0298 218.0 276.06104L217.78125 276.06104L217.78125 275.1548L218.01562 275.1548Q219.35938 275.12354 220.07812 274.45166Q220.79688 273.7798 220.85938 272.31104ZM219.1875 272.31104Q219.73438 272.31104 220.1875 271.9829Q220.65625 271.63916 220.875 271.1548L220.875 270.7173Q220.875 269.6548 220.40625 268.9829Q219.9375 268.31104 219.23438 268.31104Q218.51562 268.31104 218.07812 268.8579Q217.65625 269.4048 217.65625 270.31104Q217.65625 271.18604 218.0625 271.74854Q218.48438 272.31104 219.1875 272.31104Z" fill-rule="nonzero"/><path fill="#ffffff" d="M199.26562 276.06104L198.1875 276.06104L198.1875 268.8423L196.0 269.63916L196.0 268.6548L199.10938 267.4829L199.26562 267.4829L199.26562 276.06104ZM206.26562 276.06104L205.1875 276.06104L205.1875 268.8423L203.0 269.63916L203.0 268.6548L206.10938 267.4829L206.26562 267.4829L206.26562 276.06104ZM213.85938 272.31104Q213.53125 272.7173 213.04688 272.9673Q212.57812 273.20166 212.01562 273.20166Q211.28125 273.20166 210.73438 272.8423Q210.1875 272.4829 209.89062 271.82666Q209.59375 271.1548 209.59375 270.3579Q209.59375 269.51416 209.90625 268.82666Q210.23438 268.13916 210.82812 267.7798Q211.4375 267.4048 212.23438 267.4048Q213.5 267.4048 214.21875 268.3579Q214.95312 269.31104 214.95312 270.93604L214.95312 271.24854Q214.95312 273.74854 213.96875 274.88916Q212.98438 276.0298 211.0 276.06104L210.78125 276.06104L210.78125 275.1548L211.01562 275.1548Q212.35938 275.12354 213.07812 274.45166Q213.79688 273.7798 213.85938 272.31104ZM212.1875 272.31104Q212.73438 272.31104 213.1875 271.9829Q213.65625 271.63916 213.875 271.1548L213.875 270.7173Q213.875 269.6548 213.40625 268.9829Q212.9375 268.31104 212.23438 268.31104Q211.51562 268.31104 211.07812 268.8579Q210.65625 269.4048 210.65625 270.31104Q210.65625 271.18604 211.0625 271.74854Q211.48438 272.31104 212.1875 272.31104ZM220.85938 272.31104Q220.53125 272.7173 220.04688 272.9673Q219.57812 273.20166 219.01562 273.20166Q218.28125 273.20166 217.73438 272.8423Q217.1875 272.4829 216.89062 271.82666Q216.59375 271.1548 216.59375 270.3579Q216.59375 269.51416 216.90625 268.82666Q217.23438 268.13916 217.82812 267.7798Q218.4375 267.4048 219.23438 267.4048Q220.5 267.4048 221.21875 268.3579Q221.95312 269.31104 221.95312 270.93604L221.95312 271.24854Q221.95312 273.74854 220.96875 274.88916Q219.98438 276.0298 218.0 276.06104L217.78125 276.06104L217.78125 275.1548L218.01562 275.1548Q219.35938 275.12354 220.07812 274.45166Q220.79688 273.7798 220.85938 272.31104ZM219.1875 272.31104Q219.73438 272.31104 220.1875 271.9829Q220.65625 271.63916 220.875 271.1548L220.875 270.7173Q220.875 269.6548 220.40625 268.9829Q219.9375 268.31104 219.23438 268.31104Q218.51562 268.31104 218.07812 268.8579Q217.65625 269.4048 217.65625 270.31104Q217.65625 271.18604 218.0625 271.74854Q218.48438 272.31104 219.1875 272.31104Z" fill-rule="nonzero"/><path stroke="#ffffff" stroke-width="3.0" stroke-linejoin="round" stroke-linecap="round" d="M352.79688 300.7856L347.20312 300.7856L347.20312 300.00436L350.15625 296.7231Q350.8125 295.9731 351.0625 295.52Q351.3125 295.05124 351.3125 294.55124Q351.3125 293.87936 350.90625 293.4575Q350.51562 293.02 349.82812 293.02Q349.03125 293.02 348.57812 293.48874Q348.125 293.94186 348.125 294.77L347.04688 294.77Q347.04688 293.5825 347.79688 292.86374Q348.5625 292.12936 349.82812 292.12936Q351.03125 292.12936 351.71875 292.75436Q352.40625 293.37936 352.40625 294.42624Q352.40625 295.67624 350.79688 297.42624L348.51562 299.895L352.79688 299.895L352.79688 300.7856ZM359.71875 292.86374L356.1875 300.7856L355.04688 300.7856L358.5625 293.145L353.95312 293.145L353.95312 292.25436L359.71875 292.25436L359.71875 292.86374ZM362.78125 295.98874L363.59375 295.98874Q364.375 295.9731 364.8125 295.5825Q365.25 295.19186 365.25 294.52Q365.25 293.02 363.75 293.02Q363.04688 293.02 362.625 293.42624Q362.21875 293.8325 362.21875 294.48874L361.125 294.48874Q361.125 293.4731 361.85938 292.80124Q362.60938 292.12936 363.75 292.12936Q364.95312 292.12936 365.64062 292.77Q366.32812 293.4106 366.32812 294.55124Q366.32812 295.11374 365.96875 295.62936Q365.60938 296.145 364.98438 296.4106Q365.6875 296.62936 366.0625 297.145Q366.45312 297.6606 366.45312 298.4106Q366.45312 299.55124 365.70312 300.23874Q364.95312 300.9106 363.75 300.9106Q362.5625 300.9106 361.79688 300.25436Q361.04688 299.5981 361.04688 298.5356L362.14062 298.5356Q362.14062 299.2075 362.57812 299.61374Q363.01562 300.02 363.76562 300.02Q364.54688 300.02 364.95312 299.61374Q365.375 299.19186 365.375 298.42624Q365.375 297.69186 364.92188 297.30124Q364.46875 296.895 363.59375 296.87936L362.78125 296.87936L362.78125 295.98874Z" fill-rule="nonzero"/><path fill="#ea4335" d="M352.79688 300.7856L347.20312 300.7856L347.20312 300.00436L350.15625 296.7231Q350.8125 295.9731 351.0625 295.52Q351.3125 295.05124 351.3125 294.55124Q351.3125 293.87936 350.90625 293.4575Q350.51562 293.02 349.82812 293.02Q349.03125 293.02 348.57812 293.48874Q348.125 293.94186 348.125 294.77L347.04688 294.77Q347.04688 293.5825 347.79688 292.86374Q348.5625 292.12936 349.82812 292.12936Q351.03125 292.12936 351.71875 292.75436Q352.40625 293.37936 352.40625 294.42624Q352.40625 295.67624 350.79688 297.42624L348.51562 299.895L352.79688 299.895L352.79688 300.7856ZM359.71875 292.86374L356.1875 300.7856L355.04688 300.7856L358.5625 293.145L353.95312 293.145L353.95312 292.25436L359.71875 292.25436L359.71875 292.86374ZM362.78125 295.98874L363.59375 295.98874Q364.375 295.9731 364.8125 295.5825Q365.25 295.19186 365.25 294.52Q365.25 293.02 363.75 293.02Q363.04688 293.02 362.625 293.42624Q362.21875 293.8325 362.21875 294.48874L361.125 294.48874Q361.125 293.4731 361.85938 292.80124Q362.60938 292.12936 363.75 292.12936Q364.95312 292.12936 365.64062 292.77Q366.32812 293.4106 366.32812 294.55124Q366.32812 295.11374 365.96875 295.62936Q365.60938 296.145 364.98438 296.4106Q365.6875 296.62936 366.0625 297.145Q366.45312 297.6606 366.45312 298.4106Q366.45312 299.55124 365.70312 300.23874Q364.95312 300.9106 363.75 300.9106Q362.5625 300.9106 361.79688 300.25436Q361.04688 299.5981 361.04688 298.5356L362.14062 298.5356Q362.14062 299.2075 362.57812 299.61374Q363.01562 300.02 363.76562 300.02Q364.54688 300.02 364.95312 299.61374Q365.375 299.19186 365.375 298.42624Q365.375 297.69186 364.92188 297.30124Q364.46875 296.895 363.59375 296.87936L362.78125 296.87936L362.78125 295.98874Z" fill-rule="nonzero"/><path stroke="#ffffff" stroke-width="3.0" stroke-linejoin="round" stroke-linecap="round" d="M499.20312 310.11667L499.64062 305.86667L504.01562 305.86667L504.01562 306.86667L500.5625 306.86667L500.29688 309.1948Q500.9375 308.8198 501.73438 308.8198Q502.89062 308.8198 503.57812 309.60104Q504.26562 310.36667 504.26562 311.67917Q504.26562 312.99167 503.54688 313.7573Q502.84375 314.52292 501.5625 314.52292Q500.4375 314.52292 499.71875 313.89792Q499.0 313.2573 498.90625 312.14792L499.92188 312.14792Q500.03125 312.8823 500.45312 313.2573Q500.875 313.6323 501.5625 313.6323Q502.3125 313.6323 502.75 313.11667Q503.1875 312.60104 503.1875 311.6948Q503.1875 310.83542 502.71875 310.3198Q502.25 309.80417 501.46875 309.80417Q500.76562 309.80417 500.35938 310.10104L500.07812 310.33542L499.20312 310.11667ZM511.0625 310.7573Q511.0625 312.66354 510.40625 313.60104Q509.76562 314.52292 508.375 314.52292Q507.01562 314.52292 506.35938 313.61667Q505.70312 312.71042 505.67188 310.89792L505.67188 309.46042Q505.67188 307.5698 506.3125 306.66354Q506.96875 305.74167 508.35938 305.74167Q509.73438 305.74167 510.39062 306.6323Q511.04688 307.5073 511.0625 309.35104L511.0625 310.7573ZM509.96875 309.27292Q509.96875 307.89792 509.57812 307.27292Q509.20312 306.6323 508.35938 306.6323Q507.53125 306.6323 507.14062 307.27292Q506.76562 307.89792 506.76562 309.1948L506.76562 310.92917Q506.76562 312.30417 507.15625 312.97604Q507.5625 313.6323 508.375 313.6323Q509.17188 313.6323 509.5625 313.0073Q509.95312 312.3823 509.96875 311.05417L509.96875 309.27292Z" fill-rule="nonzero"/><path fill="#ea4335" d="M499.20312 310.11667L499.64062 305.86667L504.01562 305.86667L504.01562 306.86667L500.5625 306.86667L500.29688 309.1948Q500.9375 308.8198 501.73438 308.8198Q502.89062 308.8198 503.57812 309.60104Q504.26562 310.36667 504.26562 311.67917Q504.26562 312.99167 503.54688 313.7573Q502.84375 314.52292 501.5625 314.52292Q500.4375 314.52292 499.71875 313.89792Q499.0 313.2573 498.90625 312.14792L499.92188 312.14792Q500.03125 312.8823 500.45312 313.2573Q500.875 313.6323 501.5625 313.6323Q502.3125 313.6323 502.75 313.11667Q503.1875 312.60104 503.1875 311.6948Q503.1875 310.83542 502.71875 310.3198Q502.25 309.80417 501.46875 309.80417Q500.76562 309.80417 500.35938 310.10104L500.07812 310.33542L499.20312 310.11667ZM511.0625 310.7573Q511.0625 312.66354 510.40625 313.60104Q509.76562 314.52292 508.375 314.52292Q507.01562 314.52292 506.35938 313.61667Q505.70312 312.71042 505.67188 310.89792L505.67188 309.46042Q505.67188 307.5698 506.3125 306.66354Q506.96875 305.74167 508.35938 305.74167Q509.73438 305.74167 510.39062 306.6323Q511.04688 307.5073 511.0625 309.35104L511.0625 310.7573ZM509.96875 309.27292Q509.96875 307.89792 509.57812 307.27292Q509.20312 306.6323 508.35938 306.6323Q507.53125 306.6323 507.14062 307.27292Q506.76562 307.89792 506.76562 309.1948L506.76562 310.92917Q506.76562 312.30417 507.15625 312.97604Q507.5625 313.6323 508.375 313.6323Q509.17188 313.6323 509.5625 313.0073Q509.95312 312.3823 509.96875 311.05417L509.96875 309.27292Z" fill-rule="nonzero"/><path fill="#000000" d="M29.550013 234.92917L20.956263 234.92917L20.956263 231.11667Q20.956263 229.96042 21.190638 229.36667Q21.425013 228.77292 22.018763 228.41354Q22.596888 228.05417 23.300013 228.05417Q24.221888 228.05417 24.846888 228.64792Q25.471888 229.24167 25.643763 230.47604Q25.862513 230.02292 26.065638 229.78854Q26.518763 229.28854 27.206263 228.85104L29.550013 227.35104L29.550013 228.78854L27.768763 229.91354Q26.987513 230.41354 26.581263 230.74167Q26.175013 231.05417 26.018763 231.3198Q25.846888 231.5698 25.768763 231.83542Q25.737513 232.02292 25.737513 232.46042L25.737513 233.78854L29.550013 233.78854L29.550013 234.92917ZM24.753138 233.78854L24.753138 231.33542Q24.753138 230.5698 24.596888 230.1323Q24.425013 229.67917 24.081263 229.46042Q23.721888 229.22604 23.300013 229.22604Q22.690638 229.22604 22.300013 229.67917Q21.909388 230.11667 21.909388 231.0698L21.909388 233.78854L24.753138 233.78854ZM27.550013 221.8198L27.675013 220.72604Q28.628138 220.97604 29.159388 221.67917Q29.690638 222.3823 29.690638 223.46042Q29.690638 224.8198 28.846888 225.6323Q28.003138 226.42917 26.487513 226.42917Q24.925013 226.42917 24.065638 225.61667Q23.190638 224.80417 23.190638 223.52292Q23.190638 222.27292 24.034388 221.49167Q24.878138 220.6948 26.425013 220.6948Q26.518763 220.6948 26.706263 220.6948L26.706263 225.33542Q27.737513 225.27292 28.284388 224.7573Q28.815638 224.24167 28.815638 223.46042Q28.815638 222.8823 28.518763 222.47604Q28.206263 222.05417 27.550013 221.8198ZM25.846888 225.27292L25.846888 221.80417Q25.050013 221.86667 24.659388 222.1948Q24.050013 222.71042 24.050013 223.5073Q24.050013 224.24167 24.534388 224.74167Q25.018763 225.22604 25.846888 225.27292ZM29.550013 219.10104L20.956263 219.10104L20.956263 218.03854L29.550013 218.03854L29.550013 219.10104ZM28.784388 212.0073Q29.284388 212.60104 29.487513 213.14792Q29.690638 213.67917 29.690638 214.30417Q29.690638 215.33542 29.190638 215.8823Q28.690638 216.42917 27.909388 216.42917Q27.456263 216.42917 27.081263 216.22604Q26.690638 216.02292 26.471888 215.67917Q26.237513 215.33542 26.128138 214.91354Q26.034388 214.61667 25.956263 213.97604Q25.815638 212.71042 25.596888 212.10104Q25.378138 212.10104 25.331263 212.10104Q24.675013 212.10104 24.409388 212.39792Q24.065638 212.80417 24.065638 213.60104Q24.065638 214.33542 24.331263 214.6948Q24.581263 215.05417 25.237513 215.22604L25.096888 216.2573Q24.440638 216.11667 24.034388 215.78854Q23.628138 215.46042 23.409388 214.85104Q23.190638 214.24167 23.190638 213.4448Q23.190638 212.64792 23.378138 212.14792Q23.565638 211.64792 23.846888 211.41354Q24.128138 211.17917 24.565638 211.08542Q24.831263 211.03854 25.534388 211.03854L26.940638 211.03854Q28.409388 211.03854 28.800013 210.97604Q29.190638 210.89792 29.550013 210.6948L29.550013 211.80417Q29.221888 211.96042 28.784388 212.0073ZM26.425013 212.10104Q26.659388 212.67917 26.831263 213.8198Q26.925013 214.47604 27.050013 214.74167Q27.159388 215.0073 27.378138 215.16354Q27.596888 215.30417 27.878138 215.30417Q28.300013 215.30417 28.581263 214.99167Q28.862513 214.66354 28.862513 214.05417Q28.862513 213.4448 28.596888 212.97604Q28.331263 212.49167 27.862513 212.27292Q27.503138 212.10104 26.815638 212.10104L26.425013 212.10104ZM31.940638 209.11667L30.956263 209.24167Q31.050013 208.89792 31.050013 208.6323Q31.050013 208.28854 30.925013 208.08542Q30.815638 207.86667 30.612513 207.72604Q30.440638 207.6323 29.815638 207.39792Q29.737513 207.3823 29.565638 207.30417L23.331263 209.67917L23.331263 208.53854L26.925013 207.24167Q27.612513 206.99167 28.378138 206.78854Q27.643763 206.60104 26.956263 206.35104L23.331263 205.02292L23.331263 203.97604L29.659388 206.33542Q30.675013 206.72604 31.065638 206.92917Q31.596888 207.21042 31.831263 207.58542Q32.08126 207.9448 32.08126 208.4448Q32.08126 208.74167 31.940638 209.11667ZM27.690638 204.49167L27.534388 203.46042Q28.159388 203.36667 28.487513 202.97604Q28.815638 202.5698 28.815638 201.83542Q28.815638 201.11667 28.534388 200.77292Q28.237513 200.41354 27.831263 200.41354Q27.471888 200.41354 27.268763 200.72604Q27.128138 200.9448 26.909388 201.80417Q26.612513 202.96042 26.409388 203.41354Q26.190638 203.85104 25.815638 204.08542Q25.440638 204.3198 24.971888 204.3198Q24.565638 204.3198 24.206263 204.1323Q23.846888 203.9448 23.612513 203.61667Q23.440638 203.36667 23.315638 202.9448Q23.190638 202.52292 23.190638 202.02292Q23.190638 201.30417 23.409388 200.7573Q23.612513 200.1948 23.971888 199.92917Q24.331263 199.66354 24.925013 199.5698L25.065638 200.60104Q24.596888 200.66354 24.331263 201.0073Q24.050013 201.33542 24.050013 201.96042Q24.050013 202.67917 24.300013 202.99167Q24.534388 203.30417 24.862513 203.30417Q25.065638 203.30417 25.221888 203.17917Q25.393763 203.03854 25.503138 202.77292Q25.565638 202.61667 25.768763 201.83542Q26.081263 200.71042 26.268763 200.27292Q26.456263 199.83542 26.815638 199.58542Q27.175013 199.33542 27.721888 199.33542Q28.253138 199.33542 28.721888 199.64792Q29.175013 199.9448 29.440638 200.52292Q29.690638 201.10104 29.690638 201.83542Q29.690638 203.05417 29.190638 203.6948Q28.675013 204.3198 27.690638 204.49167Z" fill-rule="nonzero"/><path fill="#000000" d="M72.05 332.21564Q72.05 330.6844 72.3625 329.7625Q72.675 328.825 73.28438 328.325Q73.90938 327.825 74.84688 327.825Q75.53438 327.825 76.05 328.10626Q76.58125 328.3875 76.925 328.91876Q77.26875 329.4344 77.45625 330.1844Q77.64375 330.9344 77.64375 332.21564Q77.64375 333.73126 77.33125 334.65314Q77.03438 335.575 76.40938 336.09064Q75.8 336.59064 74.84688 336.59064Q73.6125 336.59064 72.89375 335.7Q72.05 334.6375 72.05 332.21564ZM73.12813 332.21564Q73.12813 334.325 73.62813 335.02814Q74.12813 335.73126 74.84688 335.73126Q75.58125 335.73126 76.06563 335.02814Q76.56563 334.325 76.56563 332.21564Q76.56563 330.09064 76.06563 329.40314Q75.58125 328.7 74.83125 328.7Q74.1125 328.7 73.675 329.3094Q73.12813 330.09064 73.12813 332.21564Z" fill-rule="nonzero"/><path fill="#000000" d="M55.01875 275.40833L53.971874 275.40833L53.971874 268.68958Q53.58125 269.04895 52.95625 269.42395Q52.346874 269.78333 51.8625 269.9552L51.8625 268.93958Q52.7375 268.5177 53.39375 267.93958Q54.065624 267.34583 54.346874 266.78333L55.01875 266.78333L55.01875 275.40833ZM58.05 271.17395Q58.05 269.6427 58.3625 268.72083Q58.675 267.78333 59.284374 267.28333Q59.909374 266.78333 60.846874 266.78333Q61.534374 266.78333 62.05 267.06458Q62.58125 267.34583 62.925 267.87708Q63.26875 268.3927 63.45625 269.1427Q63.64375 269.8927 63.64375 271.17395Q63.64375 272.68958 63.33125 273.61145Q63.034374 274.53333 62.409374 275.04895Q61.8 275.54895 60.846874 275.54895Q59.6125 275.54895 58.89375 274.65833Q58.05 273.59583 58.05 271.17395ZM59.128124 271.17395Q59.128124 273.28333 59.628124 273.98645Q60.128124 274.68958 60.846874 274.68958Q61.58125 274.68958 62.065624 273.98645Q62.565624 273.28333 62.565624 271.17395Q62.565624 269.04895 62.065624 268.36145Q61.58125 267.65833 60.83125 267.65833Q60.1125 267.65833 59.675 268.2677Q59.128124 269.04895 59.128124 271.17395ZM65.05 271.17395Q65.05 269.6427 65.3625 268.72083Q65.675 267.78333 66.28438 267.28333Q66.90938 266.78333 67.84688 266.78333Q68.53438 266.78333 69.05 267.06458Q69.58125 267.34583 69.925 267.87708Q70.26875 268.3927 70.45625 269.1427Q70.64375 269.8927 70.64375 271.17395Q70.64375 272.68958 70.33125 273.61145Q70.03438 274.53333 69.40938 275.04895Q68.8 275.54895 67.84688 275.54895Q66.6125 275.54895 65.89375 274.65833Q65.05 273.59583 65.05 271.17395ZM66.12813 271.17395Q66.12813 273.28333 66.62813 273.98645Q67.12813 274.68958 67.84688 274.68958Q68.58125 274.68958 69.06563 273.98645Q69.56563 273.28333 69.56563 271.17395Q69.56563 269.04895 69.06563 268.36145Q68.58125 267.65833 67.83125 267.65833Q67.1125 267.65833 66.675 268.2677Q66.12813 269.04895 66.12813 271.17395ZM72.05 271.17395Q72.05 269.6427 72.3625 268.72083Q72.675 267.78333 73.28438 267.28333Q73.90938 266.78333 74.84688 266.78333Q75.53438 266.78333 76.05 267.06458Q76.58125 267.34583 76.925 267.87708Q77.26875 268.3927 77.45625 269.1427Q77.64375 269.8927 77.64375 271.17395Q77.64375 272.68958 77.33125 273.61145Q77.03438 274.53333 76.40938 275.04895Q75.8 275.54895 74.84688 275.54895Q73.6125 275.54895 72.89375 274.65833Q72.05 273.59583 72.05 271.17395ZM73.12813 271.17395Q73.12813 273.28333 73.62813 273.98645Q74.12813 274.68958 74.84688 274.68958Q75.58125 274.68958 76.06563 273.98645Q76.56563 273.28333 76.56563 271.17395Q76.56563 269.04895 76.06563 268.36145Q75.58125 267.65833 74.83125 267.65833Q74.1125 267.65833 73.675 268.2677Q73.12813 269.04895 73.12813 271.17395Z" fill-rule="nonzero"/><path fill="#000000" d="M56.596874 213.35104L56.596874 214.36667L50.909374 214.36667Q50.909374 213.99167 51.034374 213.6323Q51.253124 213.05417 51.721874 212.49167Q52.20625 211.92917 53.1125 211.1948Q54.51875 210.03854 55.003124 209.36667Q55.503124 208.6948 55.503124 208.10104Q55.503124 207.47604 55.05 207.05417Q54.596874 206.61667 53.878124 206.61667Q53.1125 206.61667 52.659374 207.0698Q52.20625 207.52292 52.190624 208.33542L51.1125 208.22604Q51.221874 207.0073 51.940624 206.3823Q52.675 205.74167 53.909374 205.74167Q55.14375 205.74167 55.8625 206.42917Q56.58125 207.11667 56.58125 208.1323Q56.58125 208.64792 56.3625 209.14792Q56.159374 209.6323 55.659374 210.1948Q55.175 210.74167 54.05 211.6948Q53.096874 212.49167 52.815624 212.78854Q52.55 213.0698 52.378124 213.35104L56.596874 213.35104ZM58.05 210.1323Q58.05 208.60104 58.3625 207.67917Q58.675 206.74167 59.284374 206.24167Q59.909374 205.74167 60.846874 205.74167Q61.534374 205.74167 62.05 206.02292Q62.58125 206.30417 62.925 206.83542Q63.26875 207.35104 63.45625 208.10104Q63.64375 208.85104 63.64375 210.1323Q63.64375 211.64792 63.33125 212.5698Q63.034374 213.49167 62.409374 214.0073Q61.8 214.5073 60.846874 214.5073Q59.6125 214.5073 58.89375 213.61667Q58.05 212.55417 58.05 210.1323ZM59.128124 210.1323Q59.128124 212.24167 59.628124 212.9448Q60.128124 213.64792 60.846874 213.64792Q61.58125 213.64792 62.065624 212.9448Q62.565624 212.24167 62.565624 210.1323Q62.565624 208.0073 62.065624 207.3198Q61.58125 206.61667 60.83125 206.61667Q60.1125 206.61667 59.675 207.22604Q59.128124 208.0073 59.128124 210.1323ZM65.05 210.1323Q65.05 208.60104 65.3625 207.67917Q65.675 206.74167 66.28438 206.24167Q66.90938 205.74167 67.84688 205.74167Q68.53438 205.74167 69.05 206.02292Q69.58125 206.30417 69.925 206.83542Q70.26875 207.35104 70.45625 208.10104Q70.64375 208.85104 70.64375 210.1323Q70.64375 211.64792 70.33125 212.5698Q70.03438 213.49167 69.40938 214.0073Q68.8 214.5073 67.84688 214.5073Q66.6125 214.5073 65.89375 213.61667Q65.05 212.55417 65.05 210.1323ZM66.12813 210.1323Q66.12813 212.24167 66.62813 212.9448Q67.12813 213.64792 67.84688 213.64792Q68.58125 213.64792 69.06563 212.9448Q69.56563 212.24167 69.56563 210.1323Q69.56563 208.0073 69.06563 207.3198Q68.58125 206.61667 67.83125 206.61667Q67.1125 206.61667 66.675 207.22604Q66.12813 208.0073 66.12813 210.1323ZM72.05 210.1323Q72.05 208.60104 72.3625 207.67917Q72.675 206.74167 73.28438 206.24167Q73.90938 205.74167 74.84688 205.74167Q75.53438 205.74167 76.05 206.02292Q76.58125 206.30417 76.925 206.83542Q77.26875 207.35104 77.45625 208.10104Q77.64375 208.85104 77.64375 210.1323Q77.64375 211.64792 77.33125 212.5698Q77.03438 213.49167 76.40938 214.0073Q75.8 214.5073 74.84688 214.5073Q73.6125 214.5073 72.89375 213.61667Q72.05 212.55417 72.05 210.1323ZM73.12813 210.1323Q73.12813 212.24167 73.62813 212.9448Q74.12813 213.64792 74.84688 213.64792Q75.58125 213.64792 76.06563 212.9448Q76.56563 212.24167 76.56563 210.1323Q76.56563 208.0073 76.06563 207.3198Q75.58125 206.61667 74.83125 206.61667Q74.1125 206.61667 73.675 207.22604Q73.12813 208.0073 73.12813 210.1323Z" fill-rule="nonzero"/><path fill="#000000" d="M51.05 151.05937L52.1125 150.91875Q52.284374 151.80937 52.721874 152.21562Q53.159374 152.60625 53.784374 152.60625Q54.534374 152.60625 55.05 152.09062Q55.565624 151.575 55.565624 150.80937Q55.565624 150.09062 55.08125 149.62187Q54.6125 149.1375 53.878124 149.1375Q53.58125 149.1375 53.128124 149.2625L53.253124 148.325Q53.3625 148.34062 53.425 148.34062Q54.096874 148.34062 54.628124 147.99687Q55.175 147.6375 55.175 146.90312Q55.175 146.325 54.784374 145.95Q54.39375 145.55937 53.76875 145.55937Q53.159374 145.55937 52.7375 145.95Q52.33125 146.34062 52.221874 147.10625L51.159374 146.91875Q51.346874 145.87187 52.034374 145.29375Q52.721874 144.7 53.7375 144.7Q54.440624 144.7 55.034374 145.0125Q55.628124 145.30937 55.940624 145.825Q56.253124 146.34062 56.253124 146.93437Q56.253124 147.48125 55.95625 147.95Q55.659374 148.40312 55.08125 148.66875Q55.83125 148.84062 56.253124 149.40312Q56.675 149.95 56.675 150.79375Q56.675 151.91875 55.846874 152.7Q55.034374 153.48125 53.784374 153.48125Q52.659374 153.48125 51.909374 152.80937Q51.159374 152.12187 51.05 151.05937ZM58.05 149.09062Q58.05 147.55937 58.3625 146.6375Q58.675 145.7 59.284374 145.2Q59.909374 144.7 60.846874 144.7Q61.534374 144.7 62.05 144.98125Q62.58125 145.2625 62.925 145.79375Q63.26875 146.30937 63.45625 147.05937Q63.64375 147.80937 63.64375 149.09062Q63.64375 150.60625 63.33125 151.52812Q63.034374 152.45 62.409374 152.96562Q61.8 153.46562 60.846874 153.46562Q59.6125 153.46562 58.89375 152.575Q58.05 151.5125 58.05 149.09062ZM59.128124 149.09062Q59.128124 151.2 59.628124 151.90312Q60.128124 152.60625 60.846874 152.60625Q61.58125 152.60625 62.065624 151.90312Q62.565624 151.2 62.565624 149.09062Q62.565624 146.96562 62.065624 146.27812Q61.58125 145.575 60.83125 145.575Q60.1125 145.575 59.675 146.18437Q59.128124 146.96562 59.128124 149.09062ZM65.05 149.09062Q65.05 147.55937 65.3625 146.6375Q65.675 145.7 66.28438 145.2Q66.90938 144.7 67.84688 144.7Q68.53438 144.7 69.05 144.98125Q69.58125 145.2625 69.925 145.79375Q70.26875 146.30937 70.45625 147.05937Q70.64375 147.80937 70.64375 149.09062Q70.64375 150.60625 70.33125 151.52812Q70.03438 152.45 69.40938 152.96562Q68.8 153.46562 67.84688 153.46562Q66.6125 153.46562 65.89375 152.575Q65.05 151.5125 65.05 149.09062ZM66.12813 149.09062Q66.12813 151.2 66.62813 151.90312Q67.12813 152.60625 67.84688 152.60625Q68.58125 152.60625 69.06563 151.90312Q69.56563 151.2 69.56563 149.09062Q69.56563 146.96562 69.06563 146.27812Q68.58125 145.575 67.83125 145.575Q67.1125 145.575 66.675 146.18437Q66.12813 146.96562 66.12813 149.09062ZM72.05 149.09062Q72.05 147.55937 72.3625 146.6375Q72.675 145.7 73.28438 145.2Q73.90938 144.7 74.84688 144.7Q75.53438 144.7 76.05 144.98125Q76.58125 145.2625 76.925 145.79375Q77.26875 146.30937 77.45625 147.05937Q77.64375 147.80937 77.64375 149.09062Q77.64375 150.60625 77.33125 151.52812Q77.03438 152.45 76.40938 152.96562Q75.8 153.46562 74.84688 153.46562Q73.6125 153.46562 72.89375 152.575Q72.05 151.5125 72.05 149.09062ZM73.12813 149.09062Q73.12813 151.2 73.62813 151.90312Q74.12813 152.60625 74.84688 152.60625Q75.58125 152.60625 76.06563 151.90312Q76.56563 151.2 76.56563 149.09062Q76.56563 146.96562 76.06563 146.27812Q75.58125 145.575 74.83125 145.575Q74.1125 145.575 73.675 146.18437Q73.12813 146.96562 73.12813 149.09062Z" fill-rule="nonzero"/><path fill="#000000" d="M54.425 92.28333L54.425 90.22083L50.70625 90.22083L50.70625 89.25208L54.628124 83.68958L55.4875 83.68958L55.4875 89.25208L56.64375 89.25208L56.64375 90.22083L55.4875 90.22083L55.4875 92.28333L54.425 92.28333ZM54.425 89.25208L54.425 85.39271L51.7375 89.25208L54.425 89.25208ZM58.05 88.04896Q58.05 86.51771 58.3625 85.59583Q58.675 84.65833 59.284374 84.15833Q59.909374 83.65833 60.846874 83.65833Q61.534374 83.65833 62.05 83.93958Q62.58125 84.22083 62.925 84.75208Q63.26875 85.26771 63.45625 86.01771Q63.64375 86.76771 63.64375 88.04896Q63.64375 89.56458 63.33125 90.48646Q63.034374 91.40833 62.409374 91.92396Q61.8 92.42396 60.846874 92.42396Q59.6125 92.42396 58.89375 91.53333Q58.05 90.47083 58.05 88.04896ZM59.128124 88.04896Q59.128124 90.15833 59.628124 90.86146Q60.128124 91.56458 60.846874 91.56458Q61.58125 91.56458 62.065624 90.86146Q62.565624 90.15833 62.565624 88.04896Q62.565624 85.92396 62.065624 85.23646Q61.58125 84.53333 60.83125 84.53333Q60.1125 84.53333 59.675 85.14271Q59.128124 85.92396 59.128124 88.04896ZM65.05 88.04896Q65.05 86.51771 65.3625 85.59583Q65.675 84.65833 66.28438 84.15833Q66.90938 83.65833 67.84688 83.65833Q68.53438 83.65833 69.05 83.93958Q69.58125 84.22083 69.925 84.75208Q70.26875 85.26771 70.45625 86.01771Q70.64375 86.76771 70.64375 88.04896Q70.64375 89.56458 70.33125 90.48646Q70.03438 91.40833 69.40938 91.92396Q68.8 92.42396 67.84688 92.42396Q66.6125 92.42396 65.89375 91.53333Q65.05 90.47083 65.05 88.04896ZM66.12813 88.04896Q66.12813 90.15833 66.62813 90.86146Q67.12813 91.56458 67.84688 91.56458Q68.58125 91.56458 69.06563 90.86146Q69.56563 90.15833 69.56563 88.04896Q69.56563 85.92396 69.06563 85.23646Q68.58125 84.53333 67.83125 84.53333Q67.1125 84.53333 66.675 85.14271Q66.12813 85.92396 66.12813 88.04896ZM72.05 88.04896Q72.05 86.51771 72.3625 85.59583Q72.675 84.65833 73.28438 84.15833Q73.90938 83.65833 74.84688 83.65833Q75.53438 83.65833 76.05 83.93958Q76.58125 84.22083 76.925 84.75208Q77.26875 85.26771 77.45625 86.01771Q77.64375 86.76771 77.64375 88.04896Q77.64375 89.56458 77.33125 90.48646Q77.03438 91.40833 76.40938 91.92396Q75.8 92.42396 74.84688 92.42396Q73.6125 92.42396 72.89375 91.53333Q72.05 90.47083 72.05 88.04896ZM73.12813 88.04896Q73.12813 90.15833 73.62813 90.86146Q74.12813 91.56458 74.84688 91.56458Q75.58125 91.56458 76.06563 90.86146Q76.56563 90.15833 76.56563 88.04896Q76.56563 85.92396 76.06563 85.23646Q75.58125 84.53333 74.83125 84.53333Q74.1125 84.53333 73.675 85.14271Q73.12813 85.92396 73.12813 88.04896Z" fill-rule="nonzero"/><path fill="#000000" d="M171.09352 349.45L168.81227 340.85626L169.98415 340.85626L171.29665 346.4969Q171.49977 347.3719 171.65602 348.2469Q171.98415 346.8719 172.04665 346.65314L173.67165 340.85626L175.04665 340.85626L176.28102 345.2Q176.73415 346.825 176.9529 348.2469Q177.10915 347.4344 177.37477 346.3719L178.71852 340.85626L179.85915 340.85626L177.5154 349.45L176.40602 349.45L174.60915 342.90314Q174.37477 342.09064 174.3279 341.90314Q174.2029 342.48126 174.0779 342.90314L172.2654 349.45L171.09352 349.45ZM180.0779 346.34064Q180.0779 344.60626 181.03102 343.77814Q181.8279 343.09064 182.98415 343.09064Q184.2654 343.09064 185.0779 343.9344Q185.90602 344.7625 185.90602 346.2469Q185.90602 347.45 185.54665 348.1375Q185.18727 348.825 184.48415 349.21564Q183.79665 349.59064 182.98415 349.59064Q181.68727 349.59064 180.87477 348.7625Q180.0779 347.91876 180.0779 346.34064ZM181.15602 346.34064Q181.15602 347.52814 181.67165 348.1219Q182.2029 348.71564 182.98415 348.71564Q183.78102 348.71564 184.29665 348.1219Q184.81227 347.52814 184.81227 346.3094Q184.81227 345.15314 184.28102 344.5594Q183.7654 343.96564 182.98415 343.96564Q182.2029 343.96564 181.67165 344.5594Q181.15602 345.1375 181.15602 346.34064ZM187.4529 349.45L187.4529 343.23126L188.40602 343.23126L188.40602 344.16876Q188.7654 343.5125 189.06227 343.3094Q189.37477 343.09064 189.74977 343.09064Q190.28102 343.09064 190.8279 343.41876L190.46852 344.40314Q190.0779 344.16876 189.7029 344.16876Q189.34352 344.16876 189.06227 344.3875Q188.79665 344.59064 188.68727 344.96564Q188.49977 345.52814 188.49977 346.1844L188.49977 349.45L187.4529 349.45ZM191.43727 349.45L191.43727 340.85626L192.49977 340.85626L192.49977 349.45L191.43727 349.45ZM198.49977 349.45L198.49977 348.66876Q197.90602 349.59064 196.7654 349.59064Q196.0154 349.59064 195.3904 349.1844Q194.7654 348.7625 194.42165 348.02814Q194.0779 347.29376 194.0779 346.34064Q194.0779 345.41876 194.3904 344.65314Q194.7029 343.8875 195.3279 343.4969Q195.9529 343.09064 196.71852 343.09064Q197.28102 343.09064 197.71852 343.325Q198.15602 343.5594 198.43727 343.9344L198.43727 340.85626L199.48415 340.85626L199.48415 349.45L198.49977 349.45ZM195.17165 346.34064Q195.17165 347.54376 195.67165 348.1375Q196.17165 348.71564 196.85915 348.71564Q197.54665 348.71564 198.03102 348.15314Q198.5154 347.59064 198.5154 346.4344Q198.5154 345.15314 198.0154 344.5594Q197.53102 343.96564 196.81227 343.96564Q196.10915 343.96564 195.6404 344.54376Q195.17165 345.10626 195.17165 346.34064Z" fill-rule="nonzero"/><path fill="#000000" d="M312.95312 346.075L312.95312 345.075L316.57812 345.0594L316.57812 348.2469Q315.75 348.91876 314.85938 349.2625Q313.96875 349.59064 313.03125 349.59064Q311.76562 349.59064 310.71875 349.0594Q309.6875 348.5125 309.15625 347.4969Q308.64062 346.46564 308.64062 345.2Q308.64062 343.9344 309.15625 342.85626Q309.6875 341.7625 310.67188 341.2469Q311.65625 340.71564 312.9375 340.71564Q313.875 340.71564 314.625 341.0125Q315.375 341.3094 315.79688 341.85626Q316.23438 342.3875 316.45312 343.2625L315.4375 343.54376Q315.23438 342.8875 314.9375 342.5125Q314.65625 342.1375 314.125 341.91876Q313.59375 341.6844 312.95312 341.6844Q312.17188 341.6844 311.59375 341.91876Q311.03125 342.15314 310.67188 342.54376Q310.32812 342.9344 310.14062 343.40314Q309.8125 344.2 309.8125 345.1219Q309.8125 346.27814 310.20312 347.0594Q310.60938 347.825 311.35938 348.2Q312.10938 348.575 312.96875 348.575Q313.70312 348.575 314.40625 348.29376Q315.10938 347.9969 315.46875 347.6844L315.46875 346.075L312.95312 346.075ZM322.04688 347.45L323.14062 347.575Q322.89062 348.52814 322.1875 349.0594Q321.48438 349.59064 320.40625 349.59064Q319.04688 349.59064 318.23438 348.7469Q317.4375 347.90314 317.4375 346.3875Q317.4375 344.825 318.25 343.96564Q319.0625 343.09064 320.34375 343.09064Q321.59375 343.09064 322.375 343.9344Q323.17188 344.77814 323.17188 346.325Q323.17188 346.41876 323.17188 346.60626L318.53125 346.60626Q318.59375 347.6375 319.10938 348.1844Q319.625 348.71564 320.40625 348.71564Q320.98438 348.71564 321.39062 348.41876Q321.8125 348.10626 322.04688 347.45ZM318.59375 345.7469L322.0625 345.7469Q322.0 344.95 321.67188 344.5594Q321.15625 343.95 320.35938 343.95Q319.625 343.95 319.125 344.4344Q318.64062 344.91876 318.59375 345.7469ZM324.78125 349.45L324.78125 343.23126L325.73438 343.23126L325.73438 344.16876Q326.09375 343.5125 326.39062 343.3094Q326.70312 343.09064 327.07812 343.09064Q327.60938 343.09064 328.15625 343.41876L327.79688 344.40314Q327.40625 344.16876 327.03125 344.16876Q326.67188 344.16876 326.39062 344.3875Q326.125 344.59064 326.01562 344.96564Q325.82812 345.52814 325.82812 346.1844L325.82812 349.45L324.78125 349.45ZM328.79688 349.45L328.79688 343.23126L329.73438 343.23126L329.73438 344.10626Q330.03125 343.6375 330.51562 343.3719Q331.0 343.09064 331.625 343.09064Q332.3125 343.09064 332.75 343.3719Q333.20312 343.65314 333.375 344.16876Q334.125 343.09064 335.29688 343.09064Q336.23438 343.09064 336.71875 343.60626Q337.21875 344.10626 337.21875 345.1844L337.21875 349.45L336.17188 349.45L336.17188 345.52814Q336.17188 344.90314 336.0625 344.6219Q335.96875 344.34064 335.70312 344.16876Q335.4375 343.9969 335.0625 343.9969Q334.40625 343.9969 333.96875 344.4344Q333.54688 344.8719 333.54688 345.84064L333.54688 349.45L332.48438 349.45L332.48438 345.40314Q332.48438 344.7 332.21875 344.35626Q331.96875 343.9969 331.39062 343.9969Q330.9375 343.9969 330.5625 344.23126Q330.1875 344.46564 330.01562 344.91876Q329.84375 345.3719 329.84375 346.21564L329.84375 349.45L328.79688 349.45ZM343.85938 348.6844Q343.26562 349.1844 342.71875 349.3875Q342.1875 349.59064 341.5625 349.59064Q340.53125 349.59064 339.98438 349.09064Q339.4375 348.59064 339.4375 347.8094Q339.4375 347.35626 339.64062 346.98126Q339.84375 346.59064 340.1875 346.3719Q340.53125 346.1375 340.95312 346.02814Q341.25 345.9344 341.89062 345.85626Q343.15625 345.71564 343.76562 345.4969Q343.76562 345.27814 343.76562 345.23126Q343.76562 344.575 343.46875 344.3094Q343.0625 343.96564 342.26562 343.96564Q341.53125 343.96564 341.17188 344.23126Q340.8125 344.48126 340.64062 345.1375L339.60938 344.9969Q339.75 344.34064 340.07812 343.9344Q340.40625 343.52814 341.01562 343.3094Q341.625 343.09064 342.42188 343.09064Q343.21875 343.09064 343.71875 343.27814Q344.21875 343.46564 344.45312 343.7469Q344.6875 344.02814 344.78125 344.46564Q344.82812 344.73126 344.82812 345.4344L344.82812 346.84064Q344.82812 348.3094 344.89062 348.7Q344.96875 349.09064 345.17188 349.45L344.0625 349.45Q343.90625 349.1219 343.85938 348.6844ZM343.76562 346.325Q343.1875 346.5594 342.04688 346.73126Q341.39062 346.825 341.125 346.95Q340.85938 347.0594 340.70312 347.27814Q340.5625 347.4969 340.5625 347.77814Q340.5625 348.2 340.875 348.48126Q341.20312 348.7625 341.8125 348.7625Q342.42188 348.7625 342.89062 348.4969Q343.375 348.23126 343.59375 347.7625Q343.76562 347.40314 343.76562 346.71564L343.76562 346.325ZM346.79688 349.45L346.79688 343.23126L347.73438 343.23126L347.73438 344.10626Q348.42188 343.09064 349.71875 343.09064Q350.28125 343.09064 350.75 343.29376Q351.23438 343.4969 351.46875 343.825Q351.70312 344.15314 351.79688 344.59064Q351.84375 344.8875 351.84375 345.6219L351.84375 349.45L350.79688 349.45L350.79688 345.66876Q350.79688 345.0125 350.67188 344.7Q350.54688 344.3875 350.23438 344.2Q349.92188 343.9969 349.5 343.9969Q348.82812 343.9969 348.32812 344.4344Q347.84375 344.85626 347.84375 346.04376L347.84375 349.45L346.79688 349.45ZM353.75 351.84064L353.625 350.85626Q353.96875 350.95 354.23438 350.95Q354.57812 350.95 354.78125 350.825Q355.0 350.71564 355.14062 350.5125Q355.23438 350.34064 355.46875 349.71564Q355.48438 349.6375 355.5625 349.46564L353.1875 343.23126L354.32812 343.23126L355.625 346.825Q355.875 347.5125 356.07812 348.27814Q356.26562 347.54376 356.51562 346.85626L357.84375 343.23126L358.89062 343.23126L356.53125 349.5594Q356.14062 350.575 355.9375 350.96564Q355.65625 351.4969 355.28125 351.73126Q354.92188 351.98126 354.42188 351.98126Q354.125 351.98126 353.75 351.84064Z" fill-rule="nonzero"/><path fill="#000000" d="M459.37524 346.6844L460.43774 346.59064Q460.51587 347.2469 460.79712 347.65314Q461.07837 348.0594 461.6565 348.325Q462.25024 348.575 462.98462 348.575Q463.62524 348.575 464.12524 348.3875Q464.62524 348.1844 464.85962 347.85626Q465.10962 347.5125 465.10962 347.1219Q465.10962 346.71564 464.87524 346.41876Q464.64087 346.10626 464.10962 345.90314Q463.75024 345.7625 462.56274 345.48126Q461.39087 345.2 460.92212 344.95Q460.29712 344.6219 460.00024 344.15314Q459.70337 343.66876 459.70337 343.075Q459.70337 342.4344 460.06274 341.8719Q460.43774 341.29376 461.14087 341.0125Q461.85962 340.71564 462.719 340.71564Q463.67212 340.71564 464.4065 341.02814Q465.14087 341.325 465.5315 341.9344Q465.92212 342.52814 465.95337 343.27814L464.85962 343.35626Q464.76587 342.54376 464.25024 342.1375Q463.75024 341.71564 462.76587 341.71564Q461.73462 341.71564 461.26587 342.09064Q460.79712 342.46564 460.79712 342.9969Q460.79712 343.46564 461.12524 343.7625Q461.45337 344.0594 462.82837 344.3719Q464.219 344.6844 464.73462 344.91876Q465.48462 345.27814 465.844 345.8094Q466.20337 346.325 466.20337 347.02814Q466.20337 347.71564 465.81274 348.325Q465.42212 348.91876 464.68774 349.2625Q463.95337 349.59064 463.0315 349.59064Q461.85962 349.59064 461.06274 349.2625Q460.2815 348.91876 459.82837 348.23126Q459.39087 347.54376 459.37524 346.6844ZM468.76587 349.45L466.85962 343.23126L467.95337 343.23126L468.93774 346.825L469.31274 348.15314Q469.344 348.0594 469.64087 346.8719L470.62524 343.23126L471.70337 343.23126L472.64087 346.84064L472.95337 348.02814L473.31274 346.825L474.37524 343.23126L475.4065 343.23126L473.45337 349.45L472.35962 349.45L471.37524 345.71564L471.12524 344.66876L469.87524 349.45L468.76587 349.45ZM480.87524 347.45L481.969 347.575Q481.719 348.52814 481.01587 349.0594Q480.31274 349.59064 479.23462 349.59064Q477.87524 349.59064 477.06274 348.7469Q476.26587 347.90314 476.26587 346.3875Q476.26587 344.825 477.07837 343.96564Q477.89087 343.09064 479.17212 343.09064Q480.42212 343.09064 481.20337 343.9344Q482.00024 344.77814 482.00024 346.325Q482.00024 346.41876 482.00024 346.60626L477.35962 346.60626Q477.42212 347.6375 477.93774 348.1844Q478.45337 348.71564 479.23462 348.71564Q479.81274 348.71564 480.219 348.41876Q480.64087 348.10626 480.87524 347.45ZM477.42212 345.7469L480.89087 345.7469Q480.82837 344.95 480.50024 344.5594Q479.98462 343.95 479.18774 343.95Q478.45337 343.95 477.95337 344.4344Q477.469 344.91876 477.42212 345.7469ZM487.6565 349.45L487.6565 348.66876Q487.06274 349.59064 485.92212 349.59064Q485.17212 349.59064 484.54712 349.1844Q483.92212 348.7625 483.57837 348.02814Q483.23462 347.29376 483.23462 346.34064Q483.23462 345.41876 483.54712 344.65314Q483.85962 343.8875 484.48462 343.4969Q485.10962 343.09064 485.87524 343.09064Q486.43774 343.09064 486.87524 343.325Q487.31274 343.5594 487.594 343.9344L487.594 340.85626L488.64087 340.85626L488.64087 349.45L487.6565 349.45ZM484.32837 346.34064Q484.32837 347.54376 484.82837 348.1375Q485.32837 348.71564 486.01587 348.71564Q486.70337 348.71564 487.18774 348.15314Q487.67212 347.59064 487.67212 346.4344Q487.67212 345.15314 487.17212 344.5594Q486.68774 343.96564 485.969 343.96564Q485.26587 343.96564 484.79712 344.54376Q484.32837 345.10626 484.32837 346.34064ZM494.87524 347.45L495.969 347.575Q495.719 348.52814 495.01587 349.0594Q494.31274 349.59064 493.23462 349.59064Q491.87524 349.59064 491.06274 348.7469Q490.26587 347.90314 490.26587 346.3875Q490.26587 344.825 491.07837 343.96564Q491.89087 343.09064 493.17212 343.09064Q494.42212 343.09064 495.20337 343.9344Q496.00024 344.77814 496.00024 346.325Q496.00024 346.41876 496.00024 346.60626L491.35962 346.60626Q491.42212 347.6375 491.93774 348.1844Q492.45337 348.71564 493.23462 348.71564Q493.81274 348.71564 494.219 348.41876Q494.64087 348.10626 494.87524 347.45ZM491.42212 345.7469L494.89087 345.7469Q494.82837 344.95 494.50024 344.5594Q493.98462 343.95 493.18774 343.95Q492.45337 343.95 491.95337 344.4344Q491.469 344.91876 491.42212 345.7469ZM497.62524 349.45L497.62524 343.23126L498.56274 343.23126L498.56274 344.10626Q499.25024 343.09064 500.54712 343.09064Q501.10962 343.09064 501.57837 343.29376Q502.06274 343.4969 502.29712 343.825Q502.5315 344.15314 502.62524 344.59064Q502.67212 344.8875 502.67212 345.6219L502.67212 349.45L501.62524 349.45L501.62524 345.66876Q501.62524 345.0125 501.50024 344.7Q501.37524 344.3875 501.06274 344.2Q500.75024 343.9969 500.32837 343.9969Q499.6565 343.9969 499.1565 344.4344Q498.67212 344.85626 498.67212 346.04376L498.67212 349.45L497.62524 349.45Z" fill-rule="nonzero"/><path fill="#4285f4" d="M238.5 56.916668C238.5 56.364384 238.94771 55.916668 239.5 55.916668L249.5 55.916668C250.05229 55.916668 250.5 56.364384 250.5 56.916668L250.5 66.916664C250.5 67.46895 250.05229 67.916664 249.5 67.916664L239.5 67.916664C238.94771 67.916664 238.5 67.46895 238.5 66.916664Z" fill-rule="nonzero"/><path fill="#1a1a1a" d="M263.45312 62.541664L263.45312 61.541664L267.07812 61.52604L267.07812 64.71354Q266.25 65.385414 265.35938 65.729164Q264.46875 66.05729 263.53125 66.05729Q262.26562 66.05729 261.21875 65.52604Q260.1875 64.979164 259.65625 63.96354Q259.14062 62.93229 259.14062 61.666664Q259.14062 60.40104 259.65625 59.322914Q260.1875 58.229164 261.17188 57.71354Q262.15625 57.18229 263.4375 57.18229Q264.375 57.18229 265.125 57.479164Q265.875 57.77604 266.29688 58.322914Q266.73438 58.854164 266.95312 59.729164L265.9375 60.010414Q265.73438 59.354164 265.4375 58.979164Q265.15625 58.604164 264.625 58.385414Q264.09375 58.15104 263.45312 58.15104Q262.67188 58.15104 262.09375 58.385414Q261.53125 58.61979 261.17188 59.010414Q260.82812 59.40104 260.64062 59.86979Q260.3125 60.666664 260.3125 61.58854Q260.3125 62.74479 260.70312 63.52604Q261.10938 64.291664 261.85938 64.666664Q262.60938 65.041664 263.46875 65.041664Q264.20312 65.041664 264.90625 64.760414Q265.60938 64.46354 265.96875 64.15104L265.96875 62.541664L263.45312 62.541664ZM272.375 65.916664L272.375 64.99479Q271.64062 66.05729 270.39062 66.05729Q269.84375 66.05729 269.35938 65.854164Q268.89062 65.635414 268.65625 65.322914Q268.42188 64.99479 268.32812 64.52604Q268.26562 64.229164 268.26562 63.541664L268.26562 59.697914L269.32812 59.697914L269.32812 63.15104Q269.32812 63.96354 269.39062 64.260414Q269.48438 64.666664 269.79688 64.916664Q270.125 65.15104 270.60938 65.15104Q271.07812 65.15104 271.48438 64.916664Q271.90625 64.666664 272.07812 64.24479Q272.26562 63.822914 272.26562 63.02604L272.26562 59.697914L273.3125 59.697914L273.3125 65.916664L272.375 65.916664ZM279.35938 65.15104Q278.76562 65.65104 278.21875 65.854164Q277.6875 66.05729 277.0625 66.05729Q276.03125 66.05729 275.48438 65.55729Q274.9375 65.05729 274.9375 64.27604Q274.9375 63.822914 275.14062 63.447914Q275.34375 63.05729 275.6875 62.83854Q276.03125 62.604164 276.45312 62.49479Q276.75 62.40104 277.39062 62.322914Q278.65625 62.18229 279.26562 61.96354Q279.26562 61.74479 279.26562 61.697914Q279.26562 61.041664 278.96875 60.77604Q278.5625 60.43229 277.76562 60.43229Q277.03125 60.43229 276.67188 60.697914Q276.3125 60.947914 276.14062 61.604164L275.10938 61.46354Q275.25 60.80729 275.57812 60.40104Q275.90625 59.99479 276.51562 59.77604Q277.125 59.55729 277.92188 59.55729Q278.71875 59.55729 279.21875 59.74479Q279.71875 59.93229 279.95312 60.21354Q280.1875 60.49479 280.28125 60.93229Q280.32812 61.197914 280.32812 61.90104L280.32812 63.30729Q280.32812 64.77604 280.39062 65.166664Q280.46875 65.55729 280.67188 65.916664L279.5625 65.916664Q279.40625 65.58854 279.35938 65.15104ZM279.26562 62.791664Q278.6875 63.02604 277.54688 63.197914Q276.89062 63.291664 276.625 63.416664Q276.35938 63.52604 276.20312 63.74479Q276.0625 63.96354 276.0625 64.24479Q276.0625 64.666664 276.375 64.947914Q276.70312 65.229164 277.3125 65.229164Q277.92188 65.229164 278.39062 64.96354Q278.875 64.697914 279.09375 64.229164Q279.26562 63.86979 279.26562 63.18229L279.26562 62.791664ZM282.28125 65.916664L282.28125 59.697914L283.23438 59.697914L283.23438 60.635414Q283.59375 59.979164 283.89062 59.77604Q284.20312 59.55729 284.57812 59.55729Q285.10938 59.55729 285.65625 59.885414L285.29688 60.86979Q284.90625 60.635414 284.53125 60.635414Q284.17188 60.635414 283.89062 60.854164Q283.625 61.05729 283.51562 61.43229Q283.32812 61.99479 283.32812 62.65104L283.32812 65.916664L282.28125 65.916664ZM290.32812 65.916664L290.32812 65.135414Q289.73438 66.05729 288.59375 66.05729Q287.84375 66.05729 287.21875 65.65104Q286.59375 65.229164 286.25 64.49479Q285.90625 63.760414 285.90625 62.80729Q285.90625 61.885414 286.21875 61.11979Q286.53125 60.354164 287.15625 59.96354Q287.78125 59.55729 288.54688 59.55729Q289.10938 59.55729 289.54688 59.791664Q289.98438 60.02604 290.26562 60.40104L290.26562 57.322914L291.3125 57.322914L291.3125 65.916664L290.32812 65.916664ZM287.0 62.80729Q287.0 64.010414 287.5 64.604164Q288.0 65.18229 288.6875 65.18229Q289.375 65.18229 289.85938 64.61979Q290.34375 64.05729 290.34375 62.90104Q290.34375 61.61979 289.84375 61.02604Q289.35938 60.43229 288.64062 60.43229Q287.9375 60.43229 287.46875 61.010414Q287.0 61.572914 287.0 62.80729ZM292.875 64.05729L293.90625 63.90104Q294.0 64.52604 294.39062 64.854164Q294.79688 65.18229 295.53125 65.18229Q296.25 65.18229 296.59375 64.90104Q296.95312 64.604164 296.95312 64.197914Q296.95312 63.83854 296.64062 63.635414Q296.42188 63.49479 295.5625 63.27604Q294.40625 62.979164 293.95312 62.77604Q293.51562 62.55729 293.28125 62.18229Q293.04688 61.80729 293.04688 61.33854Q293.04688 60.93229 293.23438 60.572914Q293.42188 60.21354 293.75 59.979164Q294.0 59.80729 294.42188 59.68229Q294.84375 59.55729 295.34375 59.55729Q296.0625 59.55729 296.60938 59.77604Q297.17188 59.979164 297.4375 60.33854Q297.70312 60.697914 297.79688 61.291664L296.76562 61.43229Q296.70312 60.96354 296.35938 60.697914Q296.03125 60.416664 295.40625 60.416664Q294.6875 60.416664 294.375 60.666664Q294.0625 60.90104 294.0625 61.229164Q294.0625 61.43229 294.1875 61.58854Q294.32812 61.760414 294.59375 61.86979Q294.75 61.93229 295.53125 62.135414Q296.65625 62.447914 297.09375 62.635414Q297.53125 62.822914 297.78125 63.18229Q298.03125 63.541664 298.03125 64.08854Q298.03125 64.61979 297.71875 65.08854Q297.42188 65.541664 296.84375 65.80729Q296.26562 66.05729 295.53125 66.05729Q294.3125 66.05729 293.67188 65.55729Q293.04688 65.041664 292.875 64.05729Z" fill-rule="nonzero"/><path fill="#ea4335" d="M315.5 56.916668C315.5 56.364384 315.94772 55.916668 316.5 55.916668L326.5 55.916668C327.05228 55.916668 327.5 56.364384 327.5 56.916668L327.5 66.916664C327.5 67.46895 327.05228 67.916664 326.5 67.916664L316.5 67.916664C315.94772 67.916664 315.5 67.46895 315.5 66.916664Z" fill-rule="nonzero"/><path fill="#1a1a1a" d="M336.45312 65.916664L336.45312 57.322914L342.65625 57.322914L342.65625 58.33854L337.59375 58.33854L337.59375 60.96354L342.34375 60.96354L342.34375 61.979164L337.59375 61.979164L337.59375 64.90104L342.85938 64.90104L342.85938 65.916664L336.45312 65.916664ZM343.59375 65.916664L345.85938 62.68229L343.76562 59.697914L345.07812 59.697914L346.03125 61.15104Q346.29688 61.572914 346.46875 61.854164Q346.71875 61.46354 346.9375 61.166664L347.98438 59.697914L349.25 59.697914L347.09375 62.61979L349.40625 65.916664L348.125 65.916664L346.84375 63.979164L346.5 63.46354L344.85938 65.916664L343.59375 65.916664ZM349.29688 58.541664L349.29688 57.322914L350.35938 57.322914L350.35938 58.541664L349.29688 58.541664ZM349.29688 65.916664L349.29688 59.697914L350.35938 59.697914L350.35938 65.916664L349.29688 65.916664ZM354.59375 64.979164L354.75 65.90104Q354.29688 65.99479 353.95312 65.99479Q353.375 65.99479 353.0625 65.822914Q352.75 65.635414 352.60938 65.33854Q352.48438 65.041664 352.48438 64.08854L352.48438 60.510414L351.71875 60.510414L351.71875 59.697914L352.48438 59.697914L352.48438 58.15104L353.53125 57.52604L353.53125 59.697914L354.59375 59.697914L354.59375 60.510414L353.53125 60.510414L353.53125 64.15104Q353.53125 64.604164 353.57812 64.729164Q353.64062 64.854164 353.76562 64.93229Q353.89062 65.010414 354.125 65.010414Q354.3125 65.010414 354.59375 64.979164ZM354.875 64.05729L355.90625 63.90104Q356.0 64.52604 356.39062 64.854164Q356.79688 65.18229 357.53125 65.18229Q358.25 65.18229 358.59375 64.90104Q358.95312 64.604164 358.95312 64.197914Q358.95312 63.83854 358.64062 63.635414Q358.42188 63.49479 357.5625 63.27604Q356.40625 62.979164 355.95312 62.77604Q355.51562 62.55729 355.28125 62.18229Q355.04688 61.80729 355.04688 61.33854Q355.04688 60.93229 355.23438 60.572914Q355.42188 60.21354 355.75 59.979164Q356.0 59.80729 356.42188 59.68229Q356.84375 59.55729 357.34375 59.55729Q358.0625 59.55729 358.60938 59.77604Q359.17188 59.979164 359.4375 60.33854Q359.70312 60.697914 359.79688 61.291664L358.76562 61.43229Q358.70312 60.96354 358.35938 60.697914Q358.03125 60.416664 357.40625 60.416664Q356.6875 60.416664 356.375 60.666664Q356.0625 60.90104 356.0625 61.229164Q356.0625 61.43229 356.1875 61.58854Q356.32812 61.760414 356.59375 61.86979Q356.75 61.93229 357.53125 62.135414Q358.65625 62.447914 359.09375 62.635414Q359.53125 62.822914 359.78125 63.18229Q360.03125 63.541664 360.03125 64.08854Q360.03125 64.61979 359.71875 65.08854Q359.42188 65.541664 358.84375 65.80729Q358.26562 66.05729 357.53125 66.05729Q356.3125 66.05729 355.67188 65.55729Q355.04688 65.041664 354.875 64.05729Z" fill-rule="nonzero"/><path fill="#757575" d="M127.53125 37.55L127.53125 23.2375L129.46875 23.2375L136.98438 34.471874L136.98438 23.2375L138.79688 23.2375L138.79688 37.55L136.85938 37.55L129.34375 26.3L129.34375 37.55L127.53125 37.55ZM147.10938 37.55L147.10938 36.01875Q145.90625 37.784374 143.82812 37.784374Q142.90625 37.784374 142.10938 37.440624Q141.3125 37.08125 140.92188 36.55Q140.54688 36.01875 140.39062 35.2375Q140.28125 34.721874 140.28125 33.596874L140.28125 27.175L142.03125 27.175L142.03125 32.925Q142.03125 34.3 142.14062 34.784374Q142.3125 35.471874 142.84375 35.878124Q143.39062 36.26875 144.17188 36.26875Q144.96875 36.26875 145.65625 35.8625Q146.35938 35.45625 146.64062 34.76875Q146.9375 34.065624 146.9375 32.7375L146.9375 27.175L148.6875 27.175L148.6875 37.55L147.10938 37.55ZM150.3125 37.55L150.3125 27.175L151.89062 27.175L151.89062 28.628124Q152.375 27.878124 153.1875 27.409374Q154.0 26.940624 155.03125 26.940624Q156.1875 26.940624 156.92188 27.425Q157.65625 27.89375 157.96875 28.753124Q159.20312 26.940624 161.17188 26.940624Q162.71875 26.940624 163.54688 27.8Q164.375 28.659374 164.375 30.425L164.375 37.55L162.625 37.55L162.625 31.01875Q162.625 29.95625 162.45312 29.503124Q162.28125 29.034374 161.82812 28.753124Q161.39062 28.471874 160.78125 28.471874Q159.6875 28.471874 158.95312 29.20625Q158.23438 29.925 158.23438 31.51875L158.23438 37.55L156.48438 37.55L156.48438 30.815624Q156.48438 29.64375 156.04688 29.065624Q155.625 28.471874 154.64062 28.471874Q153.90625 28.471874 153.26562 28.8625Q152.64062 29.253124 152.35938 30.003124Q152.07812 30.753124 152.07812 32.175L152.07812 37.55L150.3125 37.55ZM167.9375 37.55L166.3125 37.55L166.3125 23.2375L168.0625 23.2375L168.0625 28.346874Q169.1875 26.940624 170.90625 26.940624Q171.85938 26.940624 172.71875 27.33125Q173.57812 27.721874 174.125 28.425Q174.67188 29.1125 174.98438 30.096874Q175.29688 31.08125 175.29688 32.20625Q175.29688 34.878124 173.98438 36.33125Q172.67188 37.784374 170.82812 37.784374Q168.98438 37.784374 167.9375 36.253124L167.9375 37.55ZM167.92188 32.284374Q167.92188 34.14375 168.42188 34.9875Q169.26562 36.33125 170.67188 36.33125Q171.82812 36.33125 172.65625 35.33125Q173.5 34.33125 173.5 32.346874Q173.5 30.315624 172.6875 29.3625Q171.89062 28.39375 170.75 28.39375Q169.59375 28.39375 168.75 29.39375Q167.92188 30.39375 167.92188 32.284374ZM184.42188 34.20625L186.23438 34.440624Q185.8125 36.01875 184.64062 36.909374Q183.48438 37.784374 181.67188 37.784374Q179.40625 37.784374 178.0625 36.39375Q176.73438 34.9875 176.73438 32.45625Q176.73438 29.83125 178.07812 28.39375Q179.42188 26.940624 181.57812 26.940624Q183.65625 26.940624 184.96875 28.3625Q186.29688 29.76875 186.29688 32.346874Q186.29688 32.503124 186.28125 32.815624L178.54688 32.815624Q178.64062 34.51875 179.51562 35.425Q180.39062 36.33125 181.6875 36.33125Q182.65625 36.33125 183.32812 35.83125Q184.01562 35.315624 184.42188 34.20625ZM178.64062 31.3625L184.4375 31.3625Q184.32812 30.065624 183.78125 29.409374Q182.9375 28.39375 181.59375 28.39375Q180.39062 28.39375 179.5625 29.20625Q178.73438 30.003124 178.64062 31.3625ZM188.29688 37.55L188.29688 27.175L189.875 27.175L189.875 28.753124Q190.48438 27.64375 191.0 27.3Q191.51562 26.940624 192.125 26.940624Q193.01562 26.940624 193.9375 27.503124L193.32812 29.14375Q192.6875 28.753124 192.04688 28.753124Q191.46875 28.753124 191.0 29.1125Q190.54688 29.45625 190.34375 30.065624Q190.0625 31.003124 190.0625 32.1125L190.0625 37.55L188.29688 37.55ZM200.67188 32.3625Q200.67188 29.4875 202.26562 28.096874Q203.60938 26.940624 205.53125 26.940624Q207.67188 26.940624 209.01562 28.346874Q210.375 29.753124 210.375 32.221874Q210.375 34.221874 209.78125 35.378124Q209.1875 36.51875 208.03125 37.159374Q206.89062 37.784374 205.53125 37.784374Q203.34375 37.784374 202.0 36.39375Q200.67188 34.9875 200.67188 32.3625ZM202.46875 32.3625Q202.46875 34.3625 203.32812 35.346874Q204.20312 36.33125 205.53125 36.33125Q206.84375 36.33125 207.70312 35.346874Q208.57812 34.346874 208.57812 32.3Q208.57812 30.378124 207.70312 29.39375Q206.82812 28.39375 205.53125 28.39375Q204.20312 28.39375 203.32812 29.39375Q202.46875 30.378124 202.46875 32.3625ZM212.73438 37.55L212.73438 28.55L211.1875 28.55L211.1875 27.175L212.73438 27.175L212.73438 26.08125Q212.73438 25.034374 212.92188 24.51875Q213.17188 23.83125 213.8125 23.409374Q214.45312 22.9875 215.60938 22.9875Q216.35938 22.9875 217.25 23.159374L216.98438 24.690624Q216.4375 24.596874 215.95312 24.596874Q215.15625 24.596874 214.8125 24.940624Q214.48438 25.284374 214.48438 26.221874L214.48438 27.175L216.51562 27.175L216.51562 28.55L214.48438 28.55L214.48438 37.55L212.73438 37.55ZM224.29688 37.55L224.29688 27.175L225.875 27.175L225.875 28.753124Q226.48438 27.64375 227.0 27.3Q227.51562 26.940624 228.125 26.940624Q229.01562 26.940624 229.9375 27.503124L229.32812 29.14375Q228.6875 28.753124 228.04688 28.753124Q227.46875 28.753124 227.0 29.1125Q226.54688 29.45625 226.34375 30.065624Q226.0625 31.003124 226.0625 32.1125L226.0625 37.55L224.29688 37.55ZM238.10938 37.55L238.10938 36.01875Q236.90625 37.784374 234.82812 37.784374Q233.90625 37.784374 233.10938 37.440624Q232.3125 37.08125 231.92188 36.55Q231.54688 36.01875 231.39062 35.2375Q231.28125 34.721874 231.28125 33.596874L231.28125 27.175L233.03125 27.175L233.03125 32.925Q233.03125 34.3 233.14062 34.784374Q233.3125 35.471874 233.84375 35.878124Q234.39062 36.26875 235.17188 36.26875Q235.96875 36.26875 236.65625 35.8625Q237.35938 35.45625 237.64062 34.76875Q237.9375 34.065624 237.9375 32.7375L237.9375 27.175L239.6875 27.175L239.6875 37.55L238.10938 37.55ZM241.3125 37.55L241.3125 27.175L242.90625 27.175L242.90625 28.659374Q244.04688 26.940624 246.20312 26.940624Q247.14062 26.940624 247.92188 27.284374Q248.71875 27.6125 249.10938 28.159374Q249.5 28.70625 249.65625 29.45625Q249.75 29.95625 249.75 31.175L249.75 37.55L247.98438 37.55L247.98438 31.2375Q247.98438 30.159374 247.78125 29.628124Q247.57812 29.096874 247.04688 28.784374Q246.53125 28.471874 245.82812 28.471874Q244.70312 28.471874 243.89062 29.190624Q243.07812 29.89375 243.07812 31.878124L243.07812 37.55L241.3125 37.55ZM251.3125 37.55L251.3125 27.175L252.90625 27.175L252.90625 28.659374Q254.04688 26.940624 256.20312 26.940624Q257.14062 26.940624 257.92188 27.284374Q258.71875 27.6125 259.10938 28.159374Q259.5 28.70625 259.65625 29.45625Q259.75 29.95625 259.75 31.175L259.75 37.55L257.98438 37.55L257.98438 31.2375Q257.98438 30.159374 257.78125 29.628124Q257.57812 29.096874 257.04688 28.784374Q256.53125 28.471874 255.82812 28.471874Q254.70312 28.471874 253.89062 29.190624Q253.07812 29.89375 253.07812 31.878124L253.07812 37.55L251.3125 37.55ZM261.32812 25.253124L261.32812 23.2375L263.09375 23.2375L263.09375 25.253124L261.32812 25.253124ZM261.32812 37.55L261.32812 27.175L263.09375 27.175L263.09375 37.55L261.32812 37.55ZM265.3125 37.55L265.3125 27.175L266.90625 27.175L266.90625 28.659374Q268.04688 26.940624 270.20312 26.940624Q271.14062 26.940624 271.92188 27.284374Q272.71875 27.6125 273.10938 28.159374Q273.5 28.70625 273.65625 29.45625Q273.75 29.95625 273.75 31.175L273.75 37.55L271.98438 37.55L271.98438 31.2375Q271.98438 30.159374 271.78125 29.628124Q271.57812 29.096874 271.04688 28.784374Q270.53125 28.471874 269.82812 28.471874Q268.70312 28.471874 267.89062 29.190624Q267.07812 29.89375 267.07812 31.878124L267.07812 37.55L265.3125 37.55ZM275.0 38.409374L276.70312 38.659374Q276.8125 39.45625 277.29688 39.815624Q277.95312 40.3 279.09375 40.3Q280.3125 40.3 280.96875 39.815624Q281.64062 39.33125 281.875 38.45625Q282.01562 37.909374 282.0 36.190624Q280.84375 37.55 279.125 37.55Q276.98438 37.55 275.8125 36.003124Q274.64062 34.45625 274.64062 32.3Q274.64062 30.815624 275.17188 29.565624Q275.71875 28.315624 276.73438 27.628124Q277.76562 26.940624 279.14062 26.940624Q280.96875 26.940624 282.17188 28.425L282.17188 27.175L283.78125 27.175L283.78125 36.14375Q283.78125 38.565624 283.28125 39.565624Q282.79688 40.58125 281.71875 41.159374Q280.65625 41.753124 279.09375 41.753124Q277.25 41.753124 276.09375 40.925Q274.95312 40.096874 275.0 38.409374ZM276.45312 32.175Q276.45312 34.221874 277.26562 35.159374Q278.07812 36.096874 279.29688 36.096874Q280.5 36.096874 281.3125 35.159374Q282.14062 34.221874 282.14062 32.2375Q282.14062 30.33125 281.29688 29.3625Q280.45312 28.39375 279.26562 28.39375Q278.09375 28.39375 277.26562 29.346874Q276.45312 30.3 276.45312 32.175ZM292.0 38.409374L293.70312 38.659374Q293.8125 39.45625 294.29688 39.815624Q294.95312 40.3 296.09375 40.3Q297.3125 40.3 297.96875 39.815624Q298.64062 39.33125 298.875 38.45625Q299.01562 37.909374 299.0 36.190624Q297.84375 37.55 296.125 37.55Q293.98438 37.55 292.8125 36.003124Q291.64062 34.45625 291.64062 32.3Q291.64062 30.815624 292.17188 29.565624Q292.71875 28.315624 293.73438 27.628124Q294.76562 26.940624 296.14062 26.940624Q297.96875 26.940624 299.17188 28.425L299.17188 27.175L300.78125 27.175L300.78125 36.14375Q300.78125 38.565624 300.28125 39.565624Q299.79688 40.58125 298.71875 41.159374Q297.65625 41.753124 296.09375 41.753124Q294.25 41.753124 293.09375 40.925Q291.95312 40.096874 292.0 38.409374ZM293.45312 32.175Q293.45312 34.221874 294.26562 35.159374Q295.07812 36.096874 296.29688 36.096874Q297.5 36.096874 298.3125 35.159374Q299.14062 34.221874 299.14062 32.2375Q299.14062 30.33125 298.29688 29.3625Q297.45312 28.39375 296.26562 28.39375Q295.09375 28.39375 294.26562 29.346874Q293.45312 30.3 293.45312 32.175ZM310.10938 37.55L310.10938 36.01875Q308.90625 37.784374 306.82812 37.784374Q305.90625 37.784374 305.10938 37.440624Q304.3125 37.08125 303.92188 36.55Q303.54688 36.01875 303.39062 35.2375Q303.28125 34.721874 303.28125 33.596874L303.28125 27.175L305.03125 27.175L305.03125 32.925Q305.03125 34.3 305.14062 34.784374Q305.3125 35.471874 305.84375 35.878124Q306.39062 36.26875 307.17188 36.26875Q307.96875 36.26875 308.65625 35.8625Q309.35938 35.45625 309.64062 34.76875Q309.9375 34.065624 309.9375 32.7375L309.9375 27.175L311.6875 27.175L311.6875 37.55L310.10938 37.55ZM320.09375 36.26875Q319.10938 37.096874 318.20312 37.440624Q317.29688 37.784374 316.26562 37.784374Q314.5625 37.784374 313.64062 36.95625Q312.71875 36.1125 312.71875 34.815624Q312.71875 34.05 313.0625 33.425Q313.42188 32.8 313.98438 32.425Q314.54688 32.034374 315.25 31.83125Q315.76562 31.70625 316.8125 31.565624Q318.9375 31.315624 319.9375 30.971874Q319.95312 30.6125 319.95312 30.503124Q319.95312 29.440624 319.45312 28.9875Q318.78125 28.39375 317.45312 28.39375Q316.20312 28.39375 315.60938 28.83125Q315.03125 29.26875 314.75 30.378124L313.03125 30.14375Q313.26562 29.034374 313.79688 28.3625Q314.32812 27.675 315.34375 27.315624Q316.35938 26.940624 317.70312 26.940624Q319.03125 26.940624 319.85938 27.253124Q320.6875 27.565624 321.07812 28.05Q321.46875 28.51875 321.625 29.2375Q321.71875 29.690624 321.71875 30.8625L321.71875 33.20625Q321.71875 35.659374 321.82812 36.315624Q321.9375 36.95625 322.28125 37.55L320.4375 37.55Q320.17188 37.003124 320.09375 36.26875ZM319.9375 32.346874Q318.98438 32.7375 317.0625 33.003124Q315.98438 33.159374 315.53125 33.3625Q315.09375 33.55 314.84375 33.925Q314.59375 34.3 314.59375 34.76875Q314.59375 35.471874 315.125 35.940624Q315.65625 36.409374 316.6875 36.409374Q317.70312 36.409374 318.48438 35.971874Q319.28125 35.51875 319.65625 34.753124Q319.9375 34.14375 319.9375 32.9875L319.9375 32.346874ZM324.29688 37.55L324.29688 27.175L325.875 27.175L325.875 28.753124Q326.48438 27.64375 327.0 27.3Q327.51562 26.940624 328.125 26.940624Q329.01562 26.940624 329.9375 27.503124L329.32812 29.14375Q328.6875 28.753124 328.04688 28.753124Q327.46875 28.753124 327.0 29.1125Q326.54688 29.45625 326.34375 30.065624Q326.0625 31.003124 326.0625 32.1125L326.0625 37.55L324.29688 37.55ZM338.04688 37.55L338.04688 36.2375Q337.0625 37.784374 335.14062 37.784374Q333.90625 37.784374 332.85938 37.096874Q331.82812 36.409374 331.25 35.190624Q330.6875 33.971874 330.6875 32.378124Q330.6875 30.815624 331.20312 29.55Q331.71875 28.284374 332.75 27.6125Q333.79688 26.940624 335.0625 26.940624Q336.0 26.940624 336.73438 27.346874Q337.46875 27.7375 337.9375 28.3625L337.9375 23.2375L339.67188 23.2375L339.67188 37.55L338.04688 37.55ZM332.48438 32.378124Q332.48438 34.3625 333.32812 35.346874Q334.17188 36.33125 335.3125 36.33125Q336.46875 36.33125 337.26562 35.39375Q338.07812 34.45625 338.07812 32.51875Q338.07812 30.39375 337.25 29.39375Q336.4375 28.39375 335.23438 28.39375Q334.0625 28.39375 333.26562 29.3625Q332.48438 30.315624 332.48438 32.378124ZM355.09375 36.26875Q354.10938 37.096874 353.20312 37.440624Q352.29688 37.784374 351.26562 37.784374Q349.5625 37.784374 348.64062 36.95625Q347.71875 36.1125 347.71875 34.815624Q347.71875 34.05 348.0625 33.425Q348.42188 32.8 348.98438 32.425Q349.54688 32.034374 350.25 31.83125Q350.76562 31.70625 351.8125 31.565624Q353.9375 31.315624 354.9375 30.971874Q354.95312 30.6125 354.95312 30.503124Q354.95312 29.440624 354.45312 28.9875Q353.78125 28.39375 352.45312 28.39375Q351.20312 28.39375 350.60938 28.83125Q350.03125 29.26875 349.75 30.378124L348.03125 30.14375Q348.26562 29.034374 348.79688 28.3625Q349.32812 27.675 350.34375 27.315624Q351.35938 26.940624 352.70312 26.940624Q354.03125 26.940624 354.85938 27.253124Q355.6875 27.565624 356.07812 28.05Q356.46875 28.51875 356.625 29.2375Q356.71875 29.690624 356.71875 30.8625L356.71875 33.20625Q356.71875 35.659374 356.82812 36.315624Q356.9375 36.95625 357.28125 37.55L355.4375 37.55Q355.17188 37.003124 355.09375 36.26875ZM354.9375 32.346874Q353.98438 32.7375 352.0625 33.003124Q350.98438 33.159374 350.53125 33.3625Q350.09375 33.55 349.84375 33.925Q349.59375 34.3 349.59375 34.76875Q349.59375 35.471874 350.125 35.940624Q350.65625 36.409374 351.6875 36.409374Q352.70312 36.409374 353.48438 35.971874Q354.28125 35.51875 354.65625 34.753124Q354.9375 34.14375 354.9375 32.9875L354.9375 32.346874ZM359.3125 37.55L359.3125 27.175L360.90625 27.175L360.90625 28.659374Q362.04688 26.940624 364.20312 26.940624Q365.14062 26.940624 365.92188 27.284374Q366.71875 27.6125 367.10938 28.159374Q367.5 28.70625 367.65625 29.45625Q367.75 29.95625 367.75 31.175L367.75 37.55L365.98438 37.55L365.98438 31.2375Q365.98438 30.159374 365.78125 29.628124Q365.57812 29.096874 365.04688 28.784374Q364.53125 28.471874 363.82812 28.471874Q362.70312 28.471874 361.89062 29.190624Q361.07812 29.89375 361.07812 31.878124L361.07812 37.55L359.3125 37.55ZM376.04688 37.55L376.04688 36.2375Q375.0625 37.784374 373.14062 37.784374Q371.90625 37.784374 370.85938 37.096874Q369.82812 36.409374 369.25 35.190624Q368.6875 33.971874 368.6875 32.378124Q368.6875 30.815624 369.20312 29.55Q369.71875 28.284374 370.75 27.6125Q371.79688 26.940624 373.0625 26.940624Q374.0 26.940624 374.73438 27.346874Q375.46875 27.7375 375.9375 28.3625L375.9375 23.2375L377.67188 23.2375L377.67188 37.55L376.04688 37.55ZM370.48438 32.378124Q370.48438 34.3625 371.32812 35.346874Q372.17188 36.33125 373.3125 36.33125Q374.46875 36.33125 375.26562 35.39375Q376.07812 34.45625 376.07812 32.51875Q376.07812 30.39375 375.25 29.39375Q374.4375 28.39375 373.23438 28.39375Q372.0625 28.39375 371.26562 29.3625Q370.48438 30.315624 370.48438 32.378124ZM393.42188 34.20625L395.23438 34.440624Q394.8125 36.01875 393.64062 36.909374Q392.48438 37.784374 390.67188 37.784374Q388.40625 37.784374 387.0625 36.39375Q385.73438 34.9875 385.73438 32.45625Q385.73438 29.83125 387.07812 28.39375Q388.42188 26.940624 390.57812 26.940624Q392.65625 26.940624 393.96875 28.3625Q395.29688 29.76875 395.29688 32.346874Q395.29688 32.503124 395.28125 32.815624L387.54688 32.815624Q387.64062 34.51875 388.51562 35.425Q389.39062 36.33125 390.6875 36.33125Q391.65625 36.33125 392.32812 35.83125Q393.01562 35.315624 393.42188 34.20625ZM387.64062 31.3625L393.4375 31.3625Q393.32812 30.065624 392.78125 29.409374Q391.9375 28.39375 390.59375 28.39375Q389.39062 28.39375 388.5625 29.20625Q387.73438 30.003124 387.64062 31.3625ZM396.14062 37.55L399.9375 32.159374L396.4375 27.175L398.625 27.175L400.21875 29.6125Q400.67188 30.3 400.9375 30.76875Q401.375 30.128124 401.73438 29.628124L403.48438 27.175L405.57812 27.175L402.0 32.065624L405.85938 37.55L403.70312 37.55L401.5625 34.33125L401.0 33.45625L398.28125 37.55L396.14062 37.55ZM406.32812 25.253124L406.32812 23.2375L408.09375 23.2375L408.09375 25.253124L406.32812 25.253124ZM406.32812 37.55L406.32812 27.175L408.09375 27.175L408.09375 37.55L406.32812 37.55ZM414.15625 35.971874L414.40625 37.534374Q413.67188 37.690624 413.07812 37.690624Q412.125 37.690624 411.59375 37.39375Q411.07812 37.08125 410.85938 36.596874Q410.64062 36.096874 410.64062 34.51875L410.64062 28.55L409.35938 28.55L409.35938 27.175L410.64062 27.175L410.64062 24.6125L412.39062 23.55L412.39062 27.175L414.15625 27.175L414.15625 28.55L412.39062 28.55L412.39062 34.6125Q412.39062 35.3625 412.48438 35.58125Q412.57812 35.784374 412.78125 35.925Q413.0 36.05 413.39062 36.05Q413.67188 36.05 414.15625 35.971874ZM422.29688 37.55L422.29688 27.175L423.875 27.175L423.875 28.753124Q424.48438 27.64375 425.0 27.3Q425.51562 26.940624 426.125 26.940624Q427.01562 26.940624 427.9375 27.503124L427.32812 29.14375Q426.6875 28.753124 426.04688 28.753124Q425.46875 28.753124 425.0 29.1125Q424.54688 29.45625 424.34375 30.065624Q424.0625 31.003124 424.0625 32.1125L424.0625 37.55L422.29688 37.55ZM436.42188 34.20625L438.23438 34.440624Q437.8125 36.01875 436.64062 36.909374Q435.48438 37.784374 433.67188 37.784374Q431.40625 37.784374 430.0625 36.39375Q428.73438 34.9875 428.73438 32.45625Q428.73438 29.83125 430.07812 28.39375Q431.42188 26.940624 433.57812 26.940624Q435.65625 26.940624 436.96875 28.3625Q438.29688 29.76875 438.29688 32.346874Q438.29688 32.503124 438.28125 32.815624L430.54688 32.815624Q430.64062 34.51875 431.51562 35.425Q432.39062 36.33125 433.6875 36.33125Q434.65625 36.33125 435.32812 35.83125Q436.01562 35.315624 436.42188 34.20625ZM430.64062 31.3625L436.4375 31.3625Q436.32812 30.065624 435.78125 29.409374Q434.9375 28.39375 433.59375 28.39375Q432.39062 28.39375 431.5625 29.20625Q430.73438 30.003124 430.64062 31.3625ZM440.28125 37.55L440.28125 23.2375L442.03125 23.2375L442.03125 37.55L440.28125 37.55ZM451.09375 36.26875Q450.10938 37.096874 449.20312 37.440624Q448.29688 37.784374 447.26562 37.784374Q445.5625 37.784374 444.64062 36.95625Q443.71875 36.1125 443.71875 34.815624Q443.71875 34.05 444.0625 33.425Q444.42188 32.8 444.98438 32.425Q445.54688 32.034374 446.25 31.83125Q446.76562 31.70625 447.8125 31.565624Q449.9375 31.315624 450.9375 30.971874Q450.95312 30.6125 450.95312 30.503124Q450.95312 29.440624 450.45312 28.9875Q449.78125 28.39375 448.45312 28.39375Q447.20312 28.39375 446.60938 28.83125Q446.03125 29.26875 445.75 30.378124L444.03125 30.14375Q444.26562 29.034374 444.79688 28.3625Q445.32812 27.675 446.34375 27.315624Q447.35938 26.940624 448.70312 26.940624Q450.03125 26.940624 450.85938 27.253124Q451.6875 27.565624 452.07812 28.05Q452.46875 28.51875 452.625 29.2375Q452.71875 29.690624 452.71875 30.8625L452.71875 33.20625Q452.71875 35.659374 452.82812 36.315624Q452.9375 36.95625 453.28125 37.55L451.4375 37.55Q451.17188 37.003124 451.09375 36.26875ZM450.9375 32.346874Q449.98438 32.7375 448.0625 33.003124Q446.98438 33.159374 446.53125 33.3625Q446.09375 33.55 445.84375 33.925Q445.59375 34.3 445.59375 34.76875Q445.59375 35.471874 446.125 35.940624Q446.65625 36.409374 447.6875 36.409374Q448.70312 36.409374 449.48438 35.971874Q450.28125 35.51875 450.65625 34.753124Q450.9375 34.14375 450.9375 32.9875L450.9375 32.346874ZM455.23438 41.55L455.04688 39.89375Q455.625 40.05 456.04688 40.05Q456.64062 40.05 456.98438 39.846874Q457.34375 39.659374 457.5625 39.315624Q457.73438 39.05 458.10938 38.003124Q458.15625 37.846874 458.26562 37.565624L454.32812 27.175L456.21875 27.175L458.375 33.190624Q458.79688 34.33125 459.125 35.58125Q459.4375 34.378124 459.84375 33.221874L462.0625 27.175L463.82812 27.175L459.875 37.721874Q459.25 39.440624 458.89062 40.08125Q458.42188 40.95625 457.8125 41.346874Q457.21875 41.753124 456.375 41.753124Q455.85938 41.753124 455.23438 41.55ZM464.60938 34.45625L466.35938 34.175Q466.5 35.221874 467.17188 35.784374Q467.84375 36.33125 469.04688 36.33125Q470.25 36.33125 470.82812 35.846874Q471.42188 35.346874 471.42188 34.690624Q471.42188 34.096874 470.90625 33.753124Q470.54688 33.51875 469.10938 33.159374Q467.17188 32.659374 466.42188 32.315624Q465.6875 31.95625 465.29688 31.33125Q464.90625 30.690624 464.90625 29.925Q464.90625 29.2375 465.21875 28.64375Q465.54688 28.05 466.09375 27.659374Q466.5 27.3625 467.20312 27.159374Q467.92188 26.940624 468.73438 26.940624Q469.95312 26.940624 470.875 27.3Q471.79688 27.64375 472.23438 28.253124Q472.67188 28.846874 472.84375 29.846874L471.125 30.08125Q471.0 29.284374 470.4375 28.846874Q469.875 28.39375 468.85938 28.39375Q467.64062 28.39375 467.125 28.8Q466.60938 29.190624 466.60938 29.721874Q466.60938 30.065624 466.82812 30.346874Q467.03125 30.628124 467.5 30.815624Q467.76562 30.909374 469.04688 31.253124Q470.92188 31.753124 471.65625 32.08125Q472.39062 32.39375 472.8125 33.003124Q473.23438 33.596874 473.23438 34.503124Q473.23438 35.378124 472.71875 36.159374Q472.20312 36.940624 471.23438 37.3625Q470.26562 37.784374 469.04688 37.784374Q467.03125 37.784374 465.96875 36.940624Q464.90625 36.096874 464.60938 34.45625Z" fill-rule="nonzero"/></svg>